<svg width="155" height="237" viewBox="0 0 155 237" fill="none" xmlns="http://www.w3.org/2000/svg">
<mask id="mask0_477_168" style="mask-type:alpha" maskUnits="userSpaceOnUse" x="-150" y="-40" width="305" height="300">
<rect x="-150" y="-40" width="305" height="300" rx="15" fill="#90BC4F"/>
</mask>
<g mask="url(#mask0_477_168)">
<path fill-rule="evenodd" clip-rule="evenodd" d="M103.97 1.33488C87.7221 3.84028 76.4254 7.41335 63.1663 14.2402C15.0165 39.0312 -9.86122 94.2173 3.65642 146.249C4.69073 150.23 7.1995 157.433 9.23146 162.254C11.2625 167.076 13.1037 172.059 13.321 173.328C13.5393 174.597 10.6756 189.442 6.95834 206.318C3.24104 223.194 0.234373 237.001 0.27747 237C0.320566 237 14.691 233.715 32.212 229.7L64.0686 222.4L71.6187 225.605C100.011 237.656 132.301 237.884 161.175 226.237C192.239 213.709 217.762 186.6 228.177 155.078C232.841 140.963 234 133.573 234 117.96C234 97.5892 230.123 81.3968 221.141 64.2494C205.02 33.4759 176.142 11.278 142.024 3.43148C134.398 1.67724 110.341 0.3521 103.97 1.33488ZM141.565 22.3839C169.746 29.6574 193.752 49.528 206.306 75.9726C219.2 103.133 219.303 132.14 206.6 159.349C191.802 191.042 162.503 211.83 126.956 215.855C109.935 217.783 91.1589 214.449 74.3265 206.511L66.6782 202.904L46.0616 207.584C34.7217 210.159 25.2533 212.073 25.0204 211.838C24.7875 211.604 26.6021 202.211 29.0531 190.967L33.5104 170.523L28.6176 160.622C25.886 155.094 22.6427 146.642 21.2765 141.491C19.1006 133.29 18.8301 130.621 18.8493 117.499C18.8686 104.589 19.1693 101.608 21.2416 93.7771C28.579 66.048 47.9 42.1207 72.7942 29.9324C89.5093 21.749 101.767 19.0766 120.017 19.6367C129.36 19.9237 134.645 20.5974 141.565 22.3839ZM72.9666 69.9126C63.1397 79.0289 61.0106 93.1404 67.3026 107.459C72.8529 120.09 89.9558 140.854 102.439 150.118C115.461 159.78 134.613 167.13 147.067 167.244C153.818 167.306 154.878 167.048 160.363 164.014C168.413 159.561 171.4 155.25 172.046 147.154L172.532 141.061L160.258 135.048C153.507 131.741 147.105 129.034 146.03 129.034C144.834 129.034 143.089 130.376 141.535 132.494C137.229 138.359 132.563 142.876 130.809 142.876C125.92 142.876 109.012 131.921 102.295 124.402C97.9617 119.552 90.6747 109.114 90.6747 107.758C90.6747 107.338 92.7378 104.621 95.2595 101.721C98.2496 98.2822 99.8442 95.6116 99.8442 94.0419C99.8442 91.1231 91.3936 70.4571 89.2039 68.0227C88.0101 66.6948 86.366 66.2833 82.2599 66.2833C77.2726 66.2833 76.5941 66.5481 72.9666 69.9126Z" fill="white" fill-opacity="0.1"/>
</g>
</svg>
