<svg width="47" height="47" viewBox="0 0 47 47" fill="none" xmlns="http://www.w3.org/2000/svg">
<g filter="url(#filter0_i_107_1758)">
<rect width="47" height="47" rx="23.5" fill="#5DA8E0"/>
</g>
<path fill-rule="evenodd" clip-rule="evenodd" d="M32.5704 14.4797C32.0681 14.6929 30.7113 15.2711 29.5551 15.7645C28.3989 16.2579 27.3399 16.7082 27.2016 16.7653C27.0634 16.8223 25.7576 17.3777 24.2998 17.9995C21.622 19.1418 17.2316 21.0106 14.1891 22.3033C13.2779 22.6904 12.5328 23.0185 12.5331 23.0324C12.5335 23.0463 13.135 23.2926 13.8698 23.5798C14.6046 23.8669 15.5349 24.2322 15.937 24.3915C16.3392 24.5508 16.8636 24.7563 17.1023 24.8482L17.5365 25.0151L18.8262 28.3009C19.5355 30.1081 20.1245 31.6077 20.135 31.6334C20.1456 31.659 20.9122 30.9092 21.8388 29.9672C22.7653 29.0251 23.54 28.2543 23.5603 28.2543C23.5806 28.2543 24.3003 28.8255 25.1595 29.5234C26.0188 30.2215 27.0193 31.0342 27.3831 31.3295C27.7467 31.6248 28.3431 32.1101 28.7083 32.4079C29.1094 32.735 29.3835 32.9287 29.4007 32.8973C29.4163 32.8686 29.4845 32.583 29.5523 32.2626C29.6201 31.9421 29.7454 31.3654 29.8307 30.9809C29.9161 30.5963 30.7377 26.8212 31.6565 22.5916C32.5754 18.3619 33.3662 14.7232 33.4139 14.5054C33.4617 14.2876 33.4969 14.1055 33.4922 14.1007C33.4875 14.0958 33.0727 14.2664 32.5704 14.4797ZM27.292 19.6939C27.1399 19.8396 25.4969 21.3695 23.1345 23.565C22.0663 24.5578 21.158 25.416 21.1162 25.4723C21.0743 25.5284 20.9434 25.9519 20.8253 26.4133C20.2953 28.4845 20.2703 28.5673 20.2142 28.4408C20.1858 28.3767 19.8549 27.538 19.4788 26.5771C18.9458 25.215 18.8076 24.8183 18.8513 24.777C18.8821 24.7479 19.4935 24.3683 20.2098 23.9334C20.9261 23.4986 22.4787 22.555 23.66 21.8364C27.2252 19.6679 27.3608 19.5859 27.3834 19.5857C27.3954 19.5855 27.3543 19.6342 27.292 19.6939Z" fill="white"/>
<defs>
<filter id="filter0_i_107_1758" x="0" y="0" width="51" height="50" filterUnits="userSpaceOnUse" color-interpolation-filters="sRGB">
<feFlood flood-opacity="0" result="BackgroundImageFix"/>
<feBlend mode="normal" in="SourceGraphic" in2="BackgroundImageFix" result="shape"/>
<feColorMatrix in="SourceAlpha" type="matrix" values="0 0 0 0 0 0 0 0 0 0 0 0 0 0 0 0 0 0 127 0" result="hardAlpha"/>
<feOffset dx="4" dy="3"/>
<feGaussianBlur stdDeviation="6.5"/>
<feComposite in2="hardAlpha" operator="arithmetic" k2="-1" k3="1"/>
<feColorMatrix type="matrix" values="0 0 0 0 1 0 0 0 0 1 0 0 0 0 1 0 0 0 0.25 0"/>
<feBlend mode="normal" in2="shape" result="effect1_innerShadow_107_1758"/>
</filter>
</defs>
</svg>
