<svg width="47" height="47" viewBox="0 0 47 47" fill="none" xmlns="http://www.w3.org/2000/svg">
<g filter="url(#filter0_i_107_1743)">
<circle cx="23.5" cy="23.5" r="23.5" fill="url(#paint0_linear_107_1743)"/>
</g>
<path d="M21.9259 30.1645C21.6983 30.4862 21.4828 30.6448 21.2768 30.6448C21.1395 30.6448 21.0614 30.5644 21.0365 30.4048C21.0267 30.3718 21.0267 30.2466 21.0267 30.0059V25.834H20.0007V30.3146C20.0007 30.7151 20.0347 30.9852 20.0913 31.1568C20.1936 31.4439 20.4219 31.5783 20.7527 31.5783C21.13 31.5783 21.5178 31.3504 21.9255 30.8822V31.5005H22.9532V25.8343H21.9259V30.1645Z" fill="white"/>
<path d="M16.2713 24.966H17.479V31.5002H18.6208V24.966H19.8508V23.8955H16.2713V24.966Z" fill="white"/>
<path d="M23.2633 20.0127C23.5978 20.0127 23.758 19.7478 23.758 19.2178V16.8088C23.758 16.2795 23.5978 16.0156 23.2633 16.0156C22.9285 16.0156 22.768 16.2795 22.768 16.8088V19.2178C22.7683 19.7475 22.9285 20.0127 23.2633 20.0127Z" fill="white"/>
<path d="M25.9288 25.7647C25.5515 25.7647 25.1997 25.9714 24.8685 26.3794V23.8955H23.8416V31.5002H24.8685V30.9503C25.2112 31.375 25.564 31.578 25.9288 31.578C26.3379 31.578 26.6125 31.3629 26.7498 30.9414C26.8182 30.7011 26.8531 30.3238 26.8531 29.7997V27.5434C26.8531 27.0072 26.8182 26.6325 26.7498 26.4046C26.6122 25.9799 26.3379 25.7647 25.9288 25.7647ZM25.8265 29.8801C25.8265 30.3918 25.6758 30.6442 25.3799 30.6442C25.2112 30.6442 25.0398 30.5638 24.8682 30.3921V26.9382C25.0398 26.7691 25.2108 26.6887 25.3799 26.6887C25.6761 26.6887 25.8265 26.9509 25.8265 27.462V29.8801Z" fill="white"/>
<path d="M29.1986 25.7656C28.6748 25.7656 28.2655 25.9589 27.9692 26.347C27.7508 26.633 27.6518 27.0757 27.6518 27.6809V29.6662C27.6518 30.2678 27.7636 30.7154 27.9817 30.9982C28.2782 31.385 28.6869 31.5786 29.2244 31.5786C29.7606 31.5786 30.1814 31.3755 30.4659 30.9649C30.5913 30.7804 30.6733 30.5699 30.7055 30.3492C30.7147 30.2462 30.7275 30.018 30.7275 29.6878V29.5374H29.6796C29.6796 29.9494 29.6668 30.1772 29.6573 30.2332C29.5988 30.5075 29.451 30.6448 29.1986 30.6448C28.8461 30.6448 28.6748 30.3832 28.6748 29.8588V28.8544H30.7278V27.6806C30.7278 27.0751 30.6248 26.6327 30.41 26.3466C30.1226 25.9585 29.7139 25.7656 29.1986 25.7656ZM29.7011 28H28.6748V27.4759C28.6748 26.9522 28.8461 26.6899 29.1894 26.6899C29.5292 26.6899 29.7011 26.9522 29.7011 27.4759V28Z" fill="white"/>
<path d="M32.9799 11.7275H14.0164C12.7577 11.7275 11.7278 12.7575 11.7278 14.0162V32.9797C11.7278 34.2385 12.7577 35.2684 14.0164 35.2684H32.9799C34.2387 35.2684 35.2686 34.2385 35.2686 32.9797V14.0162C35.2686 12.7575 34.2387 11.7275 32.9799 11.7275ZM25.6496 15.1508H26.6837V19.3659C26.6837 19.6098 26.6837 19.7363 26.6965 19.7697C26.7194 19.9306 26.8004 20.0126 26.9397 20.0126C27.147 20.0126 27.3651 19.8518 27.595 19.5268V15.1508H28.6327V20.8758H27.595V20.2513C27.182 20.7251 26.788 20.9552 26.4097 20.9552C26.0756 20.9552 25.8451 20.8195 25.7414 20.5292C25.6842 20.3562 25.6496 20.0819 25.6496 19.6778V15.1508ZM21.7303 17.017C21.7303 16.4053 21.8346 15.9577 22.0553 15.6683C22.3424 15.2773 22.7465 15.0815 23.2631 15.0815C23.783 15.0815 24.1864 15.2773 24.4738 15.6683C24.6909 15.9577 24.7959 16.4053 24.7959 17.017V19.0229C24.7959 19.6311 24.6913 20.0823 24.4738 20.3697C24.1864 20.7597 23.7833 20.9556 23.2631 20.9556C22.7462 20.9556 22.3421 20.7597 22.0553 20.3697C21.8346 20.0823 21.7303 19.6311 21.7303 19.0229V17.017ZM18.9558 13.193L19.7728 16.2098L20.5572 13.193H21.7205L20.3368 17.7645V20.8758H19.186V17.7645C19.082 17.2126 18.8518 16.405 18.483 15.3335C18.2404 14.6208 17.9877 13.9047 17.7454 13.193H18.9558ZM31.696 31.8412C31.4887 32.7446 30.7491 33.411 29.8598 33.51C27.7529 33.7454 25.6208 33.7468 23.4982 33.7454C21.3753 33.7468 19.2432 33.7454 17.1366 33.51C16.2469 33.4106 15.5087 32.7443 15.3011 31.8412C15.0052 30.5543 15.0052 29.1497 15.0052 27.8256C15.0052 26.5001 15.0084 25.0965 15.3047 23.8092C15.5119 22.9062 16.2505 22.2402 17.1402 22.1408C19.2468 21.9047 21.3789 21.9041 23.5018 21.9047C25.6244 21.9041 27.7565 21.9047 29.8634 22.1408C30.7524 22.2402 31.4916 22.9062 31.6992 23.8092C31.9951 25.0968 31.9935 26.5001 31.9935 27.8256C31.9938 29.1497 31.9922 30.5543 31.696 31.8412Z" fill="white"/>
<defs>
<filter id="filter0_i_107_1743" x="0" y="0" width="47" height="47" filterUnits="userSpaceOnUse" color-interpolation-filters="sRGB">
<feFlood flood-opacity="0" result="BackgroundImageFix"/>
<feBlend mode="normal" in="SourceGraphic" in2="BackgroundImageFix" result="shape"/>
<feColorMatrix in="SourceAlpha" type="matrix" values="0 0 0 0 0 0 0 0 0 0 0 0 0 0 0 0 0 0 127 0" result="hardAlpha"/>
<feOffset/>
<feGaussianBlur stdDeviation="10.5"/>
<feComposite in2="hardAlpha" operator="arithmetic" k2="-1" k3="1"/>
<feColorMatrix type="matrix" values="0 0 0 0 1 0 0 0 0 1 0 0 0 0 1 0 0 0 0.32 0"/>
<feBlend mode="normal" in2="shape" result="effect1_innerShadow_107_1743"/>
</filter>
<linearGradient id="paint0_linear_107_1743" x1="21.3867" y1="-29.2945" x2="60.0542" y2="19.8163" gradientUnits="userSpaceOnUse">
<stop stop-color="#EA3323"/>
<stop offset="0.0001" stop-color="#CA392D"/>
<stop offset="1" stop-color="#EA3323"/>
</linearGradient>
</defs>
</svg>
