<svg width="43" height="42" viewBox="0 0 43 42" fill="none" xmlns="http://www.w3.org/2000/svg">
<path d="M36.0795 4.45005C36.4726 4.72143 36.4827 4.70704 36.1557 4.33794C35.8092 3.94254 35.6116 3.83926 35.6252 4.05656C35.6285 4.11003 35.8247 4.27809 36.0795 4.45005ZM0.499443 36.4673C0.718141 36.104 1.09725 35.887 1.55686 35.8583C2.0788 35.8258 2.87411 35.2704 4.51229 33.7974C10.3771 28.5181 12.346 26.7148 12.9791 26.0601C13.3675 25.6512 13.756 25.3311 13.8711 25.3239C13.9862 25.3167 14.5631 24.8321 15.1338 24.259C15.7107 23.6849 16.3278 23.2486 16.4874 23.3061C16.6499 23.3634 16.8456 23.2384 16.9114 23.0375C16.9918 22.7826 16.9342 22.7195 16.7404 22.8417C16.5717 22.9382 16.7488 22.7118 17.1343 22.3113C18.281 21.1381 18.8475 20.6189 18.9783 20.6108C19.0585 20.6058 19.3322 20.3871 19.5842 20.116C20.1534 19.508 21.3678 19.3861 21.5916 19.9096C21.6857 20.1274 21.8363 20.4373 21.915 20.5748C22.1345 20.9513 21.24 22.0772 18.2219 25.2273C12.361 31.3403 11.003 32.6534 10.7713 32.4662C10.7003 32.4087 10.6513 32.5274 10.6633 32.72C10.6756 32.916 10.8014 33.0823 10.9295 33.0743C11.3015 33.0511 15.7527 31.4239 18.1278 30.4431C19.3168 29.9491 20.3748 29.515 20.5083 29.4612C21.2911 29.1351 22.2674 28.6365 22.8229 28.2818C23.1741 28.0583 23.5691 27.9311 23.7076 28.003C23.8602 28.0795 23.9573 28.0363 23.9484 27.8944C23.9334 27.6531 26.2584 26.2666 26.5791 26.3271C26.6611 26.3406 26.9103 26.1688 27.1383 25.9427C27.8056 25.2748 29.0115 24.6215 29.2399 24.8007C29.3528 24.8907 29.3605 24.8365 29.2557 24.6682C29.137 24.4843 29.1998 24.3676 29.4163 24.3541C29.6142 24.3417 29.8017 24.2495 29.8442 24.1478C29.8831 24.0428 30.6409 23.4044 31.5457 22.708C33.8738 20.9311 36.5036 18.0922 37.5457 16.2346C38.5802 14.3878 39.1231 12.244 38.9362 10.7583C38.8671 10.1687 38.8745 9.59298 38.9606 9.4314C39.0453 9.27817 38.9783 9.10755 38.8029 9.05175C38.6274 8.99525 38.1901 8.4445 37.8095 7.80969C37.4315 7.17472 36.9884 6.53004 36.806 6.36181C36.6375 6.19753 36.5505 5.92634 36.625 5.78681C36.7093 5.62878 36.6613 5.59669 36.4962 5.70608C36.3572 5.80352 36.2211 5.7721 36.2127 5.63774C36.2044 5.50407 36.0736 5.39112 35.9291 5.40014C35.7825 5.40928 35.2408 5.12584 34.7331 4.7811C34.2279 4.43139 33.1466 3.80795 32.3667 3.41C30.5024 2.45968 30.1661 1.49936 31.4505 0.814353C31.9001 0.57091 32.1275 0.556722 32.3978 0.755252C32.6003 0.903645 32.7512 0.953406 32.7467 0.881431C32.7417 0.80123 33.0608 0.834993 33.4789 0.956858C33.9056 1.07268 34.2315 1.2588 34.2395 1.38767C34.247 1.50832 34.4239 1.58813 34.6404 1.57462C35.2582 1.53608 37.5809 2.945 39.1041 4.27994C40.545 5.54225 42.4232 8.40061 42.1412 8.91848C42.0648 9.0712 42.1476 9.36194 42.3226 9.54439C42.7142 9.95761 42.7248 13.4438 42.3369 14.7665C41.074 19.0575 37.0686 24.0514 31.8867 27.7886C29.9056 29.2218 25.5964 31.67 25.3187 31.518C25.1714 31.4384 25.1422 31.4891 25.2425 31.6308C25.34 31.772 25.0992 31.9673 24.6727 32.0964C24.2713 32.2102 23.5878 32.5405 23.1939 32.8067C22.7859 33.0792 20.6935 34.0162 18.5318 34.8908C16.3648 35.7678 14.6903 36.482 14.8006 36.4751C15.5742 36.4757 21.6189 37.1439 23.2958 37.4157C25.29 37.7379 25.9445 38.0652 25.655 38.5939C25.5851 38.7193 25.6484 38.7422 25.7871 38.6393C26.2529 38.3143 26.4525 39.5736 26.0477 40.2815C25.4211 41.3824 25.2249 41.3891 20.2241 40.5781C19.0083 40.3793 15.5811 40.0364 12.6205 39.8103C5.7823 39.2963 2.21124 38.941 1.25874 38.6963C0.893485 38.6062 0.141756 37.5782 0.149699 37.1876C0.15223 37.1069 0.317096 36.7739 0.499443 36.4673Z" fill="white"/>
</svg>
