<svg width="25" height="17" viewBox="0 0 25 17" fill="none" xmlns="http://www.w3.org/2000/svg">
<path d="M8.54492 16.1289C12.9629 16.1289 16.5449 12.5181 16.5449 8.06446C16.5449 3.61086 12.9629 0 8.54492 0C4.12692 0 0.544922 3.61086 0.544922 8.06446C0.544922 12.5181 4.12692 16.1289 8.54492 16.1289Z" fill="white"/>
<path d="M16.5449 16.1289C20.9629 16.1289 24.5449 12.5181 24.5449 8.06446C24.5449 3.61086 20.9629 0 16.5449 0C12.1269 0 8.54492 3.61086 8.54492 8.06446C8.54492 12.5181 12.1269 16.1289 16.5449 16.1289Z" fill="white"/>
<path fill-rule="evenodd" clip-rule="evenodd" d="M12.5449 15.0414C11.3289 14.3348 10.3189 13.3186 9.61691 12.0939C8.91491 10.8691 8.54492 9.47896 8.54492 8.06466C8.54492 6.65035 8.91491 5.26025 9.61691 4.03546C10.3189 2.81067 11.3289 1.79454 12.5449 1.08789C13.7609 1.79454 14.7709 2.81067 15.4729 4.03546C16.1749 5.26025 16.5449 6.65035 16.5449 8.06466C16.5449 9.47896 16.1749 10.8691 15.4729 12.0939C14.7709 13.3186 13.7609 14.3348 12.5449 15.0414Z" fill="#F4F4F4"/>
</svg>
