<svg width="36" height="10" viewBox="0 0 36 10" fill="none" xmlns="http://www.w3.org/2000/svg">
<path fill-rule="evenodd" clip-rule="evenodd" d="M9.55493 9.10497V3.71691H9.31091L7.57092 9.10497H5.50491H5.49893L3.76291 3.71691H3.52094V9.10497H0.544922V0.0324594H3.52094C3.88794 0.0274191 4.24692 0.141329 4.54492 0.356045C4.84392 0.570761 5.06691 0.876208 5.18091 1.22802L6.40393 5.42152H6.66092L7.88593 1.22802C8.00093 0.8752 8.22491 0.568746 8.52591 0.35403C8.82591 0.138306 9.18693 0.0264111 9.55493 0.0324594H12.5309V9.10497H9.55493Z" fill="white"/>
<path fill-rule="evenodd" clip-rule="evenodd" d="M20.5236 9.10474V3.71667H20.2966L18.4156 8.23781C18.2996 8.49587 18.1126 8.71563 17.8766 8.86986C17.6406 9.02308 17.3646 9.10474 17.0836 9.10474H14.5586V0.0322266H17.5586V5.42029H17.7966L19.7016 0.894111L19.7166 0.85984C19.8366 0.612866 20.0236 0.404206 20.2556 0.259046C20.4876 0.112877 20.7556 0.0362566 21.0286 0.0362566H23.5536V9.10877H20.5256L20.5236 9.10474Z" fill="white"/>
<path fill-rule="evenodd" clip-rule="evenodd" d="M32.0924 6.09491H28.5645V9.10496H25.5645V4.05762H35.5174C35.2084 4.69874 34.7184 5.23402 34.1094 5.59591C33.5004 5.95881 32.7984 6.13221 32.0924 6.09491Z" fill="white"/>
<path fill-rule="evenodd" clip-rule="evenodd" d="M35.4648 3.06244H30.0528C27.5808 3.06244 25.5248 1.75197 25.0918 0.0322266H32.1148C34.0048 0.0322266 35.5368 1.15823 35.5368 2.54632C35.5368 2.72072 35.5128 2.8941 35.4648 3.06244Z" fill="url(#paint0_linear_107_1731)"/>
<defs>
<linearGradient id="paint0_linear_107_1731" x1="35.5458" y1="1.54431" x2="25.0768" y2="1.54431" gradientUnits="userSpaceOnUse">
<stop stop-color="white"/>
<stop offset="1" stop-color="white"/>
</linearGradient>
</defs>
</svg>
