<svg width="14" height="14" viewBox="0 0 14 14" fill="none" xmlns="http://www.w3.org/2000/svg">
<path d="M13.5497 10.08C13.5114 10.0497 10.7333 8.0472 9.9708 8.19093C9.6068 8.25533 9.39867 8.5036 8.981 9.0006C8.9138 9.08087 8.75233 9.27313 8.6268 9.40987C8.36285 9.32378 8.10538 9.21898 7.85633 9.09627C6.57091 8.47047 5.53233 7.43189 4.90653 6.14647C4.78374 5.89746 4.67894 5.63998 4.59293 5.376C4.73013 5.25 4.9224 5.08853 5.00453 5.01947C5.4992 4.60413 5.74793 4.396 5.81233 4.03107C5.9444 3.27507 3.94333 0.477867 3.92233 0.452667C3.83154 0.322966 3.71306 0.215069 3.57545 0.136781C3.43784 0.0584937 3.28455 0.0117731 3.12667 0C2.3156 0 0 3.00393 0 3.5098C0 3.5392 0.0424667 6.52773 3.72773 10.2765C7.47273 13.9575 10.4608 14 10.4902 14C10.9965 14 14 11.6844 14 10.8733C13.9884 10.716 13.9419 10.5632 13.864 10.426C13.7862 10.2888 13.6788 10.1706 13.5497 10.08Z" fill="white"/>
</svg>
