<svg width="1788" height="1118" viewBox="0 0 1788 1118" fill="none" xmlns="http://www.w3.org/2000/svg">
<path d="M101.859 155.5C55.1923 193.833 -28.241 303.4 11.359 435C60.859 599.5 214.86 510 158.359 690C101.859 870 199.359 968 389.859 1000C580.359 1032 1424.36 469.5 1599.86 554C1775.36 638.5 1746.86 788 1673.36 844C1599.86 900 1579.86 968 1582.36 1000" stroke="black" stroke-opacity="0.1" stroke-dasharray="15 15"/>
<path d="M286.573 148.036C289.372 142.873 287.447 133.96 287.007 128.491C286.024 116.296 284.36 104.148 282.635 92.0389C280.966 80.3349 279.123 68.6509 277.085 57.0052C276.289 52.4552 276.205 44.3979 271.981 41.337C267.732 38.2592 261.989 38.1058 256.953 37.6442C251.601 37.152 246.298 36.6413 240.926 36.787C229.795 37.0845 218.668 38.0583 207.573 38.9355C187.658 40.5089 167.725 42.1268 147.886 44.4654C140.98 45.2813 132.635 48.5324 130.408 55.7063C130.308 56.0252 130.791 56.151 130.902 55.8428C134.51 45.7797 147.748 45.8134 156.733 45.2951C167.722 44.6617 178.713 43.2984 189.679 42.3537C211.215 40.5012 233.089 37.6657 254.695 39.394C260.311 39.8433 271.133 39.3664 273.073 46.3823C273.722 48.7333 274.084 51.19 274.527 53.5854C276.432 63.9046 278.068 74.2759 279.638 84.6503C281.572 97.4339 283.328 110.251 284.63 123.116C285.257 129.308 288.136 141.221 284.957 147.091C284.381 148.153 285.998 149.097 286.573 148.036Z" fill="black" fill-opacity="0.05"/>
<path d="M135.72 49.084C122.523 56.8406 127.952 78.6844 130.741 90.4849C133.343 101.493 135.063 112.608 136.872 123.766C138.447 133.472 139.749 144.475 144.379 153.265C144.839 154.138 146.167 153.526 145.934 152.609C141.56 135.356 138.672 118.153 135.395 100.665C132.778 86.691 122.19 60.9628 136.366 49.9213C136.854 49.5425 136.23 48.7849 135.72 49.084Z" fill="black" fill-opacity="0.05"/>
<path d="M144.397 151.499C147.631 162.701 165.871 160.824 175.26 160.602C189.796 160.257 204.329 159.436 218.844 158.602C230.22 157.949 241.562 156.976 252.926 156.185C258.672 155.783 264.398 155.276 270.106 154.486C275.142 153.788 282.342 153.207 286.073 149.28C286.828 148.484 285.854 147.14 284.883 147.738C275.929 153.259 263.119 153.064 252.926 153.768C243.35 154.432 233.79 155.293 224.207 155.88C210.672 156.711 197.128 157.417 183.578 157.943C172.4 158.375 152.142 161.355 145.373 151.088C145.047 150.595 144.224 150.897 144.397 151.499Z" fill="black" fill-opacity="0.05"/>
<path d="M146.613 41.6414C142.665 44.1917 138.754 46.7972 134.827 49.3827C133.994 49.9318 134.756 51.2644 135.615 50.7292C139.599 48.2433 143.597 45.7789 147.558 43.2578C148.573 42.6122 147.63 40.9851 146.613 41.6414Z" fill="black" fill-opacity="0.05"/>
<path d="M178.801 31.1681C177.58 31.257 176.367 31.415 175.151 31.553C173.891 31.6972 173.877 33.6923 175.151 33.5466C176.367 33.407 177.58 33.2491 178.801 33.1601C180.075 33.0681 180.083 31.0745 178.801 31.1681Z" fill="black" fill-opacity="0.05"/>
<path d="M235.929 28.2396C218.837 28.8821 201.755 29.7977 184.688 30.9279C183.413 31.0122 183.404 33.0012 184.688 32.9199C201.758 31.8327 218.837 30.8834 235.929 30.2224C237.204 30.1734 237.208 28.192 235.929 28.2396Z" fill="black" fill-opacity="0.05"/>
<path d="M282.122 29.2548C268.874 28.0908 255.481 27.6952 242.187 28.0249C240.911 28.0571 240.908 30.0415 242.187 30.0078C255.48 29.6581 268.872 30.0338 282.122 31.1763C283.358 31.2837 283.346 29.3622 282.122 29.2548Z" fill="black" fill-opacity="0.05"/>
<path d="M279.704 152.676C288.879 149.361 302.016 146.168 303.468 134.827C305.276 120.697 304.092 106.291 302.894 92.1674C302.798 91.0295 301.01 91.0249 301.112 92.1674C302.233 104.534 303.213 117 302.513 129.422C302.256 133.973 302.128 138.434 298.884 141.978C294.222 147.07 285.599 149.491 279.499 152.189C279.223 152.311 279.42 152.779 279.704 152.676Z" fill="black" fill-opacity="0.05"/>
<path d="M180.495 37.2763C179.934 30.7296 178.665 24.4283 179.073 17.8111C179.828 5.56732 196.698 3.97704 206.065 2.98024C213.401 2.19814 220.663 2.24875 227.959 3.37436C239.281 5.11953 239.789 23.6324 241.448 32.6941C241.691 34.0175 243.624 33.4333 243.437 32.1466C242.402 25.0249 240.6 18.0105 239.193 10.9546C238.36 6.78342 234.954 3.95404 231.325 2.15213C223.923 -1.52376 211.466 0.440705 203.679 1.28875C195.734 2.15213 182.537 3.81909 178.822 12.2689C175.344 20.182 178.239 29.2728 179.427 37.4205C179.515 38.0262 180.547 37.8836 180.495 37.2763Z" fill="black" fill-opacity="0.05"/>
<path d="M185.835 36.8927C185.369 32.2891 184.832 27.6808 184.438 23.0694C183.419 11.1462 196.636 11.0741 205.421 9.973C211.931 9.15869 218.804 8.09902 225.307 9.36572C233.588 10.979 234.261 27.0122 235.442 33.5895C235.679 34.9145 237.61 34.3256 237.431 33.0405C236.797 28.5196 235.751 24.1 234.847 19.6297C234.161 16.2375 233.707 11.14 230.159 9.24611C221.988 4.88319 211.801 7.2065 203.053 8.32445C197.013 9.09735 185.964 9.26758 183.51 16.3418C181.308 22.6906 183.65 30.5868 184.57 37.0645C184.671 37.7807 185.907 37.6135 185.835 36.8927Z" fill="black" fill-opacity="0.05"/>
<path d="M179.908 37.7266C180.747 38.3891 181.711 38.5946 182.763 38.4796C183.667 38.3814 185.034 38.0762 185.461 37.1837C185.659 36.7712 185.429 36.2023 184.909 36.2222C184.176 36.2498 183.559 36.7359 182.845 36.9169C181.997 37.1331 181.052 37.0564 180.185 37.0564C179.873 37.0564 179.626 37.5042 179.908 37.7266Z" fill="black" fill-opacity="0.05"/>
<path d="M235.907 33.5891C236.828 34.7193 238.503 35.3342 239.951 35.0797C241.2 34.8588 242.835 34.1411 243.314 32.8806C243.597 32.1307 242.542 31.62 242.027 32.1307C241.361 32.7901 240.702 33.2195 239.796 33.497C238.659 33.8436 237.377 33.1627 236.284 32.9419C235.887 32.8606 235.661 33.287 235.907 33.5891Z" fill="black" fill-opacity="0.05"/>
<path d="M294.198 146.774C297.17 138.973 295.879 130.537 295.566 122.388C295.297 115.433 294.857 108.499 294.287 101.563C293.101 87.1474 291.345 72.7658 289.412 58.4334C288.493 51.6275 288.544 37.6953 280.72 34.8261C269.422 30.6824 254.376 29.9111 242.568 30.8389C241.047 30.9585 241.013 33.3033 242.568 33.2343C254.746 32.6898 267.306 33.8753 279.142 36.8764C286.444 38.7289 286.762 56.1883 287.596 62.1905C289.416 75.2824 290.973 88.4125 292.312 101.563C293.773 115.926 296.38 132.376 293.431 146.563C293.325 147.07 294.017 147.25 294.198 146.774Z" fill="black" fill-opacity="0.05"/>
<path d="M236.179 32.265C219.307 32.4429 202.551 34.1743 185.714 34.9441C184.422 35.0039 184.417 37.0175 185.714 36.9577C202.473 36.174 219.524 35.4195 236.179 33.3416C236.847 33.2588 236.892 32.2574 236.179 32.265Z" fill="black" fill-opacity="0.05"/>
<path d="M179.694 35.9641C169.416 35.7678 156.173 37.2768 146.749 41.4756C145.861 41.8713 146.504 43.2331 147.393 43.0015C153.233 41.4848 158.844 39.9252 164.877 39.2965C169.867 38.7781 175.003 38.2721 179.805 36.7845C180.255 36.645 180.171 35.9733 179.694 35.9641Z" fill="black" fill-opacity="0.05"/>
<path d="M158.198 38.3683C156.108 39.8068 148.833 42.6883 150.498 46.3903C151.967 49.6582 151.943 54.2497 152.472 57.7293C153.286 63.089 154.133 68.4395 154.774 73.8253C154.82 74.224 155.01 74.5721 155.427 74.6841C159.155 75.6916 162.915 74.9095 166.513 73.8115C167.028 73.6535 167.232 73.1904 167.151 72.6874C166.044 65.7727 164.935 58.8579 163.828 51.9417C163.383 49.169 162.938 46.3964 162.495 43.6238C162.678 44.7662 164.91 41.7452 165.731 40.9048C166.622 39.9923 167.47 39.0922 168.105 37.9849C168.422 37.4298 167.784 36.7658 167.223 37.1032C165.32 38.2487 160.252 41.9108 160.661 44.4013C161.632 50.3023 162.601 56.2034 163.572 62.106C164.067 65.1178 164.561 68.1312 165.058 71.1462C165.679 74.9279 159.285 73.6581 156.166 73.037C156.044 73.0125 154.332 58.5758 154.125 57.2723C153.591 53.9046 153.095 50.5308 152.618 47.154C152.039 43.0548 155.824 41.4737 158.667 38.9756C158.997 38.6873 158.56 38.1184 158.198 38.3683Z" fill="black" fill-opacity="0.05"/>
<path d="M246.465 31.8298C244.748 32.9983 241.416 36.2816 239.553 36.7846C239.318 36.8491 239.05 37.0699 239.013 37.326C238.573 40.3563 239.628 43.5153 240.045 46.5364C241.016 53.5554 242.247 60.5269 243.085 67.5628C243.147 68.0918 243.447 68.3939 243.976 68.4553C247.802 68.8985 251.533 67.9968 255.146 66.8481C255.503 66.7347 255.864 66.3758 255.818 65.9664C255.088 59.4902 254.356 53.0126 253.626 46.5364C253.273 43.4126 252.921 40.2872 252.568 37.1634C252.543 36.9426 256.762 33.6486 257.759 32.1702C258.145 31.5967 257.414 31.0201 256.879 31.2884C253.6 32.9339 250.384 35.1453 250.817 38.8442C251.642 45.9031 252.468 52.9619 253.293 60.0208C253.522 61.973 253.749 63.9252 253.977 65.8774C253.97 65.8069 245.593 66.7577 245.069 66.7546C244.238 66.75 244.084 61.6249 243.905 60.3797C242.965 53.8759 241.85 47.3998 240.932 40.893C240.801 39.9667 239.829 38.5942 240.68 38.0943C242.879 36.8076 244.954 34.1102 246.934 32.4386C247.27 32.1549 246.826 31.5829 246.465 31.8298Z" fill="black" fill-opacity="0.05"/>
<path d="M252.025 28.1429C249.569 28.4588 247.334 29.9218 245.298 31.2513C243.142 32.6576 240.216 34.415 238.938 36.7C238.567 37.361 239.28 37.9207 239.894 37.6569C242.237 36.6433 244.183 34.4043 246.284 32.9382C248.256 31.5642 250.608 30.4892 252.271 28.7363C252.458 28.5385 252.346 28.1015 252.025 28.1429Z" fill="black" fill-opacity="0.05"/>
<path d="M251.665 37.7105C253.435 35.7966 257.175 31.0411 259.863 30.7252C261.748 30.5044 263.717 30.6654 265.607 30.7221C268.807 30.8157 272.757 31.5012 275.895 30.7283C276.798 30.5059 276.86 29.026 275.895 28.8466C271.735 28.066 266.958 28.5092 262.756 28.7316C257.097 29.0306 254.576 32.7709 251.053 37.0986C250.707 37.5218 251.28 38.1261 251.665 37.7105Z" fill="black" fill-opacity="0.05"/>
<path d="M275.433 34.5734C279.77 33.1211 283.236 31.333 286.573 28.1755C287.921 26.8996 292.693 20.3406 295.303 23.5166C298.298 27.1633 301.099 30.896 303.595 34.897C305.325 37.6696 306.569 40.7106 307.904 43.6795C308.565 45.049 309.306 46.3724 310.127 47.6529C308.765 48.6114 307.263 49.0408 305.623 48.9427C299.511 49.4625 293.537 50.8994 287.909 53.327C287.021 53.7104 287.659 55.1811 288.565 54.882C296.371 52.3042 304.215 51.9239 312.079 49.9778C312.775 49.806 312.938 49.0638 312.686 48.4857C310.249 42.8591 307.352 37.0516 304.066 31.8636C301.841 28.3518 298.318 22.6302 294.935 20.1735C293.57 19.1828 292.344 20.1965 291.126 21.2132C285.656 25.7801 281.607 30.4083 275.015 33.5812C274.458 33.848 274.852 34.7681 275.433 34.5734Z" fill="black" fill-opacity="0.05"/>
<path d="M299.987 51.671C304.092 55.8054 307.554 60.6069 311.372 65.0143C313.007 66.9021 314.806 68.6135 316.64 70.3019C320.138 73.5193 317.031 76.4146 314.753 79.7485C311.831 84.0286 309.497 88.4713 307.595 93.2835C306.627 95.7326 293.999 84.0348 292.506 82.4215C291.519 81.3526 289.919 82.9552 290.913 84.0148C295.764 89.1921 301.237 93.1317 307.274 96.8122C307.886 97.1849 308.606 96.8107 308.823 96.1819C310.745 90.6167 313.304 85.6787 316.588 80.8205C317.977 78.764 321.957 74.6357 321.162 71.7434C320.429 69.0782 314.772 65.6338 312.829 63.5574C308.791 59.2482 305.014 54.9957 300.564 51.0943C300.173 50.7508 299.613 51.2937 299.987 51.671Z" fill="black" fill-opacity="0.05"/>
<path d="M147.18 41.8047C145.26 40.0825 143.551 38.2315 141.788 36.353C139.905 34.3486 136.019 31.7784 138.975 29.9995C143.777 27.1103 148.246 23.7672 152.858 20.5805C154.594 19.3813 156.26 18.113 157.885 16.7712C160.534 14.5859 159.997 15.5597 162.333 18.4504C167.301 24.6014 171.807 31.0438 177.091 36.9418C178.085 38.049 179.711 36.4128 178.722 35.3117C172.391 28.2605 166.551 20.6342 160.989 12.9634C160.632 12.4712 160.054 12.2611 159.489 12.5708C155.266 14.8911 151.36 19.0086 147.35 21.8426C143.577 24.5094 139.107 26.9309 135.563 29.8784C135.204 30.1759 135.23 30.6988 135.408 31.0745C137.727 35.9542 142.308 39.2605 146.269 42.7156C146.891 43.2585 147.801 42.3614 147.18 41.8047Z" fill="black" fill-opacity="0.05"/>
<path d="M1600.27 989.596C1602.78 1006.78 1607.56 1021.67 1615.75 1037.64C1618.93 1043.84 1626.84 1045.49 1632.69 1048.1C1642.76 1052.61 1652.97 1056.65 1663.33 1060.3C1675.95 1064.76 1688.86 1067.97 1701.83 1070.55C1706.84 1071.55 1713.73 1067.46 1718.1 1065.85C1734.44 1059.83 1748.78 1046.49 1754.64 1030.28C1755.07 1029.11 1753.18 1028.45 1752.56 1029.37C1743 1043.67 1733.46 1056.68 1716.3 1062.93C1697.57 1069.74 1678.47 1062.28 1659.19 1055.47C1642.58 1049.6 1622.04 1044.32 1614.33 1027.57C1608.49 1014.87 1605.6 1002.68 1602.09 989.447C1601.82 988.436 1600.12 988.561 1600.27 989.596Z" fill="black" fill-opacity="0.05"/>
<path d="M1603.58 991.049C1624.72 1004.72 1649.6 1012.3 1673.36 1018.5C1698.41 1025.04 1726.52 1032.19 1751.93 1031.69C1754.05 1031.65 1753.9 1028.44 1751.76 1028.47C1728.14 1028.75 1703.03 1022.22 1679.59 1016.77C1653.29 1010.66 1629.3 1000.56 1604.42 989.557C1603.34 989.078 1602.53 990.368 1603.58 991.049Z" fill="black" fill-opacity="0.05"/>
<path d="M1603.28 992.558C1609.66 993.986 1616.84 996.627 1623.3 996.356C1624.67 996.3 1624.83 994.571 1623.49 994.064C1617.23 991.693 1609.87 991.719 1603.42 990.878C1602.41 990.746 1602.29 992.336 1603.28 992.558Z" fill="black" fill-opacity="0.05"/>
<path d="M1754.63 1025.65C1751.18 1023.75 1747.29 1023.03 1743.55 1022.34C1740.17 1021.71 1736.86 1020.77 1733.47 1020.3C1731.89 1020.08 1731.88 1022.33 1733.27 1022.83C1736.44 1023.97 1739.6 1024.74 1742.88 1025.33C1746.49 1025.98 1750.61 1027.48 1754.22 1027.45C1755.17 1027.44 1755.57 1026.18 1754.63 1025.65Z" fill="black" fill-opacity="0.05"/>
<path d="M1620.65 998.509C1621.04 998.764 1621.43 999.015 1621.82 999.268C1622.55 999.734 1623.71 999.389 1623.8 998.545C1624.69 990.393 1623.68 986.062 1632.23 988.865C1645.67 993.269 1659.55 996.464 1673.19 999.936C1684.66 1002.85 1696.16 1005.61 1707.66 1008.39C1713.59 1009.82 1719.52 1011.26 1725.45 1012.7C1735.54 1015.16 1733.09 1017.75 1731.96 1026.58C1731.7 1028.65 1735.03 1029.67 1735.3 1027.58C1735.88 1023.16 1737.13 1018.31 1736.73 1013.8C1736.68 1013.24 1736.36 1012.61 1735.8 1012.33C1719.6 1004.27 1696.98 1002.58 1679.59 998.283C1661.54 993.829 1643.03 986.61 1624.88 983.56C1624.37 983.473 1623.71 983.849 1623.52 984.282C1622.82 985.888 1620.89 996.812 1621.03 996.809C1620.09 996.813 1619.81 997.972 1620.65 998.509Z" fill="black" fill-opacity="0.05"/>
<path d="M1637.95 1015.75C1637.94 1015.7 1637.94 1015.65 1637.93 1015.6C1637.65 1015.88 1637.37 1016.15 1637.09 1016.42C1637.16 1016.43 1637.24 1016.44 1637.31 1016.44C1636.97 1016.12 1636.64 1015.8 1636.31 1015.48C1636.28 1015.43 1636.24 1015.38 1636.21 1015.33C1636.45 1015.17 1636.68 1015 1636.91 1014.83C1634.17 1015.54 1631.42 1017.51 1632.18 1020.8C1632.98 1024.23 1636.74 1026.37 1640.03 1026.03C1641.54 1025.87 1642.78 1024.75 1643.46 1023.56C1644.31 1022.09 1643.81 1020.19 1643.26 1018.6C1642.67 1016.91 1641.57 1015.51 1639.79 1014.97C1638.23 1014.5 1636.69 1015.26 1635.29 1015.64C1633.94 1016.01 1634.07 1017.79 1635.43 1018.3C1636.15 1018.56 1636.77 1018.65 1637.5 1018.54C1638.31 1018.42 1639.13 1017.95 1639.68 1018.82C1640.72 1020.47 1640.74 1022.75 1638.45 1022.74C1636.51 1022.72 1634.9 1020.61 1635.73 1019.03C1636.4 1017.77 1638.22 1017.45 1638.52 1015.98C1638.68 1015.2 1637.89 1014.41 1637.08 1014.59C1636.89 1014.63 1636.73 1014.7 1636.57 1014.79C1636.32 1014.94 1636.12 1015.21 1636.16 1015.53C1636.17 1015.58 1636.17 1015.62 1636.18 1015.67C1636.32 1016.77 1638.09 1016.86 1637.95 1015.75Z" fill="black" fill-opacity="0.05"/>
<path d="M1660.78 1023.07C1660.78 1023.02 1660.77 1022.97 1660.76 1022.92C1660.49 1023.19 1660.21 1023.47 1659.93 1023.74C1660 1023.75 1660.07 1023.75 1660.14 1023.76C1659.81 1023.44 1659.48 1023.11 1659.14 1022.79L1659.05 1022.65C1659.28 1022.48 1659.51 1022.31 1659.75 1022.14C1657 1022.86 1654.25 1024.83 1655.01 1028.12C1655.81 1031.55 1659.57 1033.69 1662.87 1033.35C1664.37 1033.19 1665.61 1032.07 1666.3 1030.87C1667.15 1029.4 1666.64 1027.51 1666.09 1025.91C1665.51 1024.23 1664.4 1022.83 1662.62 1022.29C1661.06 1021.81 1659.52 1022.58 1658.13 1022.96C1656.77 1023.33 1656.9 1025.11 1658.26 1025.61C1658.98 1025.88 1659.6 1025.96 1660.33 1025.86C1661.15 1025.74 1661.97 1025.27 1662.52 1026.14C1663.56 1027.79 1663.58 1030.07 1661.28 1030.05C1659.35 1030.04 1657.74 1027.93 1658.57 1026.34C1659.23 1025.08 1661.05 1024.76 1661.35 1023.3C1661.51 1022.52 1660.73 1021.73 1659.91 1021.9C1659.72 1021.94 1659.57 1022.01 1659.41 1022.11C1659.16 1022.26 1658.96 1022.53 1659 1022.84C1659 1022.89 1659.01 1022.94 1659.01 1022.99C1659.15 1024.09 1660.92 1024.18 1660.78 1023.07Z" fill="black" fill-opacity="0.05"/>
<path d="M1683.87 1029.09C1683.86 1029.04 1683.86 1029 1683.85 1028.95C1683.57 1029.22 1683.29 1029.5 1683.01 1029.77L1683.23 1029.79C1682.9 1029.46 1682.57 1029.14 1682.23 1028.82C1682.2 1028.77 1682.17 1028.72 1682.13 1028.68C1682.37 1028.51 1682.6 1028.34 1682.83 1028.17C1680.09 1028.89 1677.34 1030.86 1678.1 1034.14C1678.9 1037.58 1682.66 1039.71 1685.95 1039.37C1687.46 1039.22 1688.69 1038.09 1689.38 1036.9C1690.23 1035.43 1689.73 1033.54 1689.18 1031.94C1688.6 1030.26 1687.49 1028.86 1685.71 1028.32C1684.15 1027.84 1682.61 1028.61 1681.21 1028.98C1679.86 1029.36 1679.99 1031.13 1681.35 1031.64C1682.07 1031.91 1682.69 1031.99 1683.42 1031.88C1684.23 1031.77 1685.06 1031.29 1685.61 1032.17C1686.65 1033.81 1686.66 1036.1 1684.37 1036.08C1682.43 1036.07 1680.82 1033.96 1681.66 1032.37C1682.32 1031.11 1684.14 1030.79 1684.44 1029.32C1684.6 1028.54 1683.81 1027.75 1683 1027.93C1682.81 1027.97 1682.66 1028.04 1682.49 1028.14C1682.25 1028.28 1682.05 1028.55 1682.08 1028.87C1682.09 1028.92 1682.1 1028.97 1682.1 1029.01C1682.24 1030.12 1684.01 1030.21 1683.87 1029.09Z" fill="black" fill-opacity="0.05"/>
<path d="M1706.65 1032.46C1706.65 1032.42 1706.64 1032.37 1706.64 1032.32C1706.36 1032.59 1706.08 1032.87 1705.8 1033.14C1705.87 1033.15 1705.94 1033.15 1706.01 1033.16C1705.68 1032.84 1705.35 1032.52 1705.01 1032.19C1704.98 1032.15 1704.95 1032.1 1704.92 1032.05C1705.15 1031.88 1705.38 1031.71 1705.62 1031.55C1702.87 1032.26 1700.12 1034.23 1700.89 1037.52C1701.68 1040.95 1705.44 1043.09 1708.74 1042.75C1710.24 1042.59 1711.48 1041.47 1712.17 1040.27C1713.02 1038.81 1712.51 1036.91 1711.96 1035.31C1711.38 1033.63 1710.27 1032.23 1708.49 1031.69C1706.93 1031.22 1705.39 1031.98 1704 1032.36C1702.64 1032.73 1702.77 1034.51 1704.13 1035.01C1704.85 1035.28 1705.47 1035.37 1706.2 1035.26C1707.02 1035.14 1707.84 1034.67 1708.39 1035.54C1709.43 1037.19 1709.45 1039.47 1707.15 1039.46C1705.22 1039.44 1703.6 1037.33 1704.44 1035.75C1705.1 1034.48 1706.92 1034.16 1707.22 1032.7C1707.38 1031.92 1706.6 1031.13 1705.78 1031.3C1705.59 1031.35 1705.44 1031.42 1705.28 1031.51C1705.03 1031.66 1704.83 1031.93 1704.87 1032.24C1704.87 1032.29 1704.88 1032.34 1704.89 1032.39C1705.02 1033.49 1706.79 1033.58 1706.65 1032.46Z" fill="black" fill-opacity="0.05"/>
<path d="M1612.45 1031.03C1625.21 1043.57 1648.69 1048.35 1665.01 1053.72C1682.85 1059.59 1702.55 1065.63 1720.88 1064.02C1723 1063.84 1721.96 1060.67 1719.86 1060.85C1702.13 1062.41 1683.02 1056.09 1665.7 1050.65C1648.2 1045.15 1629.49 1039.06 1613.41 1029.81C1612.56 1029.32 1611.75 1030.34 1612.45 1031.03Z" fill="black" fill-opacity="0.05"/>
<path d="M1640.73 989.489C1641.39 985.654 1642.06 981.871 1642.96 978.107C1643.84 974.43 1654.2 978.706 1656.07 979.206C1665.22 981.629 1674.37 984.05 1683.53 986.475C1687.96 987.649 1692.39 988.83 1696.83 990.008C1700.38 990.952 1700.02 988.314 1699.32 992.319C1698.65 996.182 1697.97 1000.05 1697.29 1003.91C1696.93 1005.93 1700.2 1006.92 1700.55 1004.89C1701.42 999.958 1702.29 995.031 1703.15 990.1C1703.3 989.265 1702.79 988.304 1701.86 988.057C1682.19 982.817 1662.52 977.58 1642.84 972.403C1641.89 972.155 1641.12 972.62 1640.86 973.463C1639.27 978.637 1638.27 983.538 1638.17 989.055C1638.14 990.475 1640.49 990.862 1640.73 989.489Z" fill="black" fill-opacity="0.05"/>
<path d="M1704.97 1004.53C1706.19 996.607 1707.2 988.621 1708.4 980.689C1709.07 976.241 1709.71 971.782 1710.34 967.326C1710.68 964.971 1707.6 964.624 1711.34 965.684C1715.73 966.935 1720.13 968.172 1724.53 969.409C1726.54 969.973 1728.55 970.536 1730.55 971.101C1734.08 972.09 1731.4 971.858 1731.71 969.774C1730.74 976.435 1729.77 983.095 1728.79 989.754C1727.91 995.788 1726.03 1002.31 1726.62 1008.56C1726.72 1009.67 1728.52 1010.44 1728.99 1009.28C1733.63 997.959 1733.38 982.999 1735.15 970.697C1735.28 969.809 1734.79 968.834 1733.8 968.558C1725.71 966.296 1717.61 964.033 1709.52 961.797C1708.66 961.562 1707.61 961.984 1707.49 962.883C1705.74 976.009 1701.38 990.71 1703.09 1004.21C1703.22 1005.21 1704.8 1005.61 1704.97 1004.53Z" fill="black" fill-opacity="0.05"/>
<path d="M1708.67 968.905C1711.2 971.352 1715.23 972.075 1718.5 973.104C1722.76 974.439 1729.15 977.352 1733.49 976.772C1734.75 976.6 1734.76 974.857 1733.72 974.233C1730.06 972.048 1724.36 971.53 1720.3 970.339C1716.58 969.245 1712.9 967.919 1709.16 967.627C1708.48 967.573 1708.17 968.423 1708.67 968.905Z" fill="black" fill-opacity="0.05"/>
<path d="M1647.34 980.218C1647 981.934 1645.62 985.715 1647.63 987.15C1651.69 990.067 1659.28 990.808 1663.99 992.079C1672.98 994.507 1683.43 998.488 1692.63 999.05C1693.16 999.08 1693.76 998.8 1693.98 998.333C1694.76 996.609 1694.5 994.493 1694.58 992.584C1694.61 991.912 1693.96 991.187 1693.3 991.011C1678.34 987.033 1663.15 984.255 1648.42 979.144C1646.42 978.452 1645.76 981.425 1647.76 982.12C1656.64 985.208 1665.68 987.442 1674.76 989.606C1679.78 990.8 1684.81 991.983 1689.82 993.262C1692.72 994.002 1692.71 996.017 1689.42 995.276C1682.75 993.774 1676.11 992.083 1669.47 990.391C1665.49 989.379 1661.52 988.346 1657.56 987.293C1652.75 986.014 1650.03 985.921 1649.04 980.506C1648.88 979.623 1647.53 979.231 1647.34 980.218Z" fill="black" fill-opacity="0.05"/>
</svg>
