<svg width="99" height="31" viewBox="0 0 99 31" fill="none" xmlns="http://www.w3.org/2000/svg">
<path d="M79.8508 22.8414C79.7197 22.8483 79.6175 22.9282 79.6224 23.0229C79.6272 23.114 79.7373 23.1828 79.8683 23.1759C79.9964 23.1692 80.0976 23.0894 80.0929 22.9983C80.0879 22.9035 79.9788 22.8347 79.8508 22.8414ZM69.0785 25.1166C68.7752 25.1511 68.5149 25.1983 68.5008 25.2214C68.485 25.2445 67.9221 25.3393 67.2449 25.4363C66.5637 25.5335 65.7778 25.6585 65.4883 25.7147C65.1988 25.7708 64.4124 25.8922 63.731 25.9801C63.0545 26.0658 61.2957 26.3071 59.809 26.5247C56.1559 27.046 49.2452 27.7958 44.6768 28.1563C42.6059 28.3152 39.7019 28.5419 38.2136 28.6572C36.7213 28.7745 35.4207 28.8799 35.3068 28.8896C35.1879 28.8996 35.1026 28.9599 35.1066 29.0361C35.1102 29.1049 35.9938 29.1052 37.0769 29.0391C41.9566 28.7405 49.1496 28.1735 51.5639 27.8942C53.018 27.7229 54.9127 27.5025 55.7846 27.4009C56.6526 27.2995 57.605 27.1713 57.8944 27.1133C58.1838 27.0571 59.0519 26.9315 59.8256 26.8407C60.6002 26.7479 61.4688 26.6334 61.7585 26.5809C62.0481 26.5285 62.7894 26.4151 63.3961 26.3367C64.4866 26.1902 65.8505 25.9789 66.9092 25.7986C67.1986 25.7462 67.8791 25.6359 68.4296 25.5512C69.4928 25.38 70.0429 25.0157 69.0785 25.1166ZM82.7223 22.0387C82.7075 22.0544 82.5826 22.102 82.4332 22.1526C82.1074 22.2591 82.1058 22.5518 82.4299 22.5348C82.5553 22.5282 82.6591 22.4445 82.6539 22.346C82.6491 22.2531 82.7123 22.2219 82.7868 22.2795C82.8722 22.3477 82.8928 22.3205 82.8347 22.2024C82.7865 22.1024 82.7319 22.0252 82.7223 22.0387ZM71.1824 24.7678C71.1465 24.8256 70.8307 24.8757 70.4647 24.88C70.0881 24.8866 69.8155 24.9661 69.8208 25.0684C69.827 25.1854 70.1625 25.1902 70.7936 25.0826C71.3203 24.9935 71.8246 24.9167 71.9046 24.907C71.9886 24.8988 72.0499 24.8304 72.046 24.7561C72.037 24.5832 71.2865 24.5965 71.1824 24.7678ZM83.7134 21.862C83.3784 21.9634 83.1124 22.0928 83.1156 22.1541C83.1187 22.2136 83.3967 22.1916 83.7327 22.1032C84.0685 22.0167 84.4362 21.9358 84.5484 21.9244C84.6689 21.9143 84.7519 21.8411 84.7475 21.7574C84.7383 21.5809 84.5964 21.5958 83.7134 21.862ZM78.6908 23.2991C78.6983 23.4422 78.8318 23.4837 79.113 23.4205C79.3354 23.3734 79.5185 23.2744 79.5149 23.2056C79.5112 23.135 79.32 23.0798 79.0952 23.0823C78.837 23.0865 78.6837 23.1635 78.6908 23.2991ZM78.1487 23.2958C77.9256 23.3299 77.7305 23.3718 77.7185 23.391C77.7066 23.4103 77.3818 23.4925 77.0095 23.5735C76.6275 23.6551 75.5863 23.8718 74.6736 24.0594C73.7633 24.2468 72.8591 24.4004 72.645 24.4042C72.35 24.4047 72.2691 24.4742 72.2904 24.7097C72.3059 24.8785 72.3349 24.9366 72.356 24.8423C72.377 24.7481 72.5937 24.6677 72.8429 24.6622C73.2454 24.6559 73.9318 24.5361 75.7276 24.1625C76.1147 24.0826 76.5862 23.9777 76.7785 23.9267C76.9727 23.868 77.4543 23.7589 77.8633 23.6779C78.6219 23.5207 78.8709 23.1872 78.1487 23.2958ZM81.1123 22.5107C81.0859 22.5531 80.8945 22.6209 80.6946 22.6537C80.495 22.6865 80.3006 22.8234 80.2752 22.9552C80.2349 23.1306 80.273 23.1603 80.4201 23.065C80.5305 22.994 80.9108 22.8883 81.2627 22.8289C82.036 22.7045 82.3263 22.3725 81.6306 22.409C81.3711 22.4226 81.1396 22.4683 81.1123 22.5107ZM91.9426 5.97375C91.9472 6.06295 92.0314 6.13309 92.1286 6.128C92.2232 6.12304 92.3017 6.08539 92.2997 6.04819C92.298 6.01475 92.2139 5.9465 92.1166 5.89941C92.0168 5.85432 91.9382 5.89012 91.9426 5.97375ZM92.653 19.53C92.6511 19.4929 92.5703 19.4692 92.4681 19.4745C92.3606 19.4801 92.3189 19.5531 92.3667 19.6475C92.4466 19.8073 92.6627 19.7158 92.653 19.53ZM91.9823 18.8813C91.5242 18.9463 91.3304 19.0441 91.3393 19.2132C91.3514 19.4454 91.9352 19.3478 92.0993 19.0839C92.2313 18.872 92.2169 18.8448 91.9823 18.8813ZM91.1807 20.7253C91.1753 20.623 91.1498 20.5554 91.12 20.557C91.0874 20.5587 91.0433 20.6299 91.0032 20.7346C90.9695 20.8351 90.995 20.9027 91.0663 20.8989C91.1377 20.8952 91.1858 20.8237 91.1807 20.7253ZM90.5433 19.8176C90.5408 19.7712 90.4926 19.7458 90.4212 19.7495C90.3539 19.753 90.31 19.8298 90.3154 19.9321C90.3207 20.0343 90.3702 20.0633 90.4344 20.0004C90.5025 19.9353 90.5457 19.8641 90.5433 19.8176ZM90.3539 20.6661C90.347 20.536 90.123 20.6279 90.0676 20.7836C90.03 20.8843 90.0769 20.9098 90.1771 20.8431C90.2807 20.7817 90.3558 20.7033 90.3539 20.6661ZM89.6101 20.8076C89.4701 20.8149 89.411 20.7286 89.4451 20.5609C89.4747 20.4084 89.4242 20.3086 89.3177 20.3142C89.117 20.3247 89.1231 20.4921 89.337 20.8535C89.454 21.0543 89.5531 21.0845 89.6665 20.963C89.797 20.8257 89.7876 20.7983 89.6101 20.8076ZM88.8112 20.514C88.7099 20.6181 88.7004 20.6838 88.7846 20.6794C88.8649 20.6752 88.9535 20.5997 88.9898 20.499C89.0657 20.2901 89.0242 20.2923 88.8112 20.514ZM86.5754 21.9952C86.4352 22.0175 86.4113 22.056 86.5109 22.1029C86.5962 22.145 86.6969 22.1286 86.7328 22.0726C86.7693 22.0186 86.6931 21.9816 86.5754 21.9952ZM86.0087 22.2131C85.8093 22.2236 85.7488 22.264 85.868 22.3024C85.9871 22.3484 86.1387 22.3404 86.2203 22.284C86.2996 22.2351 86.211 22.2025 86.0087 22.2131ZM85.3014 22.403C85.1592 22.4197 85.1352 22.4582 85.2354 22.5089C85.3181 22.5512 85.4228 22.5363 85.4587 22.4785C85.4908 22.4247 85.4173 22.3876 85.3014 22.403ZM82.1154 23.306C82.1129 23.2595 82.0637 23.2342 81.9924 23.2379C81.925 23.2414 81.8795 23.3183 81.8849 23.4206C81.89 23.519 81.9411 23.548 82.0055 23.4887C82.0736 23.4237 82.1178 23.3524 82.1154 23.306ZM80.1038 24.3487C80.0571 24.2524 80.0056 24.1843 79.9718 24.186C79.9393 24.1877 79.9251 24.2593 79.9303 24.3578C79.9353 24.4544 79.9897 24.5261 80.0623 24.5223C80.1336 24.5186 80.1516 24.4431 80.1038 24.3487ZM78.6255 24.2566C78.6202 24.1544 78.5973 24.0923 78.5634 24.094C78.5326 24.0956 78.4865 24.1614 78.449 24.2658C78.4127 24.3665 78.44 24.4359 78.51 24.4322C78.581 24.4285 78.6307 24.3551 78.6255 24.2566ZM78.2786 24.4108C78.2752 24.3457 78.085 24.3091 77.8625 24.3301C77.6388 24.3512 77.4547 24.4316 77.4586 24.5059C77.4624 24.5784 77.6527 24.6169 77.876 24.5866C78.098 24.5563 78.282 24.4758 78.2786 24.4108ZM77.3498 24.6645C77.3449 24.5715 77.2177 24.5 77.0751 24.5074C76.8651 24.5184 76.8475 24.551 76.9971 24.6773C77.2305 24.8701 77.3602 24.8633 77.3498 24.6645ZM76.408 24.7474C76.3986 24.569 76.165 24.5737 75.8794 24.7546C75.6976 24.8778 75.7288 24.9022 76.0336 24.8918C76.2466 24.8862 76.4119 24.8217 76.408 24.7474ZM75.3671 25.141C75.3622 25.0481 75.1687 24.9502 74.9438 24.9247C74.7176 24.8993 74.5313 24.9426 74.5349 25.0113C74.5388 25.0857 74.6498 25.1414 74.7649 25.1353C74.8857 25.129 75.0828 25.1709 75.1827 25.2159C75.2931 25.266 75.3719 25.2339 75.3671 25.141ZM73.6628 25.2304C73.462 25.2409 73.399 25.2814 73.5182 25.3218C73.6397 25.362 73.79 25.3541 73.8705 25.3033C73.9523 25.2524 73.8638 25.2198 73.6628 25.2304ZM72.7903 25.4438C72.5661 25.4556 72.4705 25.4922 72.5869 25.529C72.7061 25.5693 72.8849 25.56 72.9976 25.5075C73.1095 25.4588 73.0106 25.4323 72.7903 25.4438ZM71.5618 25.6852C71.303 25.7044 71.214 25.7407 71.361 25.7703C71.5029 25.8001 71.723 25.7848 71.8312 25.7419C71.9418 25.6933 71.8209 25.666 71.5618 25.6852ZM70.9496 26.3508C70.9442 26.2486 70.8931 26.1861 70.8217 26.1898C70.7504 26.1936 70.7084 26.261 70.7137 26.3632C70.7191 26.4654 70.7682 26.5337 70.8396 26.5299C70.9109 26.5262 70.955 26.453 70.9496 26.3508ZM70.1169 25.8876C69.8449 25.9019 69.6326 25.9913 69.6375 26.0842C69.6458 26.2421 70.4415 26.1259 70.5493 25.9488C70.579 25.9007 70.3866 25.8735 70.1169 25.8876ZM69.7825 26.4959C69.7023 26.6529 69.6987 26.7555 69.7726 26.7516C69.8413 26.748 69.9262 26.6597 69.9676 26.5551C70.0756 26.2606 69.9261 26.2144 69.7825 26.4959ZM68.1741 26.3323C68.025 26.4389 68.122 26.4487 68.4721 26.3633C68.7649 26.2939 69.0161 26.2062 69.0405 26.1751C69.1349 26.0416 68.3909 26.1775 68.1741 26.3323ZM67.3236 26.3918C67.0401 26.3917 66.944 26.462 66.9545 26.6627C66.9652 26.8671 67.0027 26.8894 67.1062 26.7572C67.1816 26.6601 67.348 26.534 67.4737 26.4827C67.6239 26.4226 67.5702 26.3882 67.3236 26.3918ZM65.7181 26.6772C65.3876 26.6945 65.2712 26.7323 65.4546 26.7599C65.6314 26.7879 65.9011 26.7738 66.0418 26.7292C66.1888 26.6842 66.0445 26.6601 65.7181 26.6772ZM64.2553 26.9383C64.2534 26.9012 64.0317 26.8867 63.7766 26.9001C63.5171 26.9137 63.3285 26.9832 63.3622 27.0559C63.4275 27.183 64.2624 27.074 64.2553 26.9383ZM62.0877 27.2066C61.7572 27.2239 61.6406 27.258 61.8253 27.2855C62.0048 27.3134 62.2705 27.2995 62.4136 27.2547C62.5583 27.2099 62.4181 27.1893 62.0877 27.2066ZM59.9751 27.4664C59.7781 27.4767 59.7153 27.5172 59.8348 27.5632C59.9536 27.6016 60.1052 27.5937 60.1872 27.5447C60.2661 27.4884 60.1772 27.4558 59.9751 27.4664ZM57.9865 27.7532C57.7272 27.7705 57.6343 27.8071 57.7829 27.8366C57.9272 27.8663 58.1473 27.851 58.2553 27.8043C58.3658 27.7557 58.2453 27.7341 57.9865 27.7532ZM57.3397 27.8095C57.3377 27.7723 57.2623 27.7483 57.1548 27.7539C57.047 27.7596 57.0068 27.8306 57.0534 27.9269C57.1329 28.0849 57.3494 27.9953 57.3397 27.8095ZM55.465 28.0437C55.2407 28.0555 55.1494 28.0957 55.2638 28.127C55.3831 28.1691 55.5579 28.16 55.6762 28.1054C55.7844 28.0624 55.688 28.032 55.465 28.0437ZM52.5316 28.3633C52.3076 28.3751 52.2151 28.419 52.3311 28.454C52.45 28.4887 52.6288 28.4793 52.7431 28.4324C52.8514 28.3857 52.7545 28.3516 52.5316 28.3633ZM32.6814 30.0465C32.6766 29.9554 32.621 29.8838 32.5497 29.8876C32.4823 29.8911 32.4627 29.9666 32.5066 30.0557C32.5535 30.1575 32.6062 30.2237 32.6387 30.222C32.6709 30.2203 32.6869 30.1506 32.6814 30.0465ZM31.3831 30.0232C31.3808 29.9805 31.3314 29.9514 31.2641 29.9549C31.1954 29.9585 31.1475 30.0356 31.1529 30.1378C31.1581 30.2381 31.2117 30.2688 31.2774 30.2095C31.3414 30.1409 31.3854 30.0678 31.3831 30.0232ZM13.527 29.1925C13.4277 29.1083 13.3135 29.036 13.2827 29.0376C13.2502 29.0393 13.1467 29.123 13.0542 29.2173C12.931 29.3486 12.9956 29.3881 13.3002 29.3721C13.6071 29.356 13.6632 29.3102 13.527 29.1925ZM12.2824 29.1217C12.084 29.1321 12.0227 29.1745 12.1418 29.2129C12.2594 29.2552 12.4124 29.2472 12.4941 29.1945C12.576 29.1455 12.4831 29.1112 12.2824 29.1217ZM11.516 29.1302C11.5126 29.0651 11.2828 28.9654 11.0107 28.9088C10.1635 28.739 9.67444 28.7012 9.74838 28.798C9.77935 28.843 10.0007 28.9021 10.2517 28.93C10.5001 28.9598 10.7506 29.0306 10.8182 29.0829C11.0057 29.2315 11.523 29.264 11.516 29.1302ZM8.65523 28.3987C8.4655 28.3714 8.32909 28.4028 8.36235 28.4663C8.45271 28.6479 8.89649 28.7364 8.95339 28.5844C8.97964 28.514 8.84363 28.4261 8.65523 28.3987ZM6.79037 27.8555C6.74255 27.7555 6.66506 27.6925 6.59373 27.6962C6.5224 27.7 6.50666 27.7678 6.55448 27.8679C6.60131 27.9679 6.68259 28.027 6.75392 28.0232C6.8226 28.0196 6.8372 27.9555 6.79037 27.8555ZM5.82541 27.6675C5.77851 27.5153 5.68821 27.4045 5.62352 27.4079C5.46792 27.416 5.58537 27.7975 5.76459 27.8719C5.85385 27.912 5.87963 27.8324 5.82541 27.6675ZM5.42364 27.6886C5.40786 27.3875 5.33694 27.3484 5.25007 27.5952C5.21579 27.6901 5.24073 27.7914 5.31527 27.8489C5.38259 27.8957 5.43075 27.8242 5.42364 27.6886ZM0.827898 23.2616C0.822737 23.1631 0.768401 23.0914 0.695744 23.0952C0.624415 23.099 0.606414 23.1745 0.650392 23.2709C0.698545 23.3709 0.752403 23.4333 0.786243 23.4315C0.814775 23.43 0.833254 23.3638 0.827898 23.2616ZM1.72947 20.177C1.73483 20.2793 1.78569 20.3101 1.84983 20.2453C1.91804 20.1821 1.95978 20.109 1.95735 20.0626C1.95492 20.0161 1.90801 19.9906 1.83668 19.9944C1.76933 19.9979 1.72412 20.0748 1.72947 20.177ZM2.55316 17.9164C2.55773 18.0038 2.64313 18.0272 2.73558 17.9758C2.82618 17.9207 2.90389 17.8421 2.90194 17.805C2.90019 17.7715 2.81692 17.7442 2.7237 17.7491C2.62881 17.754 2.54877 17.8328 2.55316 17.9164ZM2.93132 18.245C2.86264 18.2486 2.79507 18.3174 2.75905 18.4236C2.72132 18.5225 2.77003 18.5889 2.87786 18.5833C2.98402 18.5777 3.05573 18.505 3.05066 18.4084C3.04521 18.3043 2.999 18.2415 2.93132 18.245ZM3.62586 17.1894C3.78342 17.0917 3.91775 16.9318 3.91288 16.8389C3.89847 16.5639 3.63111 16.6674 3.40344 17.0333C3.16401 17.4223 3.20172 17.4501 3.62586 17.1894ZM4.45021 17.0493C4.55084 16.9825 4.62477 16.9078 4.62282 16.8706C4.6161 16.7424 4.39359 16.8324 4.33636 16.9844C4.29891 17.0889 4.34584 17.1144 4.45021 17.0493ZM5.01714 16.5295C5.14312 16.4576 5.33663 16.3543 5.44833 16.3019C5.56101 16.2494 5.64789 16.1424 5.64322 16.0532C5.63133 15.8265 5.47894 15.8959 5.1214 16.2911C4.93455 16.4965 4.88817 16.6015 5.01714 16.5295ZM7.06353 15.0396C7.34153 15.1834 7.38853 15.166 7.29384 14.9716C7.25006 14.8789 7.34724 14.721 7.50692 14.6195C7.66794 14.5179 7.79813 14.3992 7.79569 14.3527C7.78615 14.1706 7.48354 14.3002 7.18182 14.6178C6.9269 14.8828 6.90359 14.9585 7.06353 15.0396ZM7.90753 14.2779C7.91231 14.369 7.96065 14.428 8.03331 14.4241C8.10464 14.4204 8.14947 14.3622 8.1448 14.273C8.14091 14.1986 8.25601 14.0398 8.38933 13.9303C8.52692 13.8262 8.59094 13.7334 8.53022 13.7366C8.32785 13.7472 7.89945 14.1237 7.90753 14.2779ZM9.13243 13.4777C9.27583 13.459 9.39484 13.3745 9.39124 13.3058C9.38218 13.1329 9.23868 13.1498 9.0386 13.3503C8.9029 13.4841 8.92359 13.511 9.13243 13.4777ZM13.3957 10.9381C13.401 11.0403 13.4506 11.0712 13.5163 11.0063C13.5842 10.9431 13.63 10.8699 13.6275 10.8234C13.6251 10.777 13.5742 10.7517 13.5032 10.7554C13.4342 10.759 13.3903 10.8359 13.3957 10.9381ZM16.1298 9.55189C16.2165 9.59396 16.3158 9.57754 16.3518 9.52161C16.3882 9.46756 16.3121 9.43053 16.1957 9.44412C16.0542 9.46642 16.0299 9.50495 16.1298 9.55189ZM16.5904 9.35817C16.6768 9.40025 16.7816 9.38732 16.8134 9.32788C16.8496 9.27566 16.7763 9.23666 16.6562 9.25412C16.5179 9.26881 16.4939 9.30732 16.5904 9.35817ZM18.4351 8.58326C18.5183 8.62917 18.6477 8.62239 18.7254 8.56804C18.8072 8.51715 18.7419 8.48331 18.576 8.49201C18.4115 8.50063 18.3487 8.54118 18.4351 8.58326ZM19.5117 8.29204C19.6351 8.24083 19.7389 8.1646 19.7369 8.12744C19.7296 7.98806 19.3926 8.07651 19.3356 8.23229C19.3051 8.31775 19.3831 8.34534 19.5117 8.29204ZM19.9641 7.94781C19.9658 7.98126 20.0512 8.04948 20.1472 8.09659C20.2431 8.14375 20.3256 8.10589 20.3212 8.02226C20.3166 7.93306 20.2284 7.86317 20.1352 7.86805C20.042 7.87294 19.9621 7.91066 19.9641 7.94781ZM20.4254 7.75033C20.4274 7.78749 20.5117 7.85949 20.6075 7.90479C20.7072 7.94613 20.7873 7.91397 20.7826 7.82477C20.7784 7.74305 20.6927 7.67111 20.5955 7.6762C20.5023 7.68109 20.4238 7.71874 20.4254 7.75033ZM22.8883 7.0399C22.9963 7.03796 23.1181 6.95702 23.1497 6.86778C23.2233 6.65894 23.2233 6.65894 22.9165 6.88C22.7347 7.01065 22.7262 7.04467 22.8883 7.0399ZM23.9973 6.59977C24.084 6.64179 24.1857 6.62716 24.2195 6.5732C24.2554 6.51541 24.1821 6.48199 24.0636 6.49942C23.924 6.51417 23.9 6.55269 23.9973 6.59977ZM29.1114 5.14848C29.1981 5.19055 29.3027 5.17571 29.335 5.12374C29.3708 5.06595 29.295 5.02704 29.1773 5.04256C29.0355 5.06488 29.0115 5.10339 29.1114 5.14848ZM29.927 4.93806C30.0137 4.98007 30.1154 4.96544 30.149 4.90777C30.1851 4.8537 30.1116 4.81657 29.993 4.83209C29.8535 4.8487 29.8296 4.88726 29.927 4.93806ZM31.6743 4.50732C31.7609 4.54753 31.8617 4.53475 31.8978 4.48072C31.9337 4.42293 31.8564 4.38973 31.7403 4.40139C31.5983 4.42186 31.5744 4.46037 31.6743 4.50732ZM33.655 4.06812C33.7414 4.10456 33.8464 4.09534 33.8783 4.03776C33.9144 3.98373 33.8412 3.94468 33.721 3.96214C33.5827 3.97688 33.5588 4.01539 33.655 4.06812ZM34.8254 3.83347C34.9094 3.87567 35.0128 3.86091 35.0489 3.80688C35.0809 3.75115 35.0079 3.71772 34.8887 3.72769C34.7495 3.74987 34.7255 3.78838 34.8254 3.83347ZM35.8703 3.61099C35.9544 3.65319 36.0841 3.64639 36.1619 3.5957C36.2438 3.54485 36.1768 3.51111 36.0109 3.5198C35.8464 3.52843 35.7836 3.56897 35.8703 3.61099ZM36.2023 3.99797C36.0606 4.01656 36.0365 4.05326 36.1367 4.10387C36.2208 4.14793 36.3224 4.13144 36.3583 4.07365C36.3922 4.02155 36.3187 3.98442 36.2023 3.99797ZM37.2737 3.41074C37.4866 3.40516 37.6534 3.36847 37.6514 3.33132C37.6435 3.17894 37.3232 3.14353 37.1195 3.27533C36.9374 3.39297 36.9687 3.41928 37.2737 3.41074ZM39.7834 2.8972C39.9642 2.92503 40.23 2.91111 40.373 2.86631C40.5177 2.82147 40.3737 2.80292 40.0459 2.8201C39.7154 2.83742 39.6 2.86956 39.7834 2.8972ZM40.9243 2.84862C41.0533 2.82693 41.1249 2.75239 41.0883 2.67603C40.9929 2.4947 40.8293 2.52192 40.7518 2.73096C40.7214 2.81638 40.7956 2.86839 40.9243 2.84862ZM43.0336 2.42501C43.0451 2.64432 43.3568 2.76584 43.4648 2.59809C43.5228 2.51118 43.6912 2.40547 43.8549 2.35401C44.0212 2.30245 43.9023 2.26771 43.5838 2.26575C43.2786 2.26868 43.0292 2.34137 43.0336 2.42501ZM47.9661 2.02301C47.9714 2.12524 48.0225 2.15424 48.088 2.08932C48.1562 2.02612 48.2004 1.95487 48.1979 1.9084C48.1954 1.86006 48.1463 1.83659 48.075 1.84033C48.0063 1.84393 47.9607 1.92083 47.9661 2.02301ZM53.5815 1.55547C53.7393 1.64036 53.8351 1.78069 53.7972 1.87584C53.7671 1.96872 53.7972 2.04728 53.8685 2.04355C54.0653 2.03324 53.9831 1.5754 53.767 1.47118C53.6563 1.42108 53.5117 1.38582 53.4367 1.39533C53.3607 1.4049 53.423 1.47619 53.5815 1.55547ZM56.0497 1.53788C56.1364 1.57994 56.2674 1.57307 56.3453 1.52239C56.4271 1.47154 56.3601 1.4378 56.1943 1.44649C56.0297 1.45511 55.967 1.49566 56.0497 1.53788ZM56.8764 1.49455C57.0884 1.52075 57.4295 1.50287 57.6412 1.45447C57.8506 1.40624 57.6766 1.38741 57.2556 1.40947C56.8306 1.43175 56.6608 1.46859 56.8764 1.49455ZM58.0832 1.45926C58.0873 1.53733 58.1658 1.5947 58.2591 1.58981C58.3563 1.58472 58.4021 1.52083 58.3659 1.44445C58.3248 1.35902 58.2532 1.30691 58.1859 1.31044C58.1212 1.31383 58.0786 1.37192 58.0832 1.45926ZM59.8854 1.50458C60.0625 1.53256 60.3306 1.51851 60.4726 1.47381C60.6183 1.42892 60.4755 1.40845 60.1437 1.42584C59.8173 1.44294 59.7023 1.47692 59.8854 1.50458ZM61.1319 1.5287C61.1971 1.61286 61.3552 1.65119 61.47 1.60787C61.6295 1.55295 61.5945 1.50817 61.3445 1.44677C61.1297 1.39276 61.0509 1.42485 61.1319 1.5287ZM65.5587 1.64145C65.7976 1.66061 65.9964 1.61289 65.9927 1.54229C65.9886 1.46422 65.7139 1.42834 65.3735 1.4592C64.7358 1.51127 64.8016 1.57862 65.5587 1.64145ZM66.8519 1.64819C67.0315 1.67417 67.3228 1.6589 67.5001 1.61422C67.673 1.5679 67.5248 1.54585 67.1725 1.56432C66.8188 1.58285 66.6751 1.6202 66.8519 1.64819ZM68.3715 1.67851C68.3978 1.71066 68.7656 1.76032 69.188 1.79036C69.6511 1.822 69.8383 1.79354 69.6587 1.71909C69.3574 1.60074 68.2682 1.56838 68.3715 1.67851ZM70.0724 1.85025C70.1408 1.99198 70.61 1.89287 70.6019 1.73864C70.5999 1.70144 70.4639 1.68253 70.298 1.69122C70.1361 1.6997 70.0316 1.76853 70.0724 1.85025ZM71.4663 1.9132C71.5895 1.95893 71.7371 1.9512 71.82 1.89466C71.9018 1.84382 71.8077 1.81145 71.6109 1.82176C71.4099 1.8323 71.3471 1.87289 71.4663 1.9132ZM72.7713 2.01812C72.8901 2.05659 73.0417 2.04865 73.1236 1.99965C73.2025 1.94333 73.114 1.91072 72.9116 1.92132C72.7122 1.93177 72.6518 1.97219 72.7713 2.01812ZM73.7191 2.12682C73.8404 2.16149 74.0155 2.15231 74.1312 2.10522C74.2417 2.05659 74.1468 2.02803 73.9225 2.03979C73.6995 2.05147 73.6067 2.08987 73.7191 2.12682ZM74.9052 2.24169C75.0269 2.28564 75.1758 2.27783 75.2575 2.22322C75.3392 2.17052 75.2467 2.13806 75.0496 2.14839C74.8476 2.15898 74.7845 2.19959 74.9052 2.24169ZM75.8042 2.36601C75.8867 2.40267 75.9916 2.39345 76.0262 2.33573C76.0598 2.27806 75.9865 2.24464 75.8662 2.26025C75.728 2.27684 75.7041 2.31535 75.8042 2.36601ZM76.6062 2.54199C76.6819 2.69644 76.9023 2.61219 76.8925 2.42451C76.8906 2.38736 76.8113 2.35979 76.7034 2.36544C76.6013 2.3708 76.5557 2.44775 76.6062 2.54199ZM78.7789 2.88468C78.8657 2.92855 78.9673 2.91207 79.0009 2.8544C79.0371 2.80218 78.9596 2.76526 78.8446 2.77873C78.7055 2.79718 78.6812 2.83576 78.7789 2.88468ZM82.0007 3.55994C82.0848 3.6021 82.1865 3.58746 82.2242 3.5333C82.2561 3.47572 82.1829 3.4423 82.067 3.45959C81.9247 3.47448 81.9008 3.513 82.0007 3.55994ZM83.3976 3.88363C83.5328 3.95482 83.7462 4.00885 83.8754 3.99836C84.0629 3.97732 84.0486 3.95202 83.8094 3.85646C83.3979 3.6917 83.0912 3.7115 83.3976 3.88363ZM85.3658 4.29104C85.3703 4.37653 85.4557 4.44475 85.5489 4.43987C85.6422 4.43498 85.7248 4.39898 85.723 4.36548C85.7211 4.32833 85.633 4.2603 85.537 4.21314C85.4411 4.16598 85.3612 4.2037 85.3658 4.29104ZM87.167 4.86377C88.0366 5.04178 88.2551 4.91852 87.4283 4.71403C87.1191 4.64265 86.6355 4.5413 86.3775 4.50077C85.6234 4.37633 86.2829 4.68275 87.167 4.86377ZM89.1486 2.20704C89.1372 1.98964 88.7962 1.93295 88.7514 2.144C88.7266 2.26084 88.802 2.34075 88.9304 2.33402C89.0485 2.32783 89.1518 2.26836 89.1486 2.20704ZM98.8476 10.848C98.9516 12.5849 98.7579 13.4801 97.9892 14.8024C96.9462 16.5975 94.7336 19.011 94.3136 18.8095C94.2174 18.7586 94.1599 18.8045 94.1824 18.9095C94.2256 19.1122 93.2899 19.6085 93.1673 19.4528C93.1229 19.3992 93.1129 19.4556 93.1457 19.5881C93.1971 19.8183 92.606 20.194 92.4191 20.051C92.3646 20.0073 92.2188 20.1248 92.0865 20.3237C91.9535 20.517 91.7996 20.6332 91.733 20.5752C91.6707 20.5281 91.5801 20.5832 91.5347 20.7067C91.4889 20.8246 91.2718 20.9478 91.0571 20.9702C90.8475 20.9887 90.5943 21.1156 90.5127 21.241C90.4259 21.3741 90.1874 21.4575 89.9612 21.432C89.7479 21.4059 89.5686 21.4563 89.5732 21.5455C89.5781 21.6385 89.5484 21.6623 89.4996 21.5997C89.4576 21.5423 89.3539 21.5757 89.291 21.6628C89.2179 21.7542 89.0888 21.7722 88.9897 21.6916C88.8447 21.5781 88.8413 21.5131 88.9623 21.2701C89.0883 21.0212 89.0723 21.0071 88.8316 21.1558C88.5235 21.3527 88.4598 21.3747 88.207 21.3879C88.1138 21.3928 88.0369 21.4621 88.0411 21.542C88.0452 21.62 88.1985 21.6455 88.3842 21.5948C88.6983 21.5131 88.9879 21.7588 88.8403 21.9883C88.7108 22.1963 86.9565 22.7411 86.4722 22.7236C86.1165 22.7087 85.9918 22.7618 86.057 22.8888C86.1147 22.9995 86.0749 23.0332 85.9553 22.978C85.846 22.9241 85.7505 22.9627 85.7344 23.0548C85.7181 23.1638 85.5979 23.1794 85.4063 23.0907C85.176 22.9872 85.0712 23.0206 84.9638 23.2312C84.8876 23.388 84.8502 23.4179 84.8809 23.3064C84.9134 23.1835 84.8836 23.0584 84.8127 23.0006C84.7386 22.9449 84.7097 22.8439 84.7433 22.7434C84.7754 22.6578 84.6783 22.5884 84.5383 22.5958C84.2895 22.6088 84.2863 22.6239 84.5009 22.8269C84.639 22.9557 84.6984 23.124 84.6543 23.2475C84.5939 23.409 84.5397 23.4156 84.4007 23.2701C84.2603 23.119 84.2285 23.1337 84.24 23.353C84.2578 23.6931 84.0707 23.716 83.9663 23.386C83.9231 23.2541 83.8327 23.1414 83.7703 23.1447C83.703 23.1482 83.6823 23.2481 83.7218 23.3802C83.772 23.5452 83.7109 23.623 83.5247 23.6383C82.8672 23.6914 82.6201 23.764 82.6853 23.891C82.7918 24.1147 82.5799 24.0829 82.4019 23.8593C82.2899 23.7105 82.2549 23.7086 82.2627 23.8573C82.2689 23.9743 82.1914 24.0138 82.0732 23.9604C81.9517 23.9015 81.9056 23.9375 81.959 24.0409C82.0113 24.1444 81.8854 24.2497 81.6415 24.3054C81.4204 24.3524 81.2631 24.3289 81.2917 24.2529C81.324 24.1711 81.2976 24.1166 81.2289 24.1202C81.1682 24.1233 81.0454 24.0925 80.9494 24.0435C80.8534 23.9963 80.6696 24.1122 80.528 24.3115C80.2657 24.6831 79.9404 24.7989 79.7761 24.5895C79.6366 24.4104 79.3401 24.4017 79.349 24.5727C79.3544 24.6749 79.3147 24.7106 79.2467 24.6582C79.1856 24.6092 79.066 24.6826 78.9785 24.8214C78.8588 25.014 78.7816 25.0329 78.6582 24.881C78.5334 24.7329 78.5165 24.7338 78.5873 24.8921C78.646 25.0214 78.6165 25.1068 78.5103 25.1124C78.4171 25.1172 78.3045 25.0244 78.2592 24.9093C78.1925 24.747 78.1662 24.7484 78.1168 24.9168C78.0844 25.0396 78.0074 25.1387 77.9467 25.1419C77.8793 25.1454 77.8552 25.0852 77.8892 24.9902C77.9632 24.7907 77.6429 24.8485 77.5266 25.0614C77.4789 25.1422 77.5156 25.1496 77.6052 25.0759C77.6945 24.9967 77.7354 25.002 77.6862 25.0847C77.5589 25.3094 77.0964 25.3337 76.9878 25.1213C76.9258 25.0034 76.8952 25.0423 76.9049 25.2282C76.9246 25.6035 76.8306 25.6197 76.5442 25.2843C76.3532 25.067 76.3144 25.069 76.1893 25.2843C76.1092 25.4189 75.947 25.4982 75.8162 25.4529C75.6603 25.4052 75.6128 25.445 75.6754 25.5721C75.7267 25.6812 75.6883 25.7671 75.5861 25.7725C75.4783 25.7781 75.3968 25.7078 75.3917 25.6112C75.3867 25.5164 75.3311 25.4448 75.2597 25.4485C75.1884 25.4523 75.1657 25.5149 75.2026 25.5969C75.239 25.6751 75.1946 25.7426 75.0997 25.7476C75.0002 25.7528 74.923 25.6432 74.915 25.4908C74.9052 25.305 74.8573 25.3355 74.7393 25.6119C74.6292 25.8654 74.4569 25.9993 74.2237 26.0115C74.0226 26.0221 73.8921 25.9637 73.9279 25.8724C73.9585 25.7888 73.8793 25.7631 73.7521 25.8182C73.6247 25.8696 73.5229 25.983 73.5273 26.0667C73.5401 26.312 72.5795 26.1816 72.445 25.9184C72.3546 25.7368 72.3312 25.7343 72.3401 25.9053C72.3465 26.0261 72.3016 26.0843 72.2435 26.0408C72.0807 25.9133 71.7486 26.145 71.8357 26.323C71.9378 26.532 71.5021 26.5269 71.3351 26.3176C71.2513 26.2046 71.1645 26.2371 71.0764 26.415C70.9187 26.7251 70.3843 26.8184 70.3694 26.534C70.3629 26.4095 70.305 26.4219 70.1918 26.5676C69.9952 26.8332 69.4142 26.9847 69.4993 26.7474C69.5337 26.6617 69.4528 26.6026 69.3101 26.6101C69.1572 26.6181 69.0961 26.6902 69.1489 26.803C69.2057 26.9211 69.0893 26.9794 68.7803 26.9621C68.533 26.9527 68.2355 27.0092 68.1268 27.0858C68.02 27.1566 67.7707 27.1603 67.5898 27.086C67.1785 26.9249 66.7376 27.0374 66.7513 27.2976C66.7578 27.4221 66.7112 27.4022 66.6307 27.2573C66.5454 27.0904 66.5058 27.0775 66.5132 27.2169C66.52 27.347 66.3585 27.4393 66.112 27.4522C65.8618 27.4653 65.6929 27.3903 65.6861 27.2602C65.679 27.1246 65.6487 27.1187 65.5978 27.2332C65.5574 27.3322 65.4382 27.413 65.3405 27.4088C65.2455 27.4044 65.0993 27.4717 65.0262 27.5613C64.9404 27.6571 64.8234 27.6595 64.725 27.5659C64.5568 27.4089 64.4341 27.4227 64.1146 27.65C63.9792 27.7447 63.881 27.7313 63.8462 27.612C63.8133 27.4795 63.6198 27.5083 63.2056 27.7108C62.7905 27.9207 62.5972 27.9532 62.5579 27.8248C62.4946 27.6082 62.0162 27.6072 61.8824 27.8285C61.7299 28.0676 61.1004 28.2049 60.925 28.0315C60.8148 27.9162 60.7675 27.928 60.7746 28.0636C60.7813 28.1919 60.5593 28.2463 60.0748 28.2252C59.6867 28.2082 59.3711 28.262 59.3755 28.3456C59.3796 28.4237 59.2714 28.4219 59.1514 28.335C58.9784 28.2081 58.9036 28.2213 58.8744 28.3812C58.8438 28.5412 58.7783 28.5353 58.6024 28.3526C58.4513 28.1928 58.4094 28.1876 58.4775 28.3238C58.5577 28.491 58.4244 28.5502 57.8933 28.578C57.5147 28.5978 56.6616 28.6835 55.9928 28.7708C54.9963 28.8956 54.7928 28.8839 54.8624 28.694C54.93 28.4985 54.9091 28.4996 54.7547 28.7033C54.503 29.0296 51.7576 29.3635 51.742 29.0662C51.7343 28.9194 51.663 28.9231 51.4746 29.0914C51.22 29.319 50.4878 29.4077 45.9079 29.7968C44.0282 29.9606 43.4136 29.9648 43.4059 29.8161C43.3987 29.6805 43.3508 29.6793 43.2534 29.8092C43.0856 30.0286 40.6165 30.1244 40.3684 29.9287C40.2731 29.8499 40.2238 29.8991 40.2326 30.0663C40.244 30.2837 40.2057 30.2969 39.9958 30.1309C39.7857 29.9686 39.7299 29.9715 39.6636 30.1669C39.601 30.336 39.5521 30.3498 39.4798 30.2082C39.4075 30.0667 39.3405 30.0758 39.2066 30.2505C39.0629 30.4351 39.0457 30.4304 39.1174 30.2365C39.1799 30.0656 39.1653 30.0347 39.0687 30.1273C38.9961 30.2019 38.5596 30.303 38.0906 30.3555C37.6233 30.4136 37.3098 30.4114 37.3889 30.3588C37.4684 30.3081 37.5021 30.2094 37.4644 30.1368C37.4283 30.0642 37.1298 30.1264 36.7933 30.2745C36.4162 30.4433 36.1712 30.4785 36.1421 30.3739C36.0737 30.1352 35.4854 30.1902 35.3253 30.4539C35.2194 30.6178 35.1895 30.6194 35.1808 30.4522C35.1744 30.3314 35.1216 30.2876 35.0588 30.3523C34.8338 30.5728 33.4831 30.6679 33.3857 30.4661C33.3161 30.33 33.2878 30.3371 33.2958 30.4894C33.3029 30.6251 33.2491 30.6652 33.1584 30.5917C33.0768 30.5251 32.8609 30.4936 32.6737 30.522C32.4829 30.5507 32.2528 30.4938 32.1578 30.3963C32.0479 30.2865 31.9335 30.2813 31.8453 30.3885C31.7684 30.482 31.4927 30.5467 31.2344 30.5323C30.9713 30.52 30.5111 30.4919 30.2048 30.4745C29.8959 30.4589 29.6703 30.4894 29.6951 30.544C29.7763 30.7037 28.1907 30.7719 28.0393 30.6121C27.9593 30.5269 27.7432 30.5438 27.5111 30.6529C26.9358 30.9308 26.769 30.9209 26.9222 30.6204C27.0228 30.4325 27.0187 30.3544 26.9006 30.2581C26.8153 30.1918 26.7906 30.2155 26.8453 30.3206C26.9398 30.5114 26.6765 30.6929 26.1163 30.821C25.8596 30.8792 25.7237 30.8136 25.6006 30.5723C25.3826 30.1309 25.2245 30.169 25.331 30.6385C25.3815 30.8539 25.389 30.9523 25.353 30.8554C25.3156 30.7642 24.9091 30.7203 24.4492 30.75C23.6742 30.8092 23.6063 30.783 23.4904 30.4313C23.3212 29.8998 23.2078 29.9206 23.3332 30.4526C23.4221 30.8355 23.4005 30.8683 23.0801 30.8292C22.8903 30.8075 22.6701 30.7444 22.6009 30.6866C22.5278 30.6308 22.4456 30.6761 22.4132 30.7989C22.3636 30.9711 22.3378 30.9724 22.2761 30.8173C22.225 30.6802 22.1162 30.6673 21.9339 30.783C21.7827 30.8748 21.6352 30.9105 21.6003 30.8658C21.5657 30.821 21.032 30.808 20.4057 30.8352C19.7833 30.8622 19.2769 30.8422 19.274 30.7864C19.2685 30.6805 19.052 30.6695 17.5553 30.6771C16.8606 30.6818 16.4198 30.4534 16.3972 30.0726C16.3822 29.8628 16.3359 29.8932 16.1753 30.2053C15.9674 30.6243 15.8187 30.6377 14.0041 30.4067C13.6705 30.3627 13.3205 30.3307 13.2101 30.3309C13.102 30.3328 13.0313 30.2713 13.0601 30.199C13.0885 30.1193 13.0597 30.0649 12.9884 30.0686C12.9171 30.0724 12.8689 30.1438 12.8741 30.2423C12.8794 30.3445 12.7289 30.33 12.4884 30.2029C12.2708 30.0876 11.8113 30.0036 11.4677 30.0178C10.6219 30.0473 9.80893 29.9091 9.71448 29.7128C9.67046 29.622 9.60061 29.6033 9.54499 29.6528C9.49288 29.7058 9.29849 29.6657 9.10639 29.5677C8.91173 29.4716 8.52071 29.3804 8.22733 29.3622C7.46752 29.3182 6.60555 28.9627 6.63368 28.7059C6.65098 28.541 6.62094 28.5389 6.50895 28.6808C6.39947 28.8263 6.26909 28.8145 5.99942 28.633C5.80404 28.4978 5.48791 28.3691 5.31274 28.3466C5.13615 28.3223 4.77816 28.1883 4.53694 28.0481C3.45449 27.434 3.30531 27.3617 3.17824 27.3684C3.09795 27.3726 3.05869 27.315 3.09047 27.2295C3.1188 27.1478 2.95441 26.9888 2.72362 26.876C2.49272 26.7614 2.29724 26.5481 2.28974 26.405C2.2802 26.2229 2.25336 26.2056 2.19981 26.3519C2.08794 26.6485 1.14588 25.4568 0.846044 24.6489C0.724806 24.3161 0.564214 23.9053 0.497545 23.7504C0.294083 23.2896 0.315281 22.7798 0.542561 22.7492C0.719376 22.7269 0.714908 22.7179 0.524266 22.6477C0.275646 22.5694 0.288657 22.1197 0.570645 21.0763C0.904291 19.8569 2.23521 17.7281 3.0326 17.1497C3.17048 17.0511 3.29395 16.931 3.32733 16.8696C3.60113 16.3428 8.22279 12.657 8.88299 12.438C8.98892 12.4026 9.22812 12.2503 9.40023 12.1127C9.91944 11.6793 14.6901 9.10371 15.7427 8.68519C15.8463 8.64809 16.3443 8.43194 16.8483 8.20427C17.3574 7.97819 18.0847 7.6736 18.4672 7.53244C18.8537 7.39107 19.6232 7.0992 20.2031 6.87876C24.2962 5.31325 32.4554 3.12288 36.4307 2.52881C36.9682 2.44474 37.4544 2.34474 37.4976 2.29959C37.551 2.2521 37.6136 2.28607 37.6644 2.38592C37.7038 2.47139 37.6739 2.56617 37.5901 2.57987C37.5065 2.59727 37.3099 2.64111 37.1463 2.66833C33.9522 3.26429 28.2738 4.63711 25.0906 5.59214C24.3226 5.81871 23.5651 6.03916 23.4049 6.08109C23.2431 6.12315 22.7554 6.28843 22.3027 6.45565C18.3213 7.92209 17.3767 8.29398 16.1185 8.88541C15.3244 9.25871 14.5254 9.6304 14.3359 9.71484C14.1417 9.79958 13.6321 10.0406 13.1824 10.2654C12.7351 10.4826 12.2503 10.7037 12.0869 10.7607C11.927 10.8138 11.7771 10.9241 11.7488 11.0057C11.7181 11.0856 11.4656 11.2572 11.1776 11.386C10.889 11.5111 10.5564 11.6832 10.4308 11.768C10.3052 11.8547 9.99601 12.0293 9.74304 12.16C9.48996 12.2888 9.22402 12.4704 9.14911 12.5582C9.0735 12.6516 8.9683 12.6757 8.89243 12.6182C8.82197 12.5623 8.74552 12.5887 8.70921 12.6893C8.67483 12.7824 8.48999 12.9691 8.28197 13.1198C4.9655 15.5446 4.1244 16.2092 4.07819 16.4445C4.05466 16.5669 4.47677 16.3118 5.01922 15.8772C6.76331 14.4907 7.58938 13.8884 7.77086 13.8789C7.86409 13.874 7.9746 13.7993 8.00525 13.7175C8.07662 13.5368 9.91509 12.2944 10.1264 12.2833C10.208 12.2791 10.3732 12.2052 10.4713 12.1218C11.163 11.5582 12.2267 10.9527 12.3173 11.0691C12.3483 11.1141 12.4532 11.0583 12.5299 10.9611C12.642 10.8154 12.6818 10.832 12.6925 11.0346C12.7003 11.1851 12.7611 11.303 12.8298 11.2994C12.9011 11.2957 12.919 11.2183 12.8725 11.1239C12.7525 10.8917 13.221 10.5056 14.1738 10.0439C14.6456 9.81601 15.1685 9.55381 15.3223 9.46751C16.3303 8.90784 20.8544 7.13714 23.0108 6.45207C28.1756 4.81924 33.113 3.61577 37.9784 2.79617C39.2319 2.58699 40.5379 2.36947 40.8805 2.30491C41.4302 2.21089 41.7287 2.37227 41.3649 2.57209C41.2829 2.61927 41.3901 2.68444 41.6039 2.71984C41.8162 2.75341 41.9857 2.71844 41.9815 2.63856C41.9776 2.56421 41.8937 2.49967 41.7965 2.50477C41.7033 2.50965 41.6175 2.43401 41.6128 2.34481C41.6081 2.25376 41.9053 2.14874 42.2804 2.1142C42.6556 2.08146 43.1359 2.02275 43.3638 1.98471C43.5905 1.94302 44.8745 1.80121 46.236 1.6646C47.5999 1.52978 48.717 1.39486 48.735 1.37154C48.7935 1.29392 56.598 1.01165 58.0611 1.03744C58.8089 1.04858 60.1834 1.06598 61.1301 1.076C65.6391 1.11918 67.6521 1.16834 67.98 1.22944C68.1444 1.26365 68.9665 1.32681 69.8162 1.37172C74.5768 1.63279 76.9151 1.98542 82.5378 3.27091C84.5107 3.72282 86.3358 4.15634 86.6004 4.24127C86.8659 4.32424 87.1629 4.41114 87.2617 4.43578C87.8562 4.57606 88.0997 4.70866 88.1096 4.89819C88.1159 5.01902 88.2706 5.16371 88.4528 5.21937C88.6312 5.27709 88.712 5.36044 88.6342 5.41112C88.5058 5.48864 86.3458 5.013 85.8643 4.80158C85.7647 4.76024 85.5328 4.70341 85.3575 4.67906C85.177 4.65499 84.8787 4.62029 84.7035 4.59594C84.5253 4.57361 84.2787 4.50267 84.165 4.4397C84.042 4.37163 83.8816 4.3651 83.7834 4.42616C83.6889 4.4833 83.4595 4.32202 83.2477 4.04428C83.0455 3.78468 82.7747 3.57529 82.6559 3.5871C82.4837 3.60356 82.4942 3.63282 82.7121 3.74624C82.8549 3.81704 82.9898 3.9609 82.9946 4.05196C83.0061 4.27122 82.8089 4.30393 82.7087 4.10048C82.6678 4.01876 82.442 3.97473 82.1931 4.00638C81.9476 4.0379 81.6062 3.96635 81.414 3.84781C81.2204 3.72195 80.9438 3.68054 80.7764 3.75453C80.5917 3.82942 80.5088 3.80958 80.5498 3.69747C80.5899 3.59286 80.5406 3.52093 80.4357 3.52642C80.3292 3.53201 80.2484 3.47475 80.244 3.39112C80.2399 3.31305 80.453 3.29072 80.7264 3.34719C81.001 3.40735 81.1691 3.38925 81.1065 3.31238C81.048 3.23717 80.7788 3.13388 80.5076 3.08846C80.0774 3.01785 79.9951 3.05383 79.8958 3.36839C79.8047 3.6415 79.7298 3.69756 79.5723 3.59405C79.4622 3.52525 79.2984 3.50217 79.2215 3.54722C79.1395 3.59436 79.0731 3.54007 79.0673 3.42856C79.0603 3.29478 78.9573 3.26664 78.773 3.34152C78.6241 3.40151 78.4608 3.39141 78.4248 3.31874C78.3867 3.24064 78.2063 3.19419 78.0296 3.21833C77.8449 3.24294 77.5433 3.18795 77.3391 3.08684C77.1338 2.98578 76.8257 2.93301 76.624 2.9566C76.4254 2.98194 76.2302 2.92691 76.1754 2.82731C76.1085 2.71342 76.0803 2.72048 76.0873 2.8543C76.0953 3.00667 76.0266 3.01027 75.8044 2.86355C75.6454 2.75634 75.2648 2.68684 74.9715 2.71338C74.6776 2.73622 74.4283 2.68966 74.4244 2.61535C74.4202 2.53543 74.1813 2.51628 73.8919 2.57433C73.5985 2.63068 73.3382 2.62195 73.306 2.55285C73.2725 2.48562 73.0062 2.46233 72.712 2.50011C72.4216 2.53771 72.1764 2.50023 72.172 2.4166C72.1679 2.33673 72.0826 2.27221 71.9881 2.27717C71.8949 2.28205 71.815 2.3701 71.8203 2.47228C71.8267 2.59312 71.768 2.59057 71.644 2.45362C71.5446 2.34701 71.4216 2.30314 71.3856 2.35907C71.3455 2.41336 71.2094 2.39254 71.0864 2.30582C70.9286 2.19669 70.8639 2.20008 70.8705 2.32643C70.8754 2.41934 70.7657 2.50896 70.6376 2.51567C70.5079 2.52247 70.4224 2.45239 70.4528 2.36698C70.4845 2.27211 70.2508 2.23221 69.9087 2.27433C69.5834 2.31374 69.2857 2.28837 69.2532 2.21551C69.2195 2.14277 68.909 2.14039 68.5576 2.20913C68.1594 2.29149 67.9179 2.27247 67.9119 2.15911C67.9066 2.05692 67.8247 1.98666 67.7212 1.99208C67.615 1.99764 67.5738 2.07995 67.6249 2.18531C67.6834 2.31086 67.6408 2.31867 67.4829 2.20583C67.3605 2.12466 67.0051 2.0911 66.7022 2.13865C66.3865 2.18873 66.1416 2.14942 66.1363 2.04905C66.131 1.94686 65.9915 1.92063 65.8082 1.98987C65.6364 2.05664 65.2335 2.05724 64.9249 1.99514C64.6122 1.93143 64.3587 1.93165 64.3618 1.99111C64.365 2.05243 64.1627 2.10964 63.9049 2.12315C63.6458 2.13673 63.4636 2.08665 63.4921 2.00874C63.5183 1.93843 63.4293 1.87788 63.2999 1.88466C63.1716 1.89139 63.0585 1.9942 63.0597 2.11154C63.0595 2.26062 63.0419 2.26713 62.9944 2.12984C62.9602 2.02359 62.841 1.98323 62.7267 2.03583C62.6 2.09465 62.4828 2.01693 62.4265 1.83728C62.3455 1.58063 62.4116 1.55294 62.9939 1.59884C63.3575 1.62448 63.6713 1.58194 63.6993 1.50038C63.7277 1.42061 63.368 1.37425 62.9118 1.39816C62.2274 1.43403 62.0847 1.4862 62.1465 1.67492C62.2476 1.992 61.8209 2.22865 61.5895 1.98361C61.4628 1.8449 61.3527 1.85067 61.1849 1.99551C61.0606 2.10449 60.9469 2.1198 60.9425 2.03617C60.9377 1.94326 60.2837 1.91228 59.4247 1.96292C58.5905 2.01036 57.8477 1.99896 57.7677 1.93236C57.6824 1.866 57.5454 1.90671 57.4567 2.02317C57.3594 2.15311 57.2955 2.17139 57.2898 2.06359C57.2853 1.97625 57.1554 1.90482 57.0154 1.91216C56.8704 1.91976 56.4215 1.90975 56.0048 1.89428C55.5908 1.87872 55.2421 1.92123 55.2155 1.98598C55.183 2.0827 53.846 2.13417 53.4535 2.05966C53.3902 2.04438 53.0963 2.09332 52.8178 2.15447C52.5352 2.22147 52.2462 2.23661 52.1854 2.18761C52.0262 2.05624 51.1535 2.06844 51.1603 2.1985C51.1699 2.38061 49.2285 2.40221 49.1266 2.22308C49.0661 2.10886 49.0341 2.11425 49.0414 2.25364C49.0475 2.37071 48.998 2.46648 48.929 2.47009C48.8603 2.47369 48.834 2.39121 48.8715 2.28678C48.9153 2.15778 48.8708 2.15262 48.7239 2.27028C48.4843 2.45986 47.5754 2.50377 47.4402 2.33011C47.3942 2.27104 47.2808 2.30865 47.2014 2.40598C47.1249 2.50873 47.0479 2.53142 47.044 2.45706C47.0401 2.38275 46.9871 2.43772 46.9334 2.57468C46.8642 2.74603 46.8262 2.7629 46.8189 2.62356C46.8129 2.5102 46.7236 2.418 46.629 2.42295C46.5358 2.42784 46.4606 2.52866 46.4666 2.64203C46.4739 2.78137 46.4342 2.76856 46.3502 2.60524C46.1878 2.28207 46.2957 2.13665 46.7877 2.02891C47.0086 1.97817 46.7946 1.95771 46.3136 1.98292C45.8315 2.00818 45.5778 2.04943 45.7506 2.07763C46.122 2.14203 46.2223 2.44427 45.8789 2.46226C45.7621 2.46838 45.6338 2.52725 45.5957 2.5926C45.5566 2.6599 45.4235 2.72837 45.3088 2.74368C45.1567 2.76654 45.1027 2.68369 45.1288 2.48292C45.1507 2.32898 45.1044 2.14317 45.0326 2.08731C44.9053 1.98779 44.8601 2.19328 44.9258 2.6277C44.9464 2.77198 44.7245 2.83021 44.1813 2.83072C43.7563 2.82876 43.4115 2.8953 43.4159 2.97893C43.4202 3.06066 43.3346 3.03905 43.2357 2.93619C43.1369 2.83513 43.054 2.81524 43.0582 2.89516C43.0681 3.08469 42.7135 3.09026 42.4803 2.9068C42.3582 2.80515 42.3358 2.82869 42.4129 2.97931C42.4924 3.13724 42.4513 3.17293 42.2613 3.11395C42.1146 3.06946 42.0059 3.10311 42.0103 3.18674C42.0146 3.27037 41.8952 3.34557 41.7528 3.35302C41.5299 3.36471 41.5156 3.33936 41.6563 3.17362C41.7785 3.03116 41.73 3.01882 41.4789 3.14008C41.289 3.23012 40.8444 3.30375 40.4897 3.30926C40.0652 3.31663 39.9095 3.36577 40.0248 3.45852C40.1671 3.57217 40.1453 3.60685 39.9356 3.61784C39.7801 3.626 39.6918 3.5542 39.7244 3.45933C39.8167 3.20854 39.6417 3.24566 39.1663 3.56872C38.6502 3.91628 38.4053 3.9533 38.5926 3.65469C38.7988 3.32337 38.7207 3.00137 38.4384 3.0236C38.2292 3.04391 38.2139 3.07453 38.3743 3.15929C38.7172 3.33509 38.3994 3.84184 37.9721 3.7934C37.7826 3.77165 37.5525 3.84893 37.4611 3.96553C37.3276 4.14025 37.3072 4.12639 37.3595 3.88699C37.4011 3.6836 37.3721 3.62549 37.2524 3.69697C37.1602 3.75209 37.1177 3.85683 37.1538 3.92945C37.1905 4.00766 36.8182 4.139 36.3146 4.23059C35.8191 4.32178 34.8652 4.51712 34.2124 4.66128C33.3853 4.84435 33.0166 4.87488 33.01 4.74853C33.0042 4.63702 32.9718 4.64244 32.9262 4.76223C32.8306 5.00017 30.5268 5.54575 30.3164 5.37789C30.2311 5.31343 30.2036 5.33348 30.2501 5.42797C30.3446 5.61865 29.1758 5.92772 28.8865 5.79009C28.7784 5.73427 28.6967 5.76092 28.7011 5.84455C28.7101 6.01738 26.9078 6.54041 26.0772 6.61189C25.8043 6.63549 25.6075 6.70172 25.6351 6.75989C25.6642 6.81986 25.4145 6.93546 25.0745 7.01849C24.7369 7.10139 24.3604 7.20499 24.2313 7.24901C24.1012 7.29308 23.7906 7.36527 23.5225 7.41099C23.2522 7.4587 22.9965 7.54293 22.941 7.59612C22.7411 7.79856 21.3564 8.27922 21.2014 8.20349C20.9989 8.10414 20.9678 7.71446 21.1603 7.5907C21.2459 7.53589 21.227 7.49962 21.1074 7.49659C20.9839 7.49376 20.9006 7.66952 20.8703 8.00655C20.8401 8.29879 20.7694 8.48696 20.7084 8.43988C20.65 8.39076 20.4488 8.44414 20.2777 8.55562C19.684 8.92586 17.6479 9.69969 17.4782 9.61542C17.3941 9.57322 17.3575 9.61612 17.4009 9.70328C17.445 9.79414 17.3846 9.88675 17.2702 9.90582C16.8254 9.97568 16.3881 10.1384 16.0764 10.341C15.54 10.6952 13.78 11.5291 13.775 11.4344C13.7717 11.3712 13.6625 11.3191 13.5331 11.3259C13.4034 11.3327 13.3028 11.3995 13.3067 11.4738C13.3108 11.5537 13.2361 11.6135 13.13 11.6191C13.0248 11.6246 12.9808 11.6996 13.0248 11.7961C13.1049 11.9595 12.9903 12.0084 12.3354 12.08C12.1118 12.1048 11.9971 12.1946 12.022 12.3275C12.0454 12.4493 12.009 12.4978 11.9411 12.4398C11.7823 12.3121 11.2237 12.565 11.3039 12.7303C11.3358 12.792 11.2237 12.8128 11.0557 12.7806C10.8778 12.7378 10.7186 12.7983 10.6734 12.9255C10.6188 13.0775 10.5715 13.0892 10.5066 12.9678C10.4534 12.8662 10.62 12.6488 10.9019 12.4477C11.6325 11.9342 11.9841 11.6549 11.7277 11.7895C11.6048 11.8518 11.2532 12.01 10.9503 12.134C10.6513 12.2558 10.406 12.4122 10.4097 12.4828C10.4133 12.5516 10.3296 12.6175 10.2094 12.6293C10.0955 12.639 9.88075 12.7565 9.7233 12.9008C9.39075 13.2015 9.48075 13.2303 9.91512 12.9615C10.1454 12.8172 10.2524 12.8265 10.3322 12.9844C10.4988 13.3129 10.4842 13.4535 10.2728 13.4645C10.1796 13.4694 10.122 13.3923 10.1573 13.2973C10.1936 13.1966 10.1445 13.1731 10.0427 13.2381C9.93916 13.2994 9.89275 13.4043 9.92964 13.4862C9.96572 13.5589 9.93742 13.6852 9.8696 13.7559C9.78761 13.8291 9.76789 13.8022 9.81015 13.6882C9.93311 13.3556 9.64705 13.4768 9.40752 13.8639C9.16745 14.2473 8.00142 15.0538 8.10942 14.7593C8.14553 14.6549 8.12634 14.587 8.05368 14.5908C7.98633 14.5943 7.90161 14.7106 7.8512 14.866C7.8007 15.0196 7.69328 15.1538 7.60132 15.1828C7.21756 15.2998 6.91105 15.5265 6.91933 15.6845C6.92391 15.7717 6.86049 15.7993 6.78595 15.7417C6.70723 15.6806 6.58567 15.7671 6.50814 15.9445C6.43254 16.1143 6.28825 16.2113 6.18414 16.1608C6.06395 16.1019 6.00247 16.1666 6.01114 16.3321C6.02068 16.5142 5.95227 16.5737 5.78327 16.5229C5.62863 16.4732 5.54738 16.5352 5.55537 16.6876C5.56238 16.8214 5.4511 16.926 5.28654 16.9346C5.13359 16.9427 4.9877 17.0155 4.96837 17.091C4.91818 17.2949 4.24447 18.0048 4.09152 18.0128C4.01389 18.0169 3.81438 18.2286 3.63829 18.4931C3.46518 18.7575 3.2524 18.9885 3.15219 19.0124C3.05595 19.036 2.83538 19.2898 2.66004 19.5879C2.48043 19.8805 2.30646 20.0778 2.26306 20.0242C2.22123 19.9686 2.19472 20.0595 2.2027 20.2118C2.21059 20.3624 2.15978 20.4526 2.0961 20.4056C2.02421 20.3479 1.9741 20.3822 1.97946 20.4844C1.98433 20.5773 1.92137 20.6645 1.8371 20.6689C1.6815 20.6771 1.59844 20.9013 1.35127 21.9615C1.11834 22.9762 1.08809 23.4399 1.22481 23.8651C1.39901 24.415 1.97129 25.2924 2.17488 25.3302C2.40158 25.3649 2.97047 25.8792 2.97972 26.0557C2.98381 26.1338 3.04947 26.149 3.11768 26.0858C3.1954 26.0072 3.21895 26.0376 3.17333 26.1574C3.13722 26.2618 3.16167 26.3537 3.22637 26.3503C3.2977 26.3466 3.35597 26.4683 3.36474 26.6356C3.3772 26.8735 3.39979 26.8853 3.47047 26.6916C3.58211 26.3969 3.91043 26.4598 5.17773 27.0083C5.69483 27.2328 6.09136 27.4859 6.0609 27.5713C6.03045 27.6568 6.05991 27.7242 6.13091 27.7205C6.19859 27.7169 6.25073 27.6453 6.24635 27.5616C6.24002 27.4408 7.20645 27.6567 7.78444 27.9003C7.93995 27.9666 7.94558 27.998 7.8026 28.1453C7.71371 28.2394 7.69572 28.3149 7.75909 28.3116C7.82146 28.3083 7.94511 28.2366 8.02121 28.1525C8.10371 28.0699 8.46576 28.0844 8.84798 28.1855C9.76032 28.4359 12.6126 28.8528 13.9034 28.9361C15.0376 29.0015 15.4168 29.2481 14.5125 29.3216L13.9501 29.3753L14.6053 29.4807C14.9687 29.5456 15.626 29.6136 16.0848 29.6399C16.5473 29.6678 17.0203 29.7175 17.1533 29.7478C17.285 29.7782 17.419 29.8085 17.452 29.816C17.4847 29.8236 18.3358 29.82 19.3396 29.8103C22.4752 29.7801 23.8244 29.8604 23.8355 30.0722C23.8415 30.1856 23.8832 30.1629 23.9346 30.026C24.003 29.8454 24.2929 29.7985 25.2492 29.8211C26.4922 29.8547 39.7638 29.1778 41.8299 28.9764C42.4402 28.9164 44.6096 28.7337 46.6451 28.5656C48.6767 28.3995 50.6874 28.2084 51.1063 28.1455C51.5214 28.0809 53.2366 27.8754 54.9161 27.6887C56.5998 27.5035 59.5932 27.123 61.5963 26.8317C63.598 26.546 65.7241 26.2464 66.3366 26.1584C67.5328 25.9988 68.3873 25.8609 69.3203 25.6872C69.6458 25.6272 70.2664 25.5146 70.7239 25.4403C71.1813 25.3641 71.7499 25.2561 72.0069 25.196C72.6884 25.0355 73.1988 24.9286 74.1082 24.7542C74.5666 24.6706 75.1348 24.5569 75.3945 24.4967C75.6485 24.4368 76.1633 24.3446 76.5285 24.292C76.8898 24.2414 77.2347 24.158 77.2857 24.1088C77.335 24.0596 77.6043 24.0175 77.8747 24.0164C78.1475 24.017 78.375 23.9716 78.3721 23.9158C78.3693 23.8619 78.5558 23.7963 78.7782 23.7734C79.0007 23.7543 79.1934 23.8131 79.1978 23.8968C79.2024 23.9841 79.0989 24.066 78.9692 24.0728C78.8395 24.0796 78.7356 24.1539 78.7402 24.2431C78.7453 24.3398 78.8896 24.3378 79.0946 24.232C79.3037 24.1335 79.4437 24.1261 79.4483 24.2135C79.4578 24.3956 79.71 24.3693 79.7973 24.1765C79.8291 24.1152 80.1695 23.9912 80.5523 23.9059C81.4516 23.7041 81.6791 23.6326 81.7567 23.5018C81.8466 23.3573 80.2576 23.6586 79.8677 23.8617C79.693 23.951 79.5545 23.9619 79.5506 23.8876C79.5402 23.6888 79.8842 23.4788 80.2934 23.4294C80.4914 23.4097 80.6915 23.3377 80.7557 23.2747C80.8172 23.21 81.0631 23.1599 81.2995 23.1624C81.5338 23.165 81.7109 23.1222 81.6844 23.0677C81.6596 23.0131 81.9797 22.8752 82.3871 22.7644C82.8065 22.6548 83.1404 22.628 83.1448 22.7116C83.1487 22.786 83.2199 22.786 83.2992 22.7129C83.5231 22.4905 83.8199 22.4527 83.9056 22.6289C83.9511 22.7216 83.8928 22.8029 83.7765 22.8183C83.2248 22.8789 82.7127 23.0231 82.4643 23.1908C82.2357 23.3425 82.3107 23.3647 82.8538 23.3101C83.2287 23.2718 83.523 23.1856 83.5191 23.1113C83.5155 23.0425 83.672 22.9766 83.8714 22.9661C84.176 22.9501 84.2204 22.9031 84.1429 22.6165C84.0778 22.3646 84.108 22.2754 84.2663 22.2429C84.8674 22.1332 85.163 22.0412 86.3895 21.5969C87.1333 21.3287 87.9051 21.0553 88.116 20.9921C88.3264 20.9363 88.5326 20.8267 88.5719 20.7595C88.6396 20.6404 88.1174 20.7647 87.2134 21.0729C86.852 21.1981 86.7259 21.1916 86.7513 21.0599C86.7718 20.9563 86.9975 20.7991 87.2404 20.7175C87.4831 20.6395 87.8281 20.5245 87.9851 20.4735C89.1433 20.0829 93.2377 17.9472 93.553 17.5636C93.6143 17.4895 94.0467 17.1129 94.5103 16.7364C95.6526 15.7951 96.8428 14.3762 97.4397 13.2418C98.2701 11.6553 98.3969 10.5586 97.8989 9.28964C97.755 8.92448 97.6322 8.53589 97.6221 8.41902C97.6118 8.29845 97.5553 8.21011 97.4919 8.21343C97.4295 8.2167 97.3374 8.07059 97.2839 7.87027C97.0965 7.19436 95.723 5.6545 94.7849 5.06455C94.2853 4.75533 93.837 4.51049 93.7952 4.5257C93.7518 4.54101 93.6824 4.48129 93.6356 4.38128C93.585 4.28519 93.4459 4.18996 93.3159 4.15952C93.1911 4.13252 92.9607 4.02906 92.8122 3.92502C92.6664 3.82085 92.4389 3.74519 92.3095 3.75197C92.1798 3.75877 92.0035 3.66369 91.9152 3.54719C91.8249 3.43081 91.6398 3.37153 91.4905 3.42224C91.2691 3.48975 91.2341 3.44312 91.2881 3.18503C91.3453 2.91184 91.3289 2.89777 91.1686 3.10743C91.0671 3.23387 90.974 3.2667 90.9693 3.1775C90.9645 3.08645 90.8452 3.01256 90.7028 3.02561C90.2416 3.0535 89.3642 2.84794 89.3177 2.70502C89.2943 2.63174 89.2001 2.61803 89.1083 2.67503C89.0164 2.73198 88.9405 2.6987 88.9355 2.60394C88.9307 2.51103 88.7981 2.46393 88.6337 2.5005C88.3185 2.56171 87.8064 2.18422 87.8916 1.95054C87.922 1.86509 87.8497 1.72167 87.7275 1.6256C87.349 1.34171 88.702 1.54472 90.2819 2.01351C91.6245 2.41269 92.3961 2.7263 93.3829 3.28017C93.771 3.49835 93.9852 3.41633 93.6821 3.16203C93.5803 3.07792 93.1294 2.86117 92.6821 2.67964C92.2373 2.50169 91.8648 2.28833 91.8608 2.21026C91.8561 2.12106 91.816 2.09893 91.758 2.15415C91.7084 2.20331 91.3137 2.11223 90.8921 1.95172C90.4679 1.79315 89.6931 1.56357 89.167 1.44206C87.5132 1.05357 87.591 0.829628 89.2711 1.14782C89.9966 1.28119 91.7551 1.90272 91.9257 2.08574C92.026 2.19043 92.0996 2.22941 92.0964 2.16809C92.0908 2.06215 93.201 2.53877 93.7249 2.86723C93.9266 2.99642 94.4102 3.2916 94.7996 3.5358C95.6999 4.09607 96.6377 5.01028 96.5505 5.25151C96.5104 5.35612 96.5303 5.39233 96.5935 5.32939C96.8307 5.09333 97.8586 6.85628 98.4412 8.50284C98.6899 9.20345 98.7835 9.75199 98.8476 10.848ZM92.2234 5.58079C92.2554 5.52507 92.1868 5.42987 92.0633 5.37671C91.8943 5.2999 91.8826 5.3247 92.0036 5.48236C92.0939 5.59316 92.1875 5.63854 92.2234 5.58079ZM89.8366 5.4189C89.6946 5.43378 89.6707 5.47229 89.7708 5.52295C89.8575 5.56501 89.9567 5.55237 89.9928 5.49271C90.0303 5.44042 89.9528 5.40165 89.8366 5.4189ZM91.975 6.29442C92.2171 6.40658 92.3183 6.52239 92.2261 6.57941C92.148 6.62448 92.0055 6.58539 91.933 6.49044C91.8538 6.38836 91.707 6.31591 91.5889 6.3221C91.4698 6.32835 91.4042 6.23862 91.4285 6.1125C91.496 5.78845 90.1878 5.3483 90.033 5.64526C89.9424 5.82703 89.822 5.83335 89.4155 5.68693C89.1373 5.58411 88.9175 5.40929 88.9276 5.30253C88.9375 5.19396 88.7918 5.06741 88.5876 5.01663C88.386 4.96756 88.2265 4.86788 88.2224 4.78981C88.2185 4.7155 88.2817 4.68424 88.3679 4.71697C88.4502 4.74992 89.2134 4.98011 90.0737 5.22758C91.7866 5.72667 91.9025 5.78022 91.7046 5.9732C91.6181 6.06159 91.7111 6.17225 91.975 6.29442ZM85.5677 21.2393C85.1275 21.3649 84.8584 21.5187 84.8927 21.6268C84.9597 21.8376 84.9986 21.8319 85.9499 21.5118C86.3069 21.385 86.6061 21.2165 86.6018 21.1329C86.5923 20.9526 86.5794 20.9533 85.5677 21.2393ZM88.0778 4.29054C88.0821 4.37418 88.3193 4.48659 88.5924 4.53749C88.8705 4.58812 89.6817 4.81956 90.389 5.04896C91.0966 5.28208 91.7171 5.46756 91.7625 5.46518C92.1373 5.42317 90.4781 4.81136 88.4063 4.23607C88.2256 4.18405 88.0736 4.21062 88.0778 4.29054ZM90.7869 5.86664C90.5445 5.78055 90.3758 5.78567 90.3418 5.88061C90.2872 6.03255 90.5595 6.11707 90.8112 6.03304C90.8659 6.01715 90.9802 6.08381 91.0793 6.19044C91.2057 6.32358 91.2525 6.32113 91.2458 6.19287C91.2403 6.08883 91.223 6.00588 91.2061 6.00676C91.1892 6.00765 91.0011 5.94299 90.7869 5.86664ZM24.4063 29.4795C24.5797 29.6139 25.8413 29.5851 31.2537 29.3387C33.7364 29.2235 34.9937 29.111 34.9879 28.9995C34.9819 28.8843 33.1914 28.9167 29.6141 29.0948C26.6573 29.2404 24.3183 29.4133 24.4063 29.4795ZM69.3876 1.05878C69.4589 1.05504 69.5009 0.985774 69.4955 0.88354C69.4901 0.781355 69.4414 0.720563 69.37 0.724301C69.2987 0.728039 69.2569 0.793578 69.2623 0.895763C69.2676 0.997998 69.3162 1.06252 69.3876 1.05878ZM70.9162 0.963737C70.9119 0.880104 70.6683 0.822076 70.3727 0.837568C70.0787 0.852973 69.8724 0.934578 69.9116 1.01639C70.0063 1.21082 70.9267 1.16259 70.9162 0.963737ZM51.5917 0.951643C54.7345 0.792517 56.1458 0.768877 59.7581 0.80873C60.6097 0.814426 61.9004 0.825068 62.6504 0.828597C65.3188 0.834104 68.0162 0.923811 68.6298 1.02766C68.8448 1.06857 69.041 1.01546 69.0787 0.916546C69.1212 0.806272 68.9677 0.734178 68.6992 0.740806C68.4525 0.742574 68.1164 0.728466 67.9522 0.699813C67.5096 0.633567 63.5541 0.539 61.3984 0.540158C60.359 0.544353 59.2171 0.527778 58.8586 0.505587C57.2719 0.407993 48.2562 0.785418 48.2648 0.948972C48.2706 1.06048 49.4269 1.05951 51.5917 0.951643ZM71.3934 1.27041C71.7051 1.187 76.1318 1.67241 77.3377 1.91857C77.5006 1.95473 78.2205 2.09961 78.9452 2.24238C81.8911 2.83335 82.275 2.91575 82.491 2.99945C82.6107 3.04908 82.7037 3.0144 82.6993 2.93076C82.6831 2.62045 76.6496 1.43286 73.403 1.1036C71.4695 0.912419 70.9879 0.922724 71.1104 1.15296C71.1539 1.24012 71.2871 1.29835 71.3934 1.27041ZM39.8642 2.2091C40.3305 2.12503 41.2389 1.9824 41.8845 1.89829C42.5312 1.81407 43.2388 1.7062 43.4651 1.65703C43.6857 1.60821 44.274 1.54571 44.7531 1.51502C46.2127 1.42359 48.1569 1.12607 48.1496 0.986679C48.1457 0.912372 47.9487 0.87237 47.6995 0.904034C47.4618 0.925842 46.8631 0.985175 46.382 1.02899C45.897 1.07306 44.6347 1.2361 43.5666 1.39087C42.504 1.54344 41.0449 1.74661 40.3192 1.84055C39.5316 1.93774 39.0025 2.081 39.0078 2.18319C39.014 2.30026 39.317 2.30675 39.8642 2.2091ZM22.9128 29.3006C21.7955 29.1822 18.2297 29.2815 18.3024 29.4305C18.3504 29.5267 18.4732 29.5911 18.5897 29.5794C18.7032 29.5679 19.6933 29.5644 20.8008 29.5697C21.9096 29.5768 23.112 29.5846 23.4862 29.5837C23.8618 29.5826 24.1616 29.5203 24.1577 29.446C24.1538 29.3716 23.9559 29.3168 23.7092 29.3242C23.4591 29.3335 23.1117 29.3237 22.9128 29.3006ZM82.9411 3.03176C83.0424 3.10469 83.4694 3.24074 83.8991 3.33375C84.3289 3.42863 84.7536 3.52185 84.8564 3.54628C84.9549 3.56721 85.4643 3.69517 85.9912 3.82598C86.5153 3.95688 86.9864 4.0962 87.038 4.13448C87.0948 4.1781 87.1293 4.14457 87.1242 4.0461C87.1195 3.9569 86.9645 3.84949 86.7857 3.80858C86.6051 3.76585 85.7035 3.54292 84.7812 3.30613C83.0126 2.85844 82.6196 2.80075 82.9411 3.03176ZM87.511 4.23453C87.8812 4.35489 87.9827 4.3365 87.8995 4.16384C87.8084 3.98786 87.2319 3.86715 87.2405 4.0307C87.2439 4.09573 87.364 4.18632 87.511 4.23453ZM93.1735 5.90366C93.0845 5.72385 92.6313 5.60225 92.6396 5.76019C92.6435 5.83455 92.7846 5.92404 92.9385 5.95886C93.0934 5.988 93.2052 5.96348 93.1735 5.90366ZM38.6624 2.33362C38.9087 2.20331 38.878 2.18255 38.4532 2.18988C38.1847 2.19465 37.9315 2.27685 37.8977 2.3737C37.8236 2.57321 38.2473 2.55101 38.6624 2.33362ZM16.0545 29.265C16.0275 29.341 16.0983 29.4025 16.2152 29.4057C16.3285 29.409 16.779 29.4227 17.1917 29.4384C17.6043 29.454 17.9074 29.4102 17.8531 29.3385C17.7125 29.1633 16.117 29.094 16.0545 29.265ZM92.5991 6.25614C92.6397 6.33229 92.8338 6.44323 93.0251 6.4947C93.2646 6.55666 93.3626 6.66334 93.3246 6.83306C93.2968 6.96865 93.3326 7.08046 93.4026 7.07679C93.4736 7.07307 93.5278 6.99008 93.5229 6.89717C93.5181 6.80426 93.5659 6.7272 93.6372 6.72346C93.7099 6.71965 93.7379 6.78344 93.705 6.87275C93.6753 6.9544 93.7375 7.11886 93.8362 7.21987C93.9501 7.33502 94.0182 7.34639 94.0128 7.2442C94.008 7.15125 93.9374 7.04317 93.8547 7.0009C93.7599 6.95555 93.7785 6.91173 93.8931 6.89642C94.0005 6.88145 94.1226 6.98314 94.1664 7.12062C94.2163 7.28009 94.3136 7.32718 94.438 7.24983C94.5654 7.17422 94.6083 7.19807 94.5605 7.32727C94.5153 7.45638 94.5518 7.48614 94.6652 7.41495C94.801 7.32773 94.8296 7.37837 94.789 7.61902C94.7453 7.87662 94.7587 7.88521 94.8502 7.67544C94.9118 7.53807 94.9652 7.36197 94.9618 7.29694C94.9589 7.19085 92.8088 6.08677 92.621 6.1022C92.5652 6.10512 92.5554 6.16526 92.5991 6.25614ZM15.24 29.2705C15.2839 29.365 15.4501 29.4328 15.616 29.4241C15.7806 29.4154 15.8738 29.3341 15.8299 29.2395C15.7859 29.1487 15.6201 29.0828 15.4555 29.0914C15.2897 29.1001 15.1963 29.1796 15.24 29.2705ZM93.9216 6.37316C94.0188 6.36806 94.312 6.50177 94.5808 6.67401C94.8498 6.85 95.0595 6.9527 95.057 6.90622C95.0514 6.79842 94.2347 6.27288 93.8506 6.12906C93.6581 6.05529 93.5904 6.07749 93.6528 6.20092C93.7033 6.29515 93.8271 6.37811 93.9216 6.37316ZM76.3711 25.4089C76.4915 25.3952 76.5648 25.4286 76.5311 25.4844C76.4965 25.5421 76.392 25.5532 76.3089 25.5109C76.2091 25.4658 76.2334 25.4273 76.3711 25.4089Z" fill="white"/>
</svg>
