<svg width="107" height="103" viewBox="0 0 107 103" fill="none" xmlns="http://www.w3.org/2000/svg">
<path d="M89.4723 34.2618C89.1472 34.4273 89.0063 34.3764 89.113 34.1444C89.2225 33.8992 89.4325 33.7184 89.6397 33.6933C90.1669 33.6296 90.089 33.9217 89.4723 34.2618ZM57.7993 86.7333C57.7877 86.6375 57.926 86.4525 58.1385 86.2919C58.3305 86.1414 58.505 86.1926 58.5326 86.4212C58.5592 86.6414 58.4145 86.8359 58.2072 86.8609C57.9787 86.8885 57.8114 86.8332 57.7993 86.7333ZM92.261 42.7633C92.0287 42.6522 91.8357 42.3853 91.8041 42.1236C91.7704 41.845 91.922 41.8774 92.1795 42.1959C92.7356 42.8538 92.7522 42.991 92.261 42.7633ZM94.4549 41.9208C94.481 42.1367 94.3413 42.31 94.1256 42.3361C93.8981 42.3636 93.7254 42.228 93.6993 42.0121C93.6711 41.7792 93.8067 41.6075 94.0342 41.58C94.2499 41.5539 94.4268 41.6879 94.4549 41.9208ZM91.0164 40.0683C90.7241 39.8802 90.3825 39.8374 90.262 39.9911C90.1527 40.1306 90.0183 40.0627 89.9906 39.834C89.963 39.6054 90.0123 39.389 90.091 39.3795C90.1739 39.3694 90.4593 39.2508 90.7453 39.1104C91.0634 38.9587 91.3111 39.1607 91.4124 39.6416C91.5266 40.2386 91.4335 40.3426 91.0164 40.0683ZM91.6231 37.4871C91.587 37.1883 91.1952 36.8019 90.7478 36.624C90.3088 36.445 89.9345 36.132 89.9093 35.9236C89.8416 35.3631 91.4623 36.2635 91.7692 36.9558C91.9517 37.3503 92.2737 37.4721 92.6732 37.289C93.1713 37.0561 93.1966 37.0865 92.7722 37.4831C92.4959 37.7399 92.1258 37.9875 91.9727 38.006C91.8144 38.0252 91.6593 37.786 91.6231 37.4871ZM89.5335 37.3815C89.7171 36.7065 89.9857 36.5553 90.05 37.0871C90.0752 37.2955 89.9454 37.5421 89.733 37.7027C89.5338 37.866 89.4545 37.7364 89.5335 37.3815ZM88.7794 34.8721C88.3838 34.5617 88.9176 33.4731 89.6092 33.1996C89.9834 33.0486 90.2285 33.0956 90.1369 33.275C90.0481 33.4497 90.3512 33.7627 90.7944 33.9411C91.2361 34.1068 91.6231 34.347 91.6357 34.4513C91.6468 34.5427 91.3342 34.5082 90.9833 34.3532C90.5496 34.1822 90.0427 34.2435 89.6238 34.5337C89.2738 34.7789 88.8718 34.9408 88.7794 34.8721ZM87.8199 34.4906C87.5833 34.38 87.3912 34.1205 87.3586 33.8504C87.3261 33.5813 87.4818 33.6121 87.7383 33.9232C88.2892 34.5817 88.3067 34.7264 87.8199 34.4906ZM88.0723 30.2366C87.4557 29.9529 87.5448 29.3605 88.174 29.5165C88.4919 29.6043 88.6889 29.833 88.5946 30.0343C88.4944 30.2493 88.2813 30.3333 88.0723 30.2366ZM84.9896 30.0698C84.962 29.8411 85.1077 29.6551 85.3235 29.6291C85.5392 29.603 85.705 29.6455 85.7176 29.7497C85.7302 29.854 85.5904 30.0263 85.3912 30.1895C85.1905 30.3401 85.0162 30.2899 84.9896 30.0698ZM86.1536 28.8964C85.4752 28.7259 85.7002 28.0448 86.4559 27.9534C86.7514 27.9177 86.926 28.1491 86.8469 28.4673C86.7715 28.7796 86.453 28.9735 86.1536 28.8964ZM84.5787 27.3041C84.2521 27.2163 84.3261 27.1232 84.7801 27.0521C85.1511 26.9814 85.3912 27.0494 85.2878 27.1752C85.1834 27.3195 84.8526 27.3757 84.5787 27.3041ZM81.9404 25.4433C81.7942 25.242 81.8452 25.075 82.0737 25.0474C82.2895 25.0213 82.4872 25.1582 82.5133 25.3741C82.5409 25.6027 82.4884 25.7569 82.38 25.77C82.2886 25.7811 82.1052 25.6554 81.9404 25.4433ZM103.103 101.961C103 102.218 103.228 102.465 103.612 102.511C104.546 102.638 106.004 101.842 105.667 101.398C105.497 101.2 105.626 101.116 105.983 101.212C106.426 101.327 106.523 101.084 106.402 100.222C106.299 99.5856 106.082 99.177 105.92 99.3023C105.754 99.427 105.691 99.2545 105.787 98.8965C105.925 98.3661 105.509 98.2427 104.466 98.5296C104.335 98.5659 104.142 98.463 103.984 98.2717C103.517 97.7174 99.8809 96.7315 99.4767 97.0544C99.2658 97.2191 99.1966 97.1724 99.3091 96.9527C99.4041 96.7308 98.9354 96.4033 98.2299 96.2145C97.5415 96.0237 96.0858 95.5511 95.037 95.1718C94.0006 94.7867 92.2692 94.2288 91.2554 93.9597C90.2325 93.6873 87.4679 92.9047 85.0476 92.2229C82.6343 91.537 79.5553 90.6952 78.1315 90.3451C76.7061 89.9897 75.2086 89.5816 74.7704 89.4446C74.0695 89.2218 70.2346 88.3366 68.7121 88.0437C67.966 87.9019 68.3083 87.5573 69.5703 87.1943C78.9505 84.4795 85.2058 80.3296 90.833 73.1166C93.3433 69.9039 95.7282 65.4137 95.3578 64.6157C95.2651 64.4111 95.3347 64.1837 95.5179 64.0223C97.1921 62.6448 98.3211 50.7982 96.9164 49.4638C96.6267 49.1902 96.5356 48.9271 96.7109 48.9059C97.1382 48.8543 97.0062 47.762 96.505 47.1396C96.3193 46.8879 96.3068 46.6153 96.4788 46.4683C96.6396 46.3356 96.5782 45.6135 96.3117 44.8451C96.0642 44.0819 95.5322 42.4736 95.1328 41.2572C94.7409 40.0399 94.2349 38.8785 94.0202 38.6725C93.8055 38.4664 93.7162 38.1826 93.8271 38.0559C94.0868 37.7245 93.4351 36.4458 91.2028 32.8591C90.3137 31.4278 89.5954 30.1874 89.5804 30.0629C89.5654 29.9385 88.6993 28.8757 87.6721 27.6931C86.633 26.5195 85.562 25.2246 85.2933 24.8481C85.0274 24.4594 84.4675 24.1181 84.0513 24.0918C83.632 24.067 83.1272 23.896 82.8795 23.6939C82.5986 23.4667 82.6351 23.4203 83.0036 23.5786C83.38 23.7306 83.4776 23.5925 83.3057 23.1158C83.1851 22.743 82.8937 22.4912 82.666 22.5608C82.4425 22.6299 82.0994 22.1912 81.9022 21.6043C81.6832 20.9434 81.1524 20.3882 80.5521 20.1942C79.9921 20.0224 79.5349 19.728 79.5123 19.5408C79.4881 19.3409 79.6929 19.287 79.972 19.4011C80.2467 19.5146 79.9993 19.2079 79.4498 18.7391C78.903 18.2656 78.2731 17.9965 78.0798 18.1461C77.8685 18.3065 77.7866 18.1557 77.8791 17.77C77.9813 17.3314 77.8537 17.1408 77.4923 17.1845C77.1894 17.2211 76.962 17.0878 76.9893 16.8946C77.0609 16.4435 72.4064 12.9175 69.3991 11.1445C67.0042 9.7356 62.5138 7.50416 62.1481 7.54835C62.0578 7.55928 61.5833 7.30047 61.1676 6.99248C59.9435 6.09915 52.9142 3.53472 48.5318 2.36606C40.1948 0.17014 33.1934 -0.425088 24.6103 0.347075C15.6425 1.15711 9.50511 2.99972 3.32175 6.72764C0.965108 8.14232 0.370895 8.9803 0.947309 10.0911C1.4558 11.0505 2.25829 10.9362 5.2075 9.43691C14.4645 4.75688 26.473 3.10661 38.6184 4.86263C44.6929 5.73825 51.5806 7.65831 56.8208 9.95451C60.0531 11.368 63.344 12.9804 64.6662 13.8112C65.4508 14.3066 66.2822 14.6992 66.4767 14.6757C66.6765 14.6516 67.2691 15.0223 67.8241 15.5369C68.382 16.0392 68.7859 16.2849 68.7622 16.0892C68.7407 15.9116 68.9318 15.9932 69.1762 16.2669C69.5543 16.7186 69.6627 16.7055 69.9648 16.1715C70.2599 15.6514 70.2832 15.6744 70.17 16.3075C70.0695 16.8678 70.7478 17.5995 72.9894 19.3097C74.625 20.5741 75.9524 21.7333 75.9745 21.9162C75.997 22.1024 76.4061 22.3108 76.8751 22.3545C77.3335 22.4178 77.6215 22.6063 77.493 22.7653C77.1554 23.2108 78.2764 23.8846 78.8557 23.5826C79.3187 23.3367 79.3391 23.3979 78.9344 24.0996C78.6732 24.5531 78.6053 24.7588 78.7622 24.5845C78.9216 24.4044 79.3326 24.5662 79.6686 24.9464C80.292 25.6426 81.3088 25.865 80.7739 25.2045C80.6135 24.993 80.6443 24.8285 80.8728 24.8009C81.3628 24.7416 81.4699 25.3869 81.0188 25.7317C80.8154 25.8955 80.7176 26.2019 80.7706 26.4621C80.8404 26.7989 80.8947 26.7924 80.9906 26.4355C81.1856 25.7116 81.7066 25.7748 81.7885 26.5235C81.9367 27.8123 82.0773 28.1461 82.3976 27.8959C82.5685 27.7489 82.7181 27.9337 82.7287 28.3069C82.7467 28.6964 82.962 28.979 83.2354 28.9751C83.4961 28.9727 83.9167 28.9639 84.1897 28.9568C84.5248 28.9454 84.5246 29.0512 84.1732 29.3462C83.7716 29.6818 83.8002 29.9179 84.3287 30.8111C84.6984 31.4247 85.1625 31.7851 85.4139 31.6619C85.6703 31.5262 85.9604 31.5883 86.1345 31.8068C86.3062 32.0051 86.2651 32.1913 86.0579 32.2164C85.8496 32.2416 85.7959 32.493 85.9489 32.7777C86.0966 33.0631 86.4884 33.1636 86.8182 33.0018C87.2823 32.7644 87.2695 32.8371 86.7637 33.3537C86.113 34.001 86.113 34.001 86.9178 34.6288C87.3387 34.9707 87.7082 35.5919 87.6867 35.9398C87.6703 36.3216 87.9114 36.6841 88.2714 36.7626C88.6196 36.8597 88.8071 37.0819 88.7137 37.2907C88.4611 37.8144 90.2472 41.6795 90.6001 41.3962C91.0431 41.047 91.0593 41.7076 90.6339 42.2651C90.4041 42.5583 90.4715 43.0088 90.8521 43.7224C91.4013 44.7772 92.6343 52.363 92.325 52.7662C92.235 52.8957 92.2006 53.4135 92.2566 53.9841C92.3165 54.5509 92.1917 55.8469 91.9669 56.9488C91.7497 58.0423 91.5286 59.4599 91.4785 60.1609C91.4243 60.8634 91.2611 61.4313 91.1208 61.4483C90.9752 61.4659 90.5028 62.3658 90.0707 63.4928C89.1054 65.9618 88.6256 66.7655 86.5256 69.4645C83.6946 73.1282 79.353 76.409 74.2474 78.7765C72.83 79.4237 71.3106 80.1642 70.8194 80.4545C70.0259 80.9011 68.6219 81.1334 68.2669 80.8731C68.1655 80.8012 69.5527 76.532 70.197 74.9574C70.7232 73.6636 72.1211 66.308 72.3303 63.6854C72.443 62.2808 72.3679 59.3311 72.1711 57.1417C71.8523 53.7369 71.6436 52.8848 70.7405 51.3376C69.8767 49.8742 69.4459 49.5129 68.4744 49.4243C66.8683 49.2688 65.9754 50.5983 66.5664 52.2846C67.3682 54.5196 67.5229 58.4126 66.9888 62.5312C66.439 66.805 64.61 73.9052 63.2608 76.9894C62.8383 77.9544 62.6227 78.9635 62.7984 79.266C62.9468 79.5567 62.9179 79.7285 62.7252 79.6331C62.369 79.4787 60.0857 83.4171 60.1626 84.0531C60.2403 84.6965 58.9607 86.0199 58.3956 85.8767C58.0367 85.7981 57.6711 85.9136 57.5643 86.1455C57.4549 86.3907 57.2077 86.5048 56.9854 86.4054C56.7721 86.3179 56.6248 86.4911 56.6614 86.7942C56.6982 87.0984 56.9578 87.3993 57.2281 87.4767C57.4974 87.5456 57.3473 87.6598 56.8886 87.7368C55.9919 87.8744 55.5153 88.5352 56.1064 88.822C56.3287 88.9213 56.4441 89.2872 56.3692 89.6038C56.1065 90.6424 57.5821 91.7966 59.9064 92.38C61.1657 92.6993 62.7424 93.1281 63.4264 93.3454C64.0998 93.5543 64.9863 93.7428 65.3881 93.7568C65.7746 93.778 66.3218 93.8802 66.5435 93.9753C66.7759 94.0864 67.9312 94.4108 69.1154 94.6885C70.2943 94.9678 75.1511 96.117 79.9145 97.2612C91.2281 99.9691 92.716 100.253 92.6557 99.7544C92.6307 99.547 92.8519 99.6379 93.1772 99.9914C93.4992 100.327 93.9885 100.61 94.307 100.631C94.6131 100.656 95.6609 100.921 96.6554 101.236C98.9205 101.927 100.573 102.182 101.437 101.939C101.845 101.831 102.056 101.941 101.943 102.194C101.668 102.809 102.297 102.678 102.865 102.011C103.134 101.691 103.228 101.672 103.103 101.961Z" fill="white"/>
</svg>
