<svg width="16" height="14" viewBox="0 0 16 14" fill="none" xmlns="http://www.w3.org/2000/svg">
<path fill-rule="evenodd" clip-rule="evenodd" d="M15.296 0.282282C14.9126 0.441104 13.8768 0.871651 12.9942 1.2391C12.1116 1.60651 11.3031 1.94186 11.1976 1.98434C11.0921 2.02679 10.0952 2.4404 8.98241 2.90347C6.93825 3.75408 3.58671 5.14578 1.26409 6.10843C0.568556 6.39668 -0.000278978 6.64102 1.02647e-07 6.65132C0.000279183 6.66167 0.459436 6.8451 1.02039 7.05896C1.58134 7.2728 2.29146 7.54484 2.59845 7.66347C2.90544 7.7821 3.30574 7.93512 3.48802 8.00353L3.81942 8.12785L4.80395 10.5747C5.34544 11.9205 5.79507 13.0372 5.80309 13.0563C5.81115 13.0754 6.39642 12.517 7.10371 11.8155C7.81101 11.114 8.40241 10.54 8.4179 10.54C8.43342 10.54 8.98276 10.9653 9.6387 11.4851C10.2946 12.0049 11.0585 12.6101 11.3361 12.83C11.6137 13.0499 12.069 13.4113 12.3478 13.6331C12.654 13.8767 12.8632 14.0209 12.8763 13.9975C12.8882 13.9762 12.9403 13.7635 12.9921 13.5249C13.0438 13.2863 13.1395 12.8568 13.2046 12.5704C13.2698 12.2841 13.897 9.47277 14.5984 6.32306C15.2998 3.17335 15.9035 0.463629 15.94 0.301441C15.9764 0.139252 16.0033 0.00364994 15.9997 7.50629e-05C15.9961 -0.00353452 15.6794 0.123495 15.296 0.282282ZM11.2666 4.16522C11.1505 4.27372 9.89623 5.41303 8.09284 7.048C7.27741 7.7873 6.58406 8.42641 6.55211 8.46826C6.52012 8.51009 6.42021 8.82547 6.33007 9.16908C5.92543 10.7114 5.90639 10.7731 5.86355 10.6789C5.84185 10.6311 5.58925 10.0066 5.30218 9.29104C4.89531 8.27671 4.78975 7.98128 4.82314 7.95053C4.84668 7.92884 5.31338 7.64615 5.8602 7.32232C6.40702 6.99854 7.59224 6.29582 8.49402 5.76073C11.2156 4.14589 11.3191 4.08484 11.3363 4.08463C11.3455 4.08453 11.3141 4.12076 11.2666 4.16522Z" fill="black"/>
</svg>
