<svg width="201" height="219" viewBox="0 0 201 219" fill="none" xmlns="http://www.w3.org/2000/svg">
<g clip-path="url(#clip0_477_160)">
<path d="M1.16982 152.977C2.64296 148.569 7.62703 145.808 11.6531 143.886C15.8693 141.873 20.343 140.45 24.7322 139.07C36.5799 135.343 48.6244 132.88 60.606 130.198C72.3361 127.571 84.0627 124.666 95.4586 120.166C99.5854 118.536 103.045 114.967 105.012 111.123C107.065 107.116 107.182 103.063 107.252 98.9474C107.264 98.3514 106.734 98.7204 106.687 99.1513C106.226 103.427 105.306 108.371 102.571 112.189C99.0393 117.122 93.3279 118.769 87.9629 120.585C76.6541 124.418 65.098 126.875 53.6084 129.423C42.111 131.974 30.6227 134.693 19.3367 138.621C12.2907 141.073 2.69945 144.94 0.582058 152.807C0.451475 153.301 0.976741 153.551 1.16982 152.977Z" fill="white"/>
<path d="M106.141 102.545C107.606 102.502 109.048 102.026 110.479 101.534C111.751 101.098 113.69 100.807 114.49 99.5965C114.63 99.3853 114.678 99.0045 114.525 98.8268C113.836 98.0254 111.885 99.1331 110.962 99.4712C109.446 100.026 107.876 100.724 106.323 101.072C105.799 101.19 105.556 102.563 106.141 102.545Z" fill="white"/>
<path d="M114.801 100.452C114.088 105.504 114.268 110.591 114.099 115.609C113.946 120.208 113.096 125.496 114.512 129.708C114.631 130.059 114.948 129.642 114.994 129.439C116.093 124.432 115.707 119.278 115.849 114.291C115.981 109.633 116.588 104.488 115.432 100.102C115.309 99.6366 114.838 100.186 114.801 100.452Z" fill="white"/>
<path d="M0.877559 153.708C-3.58196 173.474 52.7619 150.642 61.4282 147.374C72.7576 143.102 84.0984 138.847 95.4147 134.531C99.7722 132.866 104.127 131.194 108.466 129.48C110.035 128.859 111.564 128.181 113.095 127.458C113.991 127.035 114.815 126.245 115.71 125.74C116.04 125.555 116.14 124.522 115.66 124.705C114.926 124.99 114.347 125.124 113.595 125.14C112.599 125.163 111.142 125.93 110.191 126.308C107.016 127.576 103.834 128.815 100.649 130.047C92.0207 133.381 83.3709 136.653 74.7248 139.923C61.5287 144.916 48.3771 150.527 34.9651 154.637C27.7739 156.841 20.3703 158.86 13.052 159.54C8.43997 159.968 0.32963 160.043 1.38715 153.736C1.46949 153.228 0.99197 153.196 0.877559 153.708Z" fill="white"/>
<path d="M38.7239 156.365C41.684 158.766 45.4558 160.287 48.8945 162.012C52.5943 163.872 56.3003 165.724 59.9952 167.596C63.5233 169.382 67.0417 171.186 70.5413 173.016C72.0243 173.789 73.4981 174.572 74.9695 175.36C76.0823 175.956 77.7167 177.4 79.0898 177.261C79.9059 177.18 80.0617 175.907 79.7639 175.42C79.0898 174.315 77.4583 173.808 76.3226 173.2C74.6987 172.327 73.0694 171.469 71.4329 170.616C67.9285 168.791 64.4072 166.996 60.8782 165.214C57.1832 163.349 53.481 161.495 49.7591 159.674C46.3552 158.004 42.9164 155.909 39.0924 155.065C38.5481 154.946 38.4434 156.14 38.7239 156.365Z" fill="white"/>
<path d="M78.7396 178.373C81.3245 178.622 83.6336 177.903 86.1789 176.883C87.6103 176.306 89.0265 175.67 90.4417 175.044C92.1754 174.276 93.2351 173.675 94.6755 172.462C94.8441 172.321 95.0384 171.718 94.7075 171.713C93.2981 171.695 92.5611 171.876 91.134 172.521C89.7142 173.164 88.2953 173.808 86.8646 174.425C84.4323 175.473 81.5481 176.863 78.9804 177.203C78.4967 177.268 78.2353 178.325 78.7396 178.373Z" fill="white"/>
<path d="M65.2617 146.271C66.7541 148.727 68.746 150.471 70.9272 152.331C73.8422 154.813 76.7022 157.358 79.549 159.914C82.2656 162.349 84.9587 164.809 87.6386 167.286C88.8708 168.427 90.1001 169.57 91.3245 170.719C92.2481 171.588 93.0227 172.804 94.5298 172.503C94.8271 172.445 94.9278 171.902 94.8937 171.698C94.3785 168.81 90.9623 166.791 88.956 164.94C86.223 162.414 83.4685 159.91 80.6913 157.431C77.9205 154.958 75.1233 152.512 72.2878 150.109C70.1797 148.321 68.2329 146.512 65.378 145.958C65.2402 145.93 65.2248 146.209 65.2617 146.271Z" fill="white"/>
<path d="M36.0089 133.602C37.2918 130.461 38.2787 127.264 39.6438 124.138C41.2273 120.509 43.001 116.945 44.7115 113.358C45.2879 112.146 44.3683 110.643 43.5831 112.362C41.8883 116.077 40.134 119.77 38.5611 123.524C37.2305 126.704 35.6855 130.264 35.6925 133.584C35.6907 133.833 35.9087 133.847 36.0089 133.602Z" fill="white"/>
<path d="M43.5321 113.652C47.2341 113.351 50.7479 112.205 54.4143 112.696C55.1958 112.801 55.6341 110.824 54.8146 110.727C51.3919 110.319 46.7712 110.62 43.5679 112.814C43.3682 112.95 43.178 113.68 43.5321 113.652Z" fill="white"/>
<path d="M54.6902 112.31C54.0234 118.532 55.683 124.568 55.4621 130.76C55.4106 132.189 56.7841 131.36 56.8208 130.258C56.9125 127.284 56.6767 124.359 56.4272 121.443C56.1535 118.244 56.0792 114.937 55.6093 111.79C55.477 110.894 54.7475 111.791 54.6902 112.31Z" fill="white"/>
<path d="M103.523 134.738C107.953 136.976 111.988 139.832 116.535 141.875C117.391 142.26 118.042 142.915 118.97 143.187C119.931 143.472 120.452 143.148 121.482 142.739C123.779 141.823 126.059 140.481 128.305 139.395C128.563 139.27 128.798 138.496 128.413 138.508C126.414 138.58 124.549 139.896 122.744 140.849C121.874 141.31 120.986 141.602 120.092 141.98C119.223 142.349 117.158 140.705 116.399 140.371C112.076 138.467 108.36 135.46 103.814 133.955C103.464 133.842 103.256 134.605 103.523 134.738Z" fill="white"/>
<path d="M115.201 130.335C116.801 132.461 119.156 133.997 121.142 135.747C122.119 136.609 123.175 137.396 124.176 138.231C125.177 139.066 126.024 140.137 127.344 140.476C127.776 140.587 127.936 139.624 127.83 139.408C126.778 137.238 124.294 135.853 122.437 134.394C120.256 132.687 118.108 130.648 115.704 129.242C115.242 128.97 115.009 130.083 115.201 130.335Z" fill="white"/>
<path d="M95.6955 121.597C95.8302 120.761 95.796 119.991 95.7222 119.179C95.6403 118.248 95.7522 117.029 95.3591 116.215C95.1117 115.709 94.6729 116.272 94.5877 116.645C94.3903 117.541 94.5779 118.447 94.6657 119.314C94.7573 120.203 94.8109 121.096 95.1363 121.908C95.2903 122.289 95.6533 121.858 95.6955 121.597Z" fill="white"/>
<path d="M94.702 117.064C95.5558 117.327 96.8112 116.329 97.6502 115.94C99.0011 115.313 100.248 114.918 101.393 113.906C101.492 113.819 101.578 113.538 101.41 113.51C100.111 113.298 98.9464 113.925 97.7051 114.505C96.5919 115.026 95.2799 115.582 94.6845 116.698C94.6393 116.784 94.5755 117.027 94.702 117.064Z" fill="white"/>
<path d="M101.796 113.903C101.688 113.74 101.578 113.737 101.375 113.716C100.77 113.653 100.658 114.809 100.864 115.103C101.113 115.461 102.531 117.37 103.14 116.289C103.748 115.211 102.188 114.128 101.489 113.749C101.431 114.209 101.374 114.67 101.318 115.13L101.482 115.028C101.911 114.92 101.967 114.151 101.796 113.903Z" fill="white"/>
<path d="M34.7754 145.782C35.407 145.732 36.0255 145.47 36.6543 145.428C37.9943 145.34 38.5065 142.239 37.2835 142.35C36.2632 142.442 35.4515 142.778 34.6776 143.542C34.2514 143.962 33.8384 145.856 34.7754 145.782Z" fill="white"/>
<path d="M41.685 143.94C42.3545 144.382 43.4091 143.763 43.8177 143.127C44.163 142.594 44.2744 141.584 43.7438 141.248C43.0894 140.835 41.9781 141.915 41.6263 142.457C41.3495 142.884 41.2713 143.668 41.685 143.94Z" fill="white"/>
<path d="M48.388 142.285C48.8803 142.37 49.3119 142.179 49.8098 142.111C50.342 142.042 50.6508 141.609 50.8341 141.13C50.9796 140.75 50.997 140.418 50.9705 140.043C50.9529 139.785 50.7416 139.252 50.3836 139.306C49.5343 139.431 48.9288 139.653 48.3027 140.326C47.8501 140.809 47.6197 142.15 48.388 142.285Z" fill="white"/>
<path d="M55.3144 141.11C55.9029 141.075 56.6729 140.78 57.2245 140.503C57.949 140.14 58.6483 138.285 57.7431 137.963C56.8503 137.643 55.8133 138.421 55.2295 139.181C54.9337 139.566 54.453 141.161 55.3144 141.11Z" fill="white"/>
<path d="M62.398 138.755C62.7562 139.395 63.8225 138.924 64.4044 138.652C65.2878 138.237 65.4554 135.939 64.4921 136.391C63.674 136.773 61.7485 137.61 62.398 138.755Z" fill="white"/>
<path d="M69.7212 137.238C69.803 137.305 69.8835 137.373 69.9681 137.438C70.309 137.716 70.824 137.186 70.978 136.887C71.2969 136.272 71.337 135.895 71.1791 135.292C71.0807 134.912 70.6303 134.731 70.2673 135.031C70.1653 135.115 70.0661 135.196 69.9656 135.279C69.3888 135.753 69.204 136.811 69.7212 137.238Z" fill="white"/>
<path d="M75.9451 135.48C76.2396 135.506 76.4519 135.627 76.7562 135.605C77.1322 135.58 77.431 135.426 77.7538 135.218C78.2185 134.918 78.4207 133.954 78.0823 133.614C77.927 133.459 77.7328 133.414 77.5163 133.58C76.9588 134.004 76.4908 134.467 75.9659 134.925C75.8373 135.036 75.7017 135.46 75.9451 135.48Z" fill="white"/>
<path d="M83.6741 133.629C84.3116 133.442 84.6962 132.774 84.7853 132.183C84.8231 131.946 84.8339 131.635 84.6192 131.506C84.591 131.489 84.5652 131.472 84.5384 131.455C84.3975 131.371 84.2372 131.428 84.0962 131.522C83.7436 131.758 83.5431 132.052 83.3687 132.419C83.2153 132.74 82.9991 133.827 83.6741 133.629Z" fill="white"/>
<path d="M2.95968 146.83C3.14824 148.571 4.35152 149.042 5.90074 149.375C6.69268 149.543 7.55726 149.459 8.39002 149.363C9.19137 149.27 10.0588 149.306 10.7948 148.881C11.621 148.404 11.8074 146.666 11.1247 146.223C10.2349 145.644 8.25012 146.503 7.19792 146.751C5.55654 147.134 4.82231 146.822 4.02554 145.547C3.53397 144.759 2.91746 146.46 2.95968 146.83Z" fill="white"/>
<path d="M36.0455 189.38C40.8735 195.182 46.2749 200.226 52.6335 204.314C58.7149 208.226 65.3349 211.244 72.1962 213.497C86.0589 218.041 100.92 219.254 115.406 217.978C129.043 216.778 142.603 213.278 154.923 207.262C165.166 202.26 174.428 195.276 182.316 187.068C197.614 171.148 207.254 150.218 210.726 128.513C214.24 106.524 211.363 83.5437 202.03 63.289C191.963 41.4317 174.371 24.025 152.963 13.2197C145.816 9.61168 138.47 6.85966 130.584 5.40234C130.267 5.34367 129.63 5.97433 130.051 6.14633C142.428 11.201 154.728 16.121 165.726 23.8703C175.464 30.7343 183.986 39.2663 190.852 49.0023C203.903 67.5023 210.384 90.0863 210.202 112.646C210.022 134.817 203.275 156.956 190.491 175.12C184.046 184.276 176.067 192.304 166.906 198.746C156.194 206.281 144.01 211.246 131.264 214.122C102.723 220.554 70.3949 216.718 46.8869 198.325C43.1962 195.437 39.6935 192.352 36.5895 188.836C36.3842 188.601 35.8402 189.132 36.0455 189.38Z" fill="white"/>
<path d="M194.349 63.1935C196.158 70.3442 199.037 77.2135 200.985 84.3389C201.994 88.0335 202.841 91.7708 203.521 95.5402C204.164 99.1148 204.409 102.766 205.24 106.304C205.286 106.507 205.584 106.202 205.594 106.094C205.937 102.467 205.412 98.8615 204.789 95.2935C204.128 91.5242 203.284 87.7935 202.305 84.0935C200.422 76.9882 198.316 69.3855 194.698 62.9442C194.594 62.7602 194.313 63.0402 194.349 63.1935Z" fill="white"/>
<path d="M135.507 0.358234C141.846 2.73157 148.171 4.9369 154.247 7.96224C157.668 9.6649 160.986 11.5742 164.19 13.6556C167.14 15.5716 169.838 17.8676 172.854 19.6716C172.976 19.7436 173.204 19.4862 173.106 19.3742C170.715 16.6076 167.491 14.5729 164.447 12.5956C161.515 10.6916 158.468 8.9729 155.356 7.38357C149.19 4.23424 142.556 1.43157 135.762 0.00223541C135.606 -0.0297661 135.31 0.283569 135.507 0.358234Z" fill="white"/>
<path d="M125.811 211.476C133.232 210.343 140.399 207.648 147.254 204.662C154.868 201.343 162.428 197.531 169.238 192.76C169.376 192.662 169.431 192.338 169.186 192.463C162.03 196.119 155.114 200.182 147.79 203.515C140.735 206.726 133.436 209.286 125.902 211.11C125.738 211.148 125.532 211.518 125.811 211.476Z" fill="white"/>
<path d="M173.325 199.916C174.377 199.963 175.404 199.167 176.205 198.567C177.254 197.785 178.192 196.801 179.065 195.832C179.21 195.671 179.14 195.449 178.916 195.599C177.984 196.219 177.117 196.949 176.226 197.629C175.301 198.337 174.298 198.919 173.364 199.607C173.292 199.661 173.13 199.908 173.325 199.916Z" fill="white"/>
<path d="M39.2312 187.156C39.1139 188.856 41.2445 190.32 42.3845 191.356C44.2445 193.049 46.2339 194.557 48.3539 195.905C48.5179 196.008 48.8219 195.729 48.6925 195.568C47.3099 193.85 45.5885 192.418 43.9139 191.002C42.3979 189.718 40.9765 188.268 39.5672 186.913C39.4365 186.789 39.2392 187.038 39.2312 187.156Z" fill="white"/>
</g>
<defs>
<clipPath id="clip0_477_160">
<rect width="201" height="219" fill="white"/>
</clipPath>
</defs>
</svg>
