<svg width="49" height="40" viewBox="0 0 49 40" fill="none" xmlns="http://www.w3.org/2000/svg">
<path d="M20.2803 5.62474C20.5631 5.71077 20.5561 5.9135 20.2655 5.93188C20.0607 5.94673 19.949 5.82535 20.0032 5.64724C20.0193 5.59437 20.146 5.58389 20.2803 5.62474ZM21.2368 5.08152C21.4341 4.93632 21.8056 5.04211 21.7506 5.22264C21.7394 5.25951 21.6646 5.23676 21.5767 5.16973C21.4892 5.10625 21.3363 5.0966 21.2189 5.1502C21.052 5.22558 21.0553 5.21479 21.2368 5.08152ZM21.5803 4.53841C21.6328 4.36588 21.6805 4.3063 21.689 4.40085C21.6959 4.49947 21.6541 4.63687 21.5947 4.71078C21.5346 4.78599 21.5281 4.7099 21.5803 4.53841ZM20.3214 4.895C20.3138 4.77374 20.38 4.71219 20.4858 4.74436C20.5835 4.77409 20.6914 4.71798 20.7212 4.62023C20.7513 4.52109 20.897 4.44191 21.0454 4.44259C21.193 4.44455 21.2968 4.37199 21.2746 4.28389C21.2505 4.18309 21.277 4.1687 21.3446 4.24858C21.5031 4.42601 21.4313 4.62838 21.2327 4.56795C21.1526 4.54361 20.9669 4.66079 20.8121 4.84362C20.5113 5.19755 20.3431 5.21326 20.3214 4.895ZM25.0412 3.70321C25.1403 3.73337 25.1177 3.80781 24.9599 3.96047C24.7206 4.19476 24.5752 4.08819 24.7803 3.82869C24.847 3.74066 24.9692 3.6813 25.0412 3.70321ZM30.7705 1.75401C30.8016 1.62817 30.8553 1.5628 30.8805 1.61228C30.9089 1.66536 30.8799 1.7755 30.8226 1.85155C30.7509 1.94109 30.7321 1.90536 30.7705 1.75401ZM26.4361 2.64577C26.5109 2.66852 26.5494 2.73686 26.5275 2.80887C26.5048 2.88365 26.4689 2.92291 26.4365 2.91307C26.4024 2.9027 26.3649 2.84111 26.3442 2.7531C26.3212 2.66744 26.3614 2.62302 26.4361 2.64577ZM29.4837 2.17737C29.5702 2.24548 29.6392 2.32578 29.6323 2.34873C29.624 2.37587 29.5309 2.37453 29.4328 2.34469C29.3337 2.31452 29.2618 2.23338 29.2817 2.16799C29.3004 2.10676 29.3957 2.11069 29.4837 2.17737ZM21.8799 4.35934C22.1459 4.58166 22.2667 4.73696 22.1415 4.70346C22.02 4.66952 21.9097 4.69982 21.8875 4.77287C21.8655 4.84522 21.9099 4.88533 21.9929 4.86611C22.0732 4.8457 22.1175 4.89492 22.0906 4.98327C22.0659 5.06467 22.1695 5.04146 22.3211 4.92415C22.4676 4.80837 22.575 4.64531 22.5564 4.56517C22.5088 4.37585 22.6261 4.41875 22.8851 4.68035C23.0403 4.83854 23.081 4.85092 23.0507 4.73072C23.03 4.64271 23.1175 4.56103 23.2435 4.55183C23.4141 4.53686 23.48 4.42769 23.5164 4.10318C23.5623 3.68353 23.8028 3.4553 23.8797 3.75347C23.8984 3.83326 24.0429 3.93387 24.1905 3.97115C24.4331 4.03317 24.4265 4.00609 24.1456 3.76749C23.9652 3.61342 23.7788 3.50918 23.7154 3.52259C23.6505 3.53972 23.6209 3.50106 23.6436 3.42627C23.6664 3.35148 23.7389 3.28917 23.8274 3.26705C23.9076 3.24699 23.9564 3.29147 23.9336 3.36626C23.911 3.4407 23.9647 3.48403 24.0544 3.45774C24.1469 3.43114 24.2366 3.48351 24.2635 3.58977C24.2961 3.72129 24.3663 3.73542 24.5412 3.64764C24.6792 3.57521 24.9259 3.59366 25.1528 3.69232C25.5825 3.87512 26.1408 3.71394 26.1211 3.41265C26.1134 3.30197 26.0399 3.23479 25.9524 3.26023C25.8631 3.28513 25.8545 3.24981 25.9348 3.18075C26.0349 3.09529 26.1048 3.11047 26.1883 3.23547C26.272 3.36507 26.4164 3.39415 26.7186 3.33751C26.9465 3.29548 27.1956 3.28233 27.2812 3.30837C27.3612 3.33271 27.4922 3.29808 27.5734 3.22624C27.6523 3.15675 27.9777 3.06268 28.3068 3.01154C28.6293 2.96104 28.8815 2.87891 28.8679 2.82613C28.854 2.7744 29.0078 2.7425 29.2043 2.75478C29.4013 2.76568 29.7702 2.68485 30.0064 2.58302C30.4744 2.3765 30.5979 2.22406 30.2833 2.24388C30.0046 2.26171 29.9632 2.10052 30.1923 1.87339C30.3045 1.75932 30.4382 1.73462 30.511 1.81149C30.5824 1.88528 30.6012 1.88075 30.5616 1.79726C30.5199 1.71463 30.4587 1.64735 30.4096 1.63243C30.3633 1.61836 30.2679 1.53727 30.1901 1.44213C30.0838 1.31784 30.0491 1.34453 30.0352 1.57021C30.0253 1.79753 29.997 1.82311 29.9027 1.6785C29.746 1.43777 29.5051 1.42377 29.1433 1.6375C28.9304 1.76125 28.8651 1.75619 28.9006 1.63056C28.9301 1.52362 28.8622 1.53715 28.7213 1.66798C28.5916 1.79194 28.4357 1.84069 28.3577 1.78007C28.2845 1.72817 28.1496 1.76579 28.075 1.86472C27.9733 1.99416 27.9182 1.99527 27.886 1.8665C27.8524 1.73316 27.7775 1.74457 27.6148 1.91323C27.4819 2.04798 27.3407 2.08219 27.2726 2.00371C27.1983 1.92182 27.1903 1.96689 27.2551 2.12C27.344 2.3401 27.3141 2.3709 27.0195 2.3573C26.8365 2.34914 26.6283 2.28276 26.5609 2.20563C26.4817 2.11502 26.457 2.12234 26.4856 2.23477C26.5131 2.34423 26.4366 2.3757 26.2762 2.32691C26.1402 2.28554 26.009 2.30223 25.9905 2.36311C25.973 2.4205 25.8355 2.46761 25.7031 2.46455C25.5142 2.45575 25.4271 2.55582 25.3674 2.85955C25.3057 3.14976 25.2558 3.2163 25.187 3.08665C25.0525 2.83521 24.9028 2.82502 24.921 3.07263C24.9367 3.26591 24.9067 3.2659 24.7118 3.06827C24.4629 2.82193 24.1672 2.82847 24.2359 3.07969C24.2629 3.1871 24.195 3.19039 24.0361 3.09303C23.8968 3.00884 23.8039 2.99691 23.8219 3.0651C23.8381 3.12932 23.758 3.18665 23.6329 3.19306C23.4553 3.20592 23.4315 3.25037 23.5058 3.44095C23.5816 3.6301 23.567 3.65833 23.4069 3.60965C23.2981 3.57653 23.0602 3.65999 22.8613 3.80166C22.5823 4.00181 22.4828 4.01146 22.3762 3.8498C22.2729 3.69219 22.1959 3.69538 22.0315 3.86087C21.9155 3.97377 21.7808 4.05026 21.7349 4.0302C21.4041 3.87331 21.4709 4.01981 21.8799 4.35934ZM18.9252 5.88783C19.0828 5.74576 19.1174 5.76808 19.0533 5.97888C19.0236 6.07662 18.9567 6.12015 18.9101 6.0687C18.8591 6.01634 18.8646 5.94085 18.9252 5.88783ZM32.3215 2.00885C32.2579 1.98948 32.1951 1.87842 32.187 1.76764C32.1802 1.65879 32.1977 1.56757 32.2207 1.57455C32.2436 1.58154 32.3051 1.69678 32.3543 1.81854C32.4091 1.95569 32.3963 2.0316 32.3215 2.00885ZM48.7748 13.6875C48.8445 13.2633 48.8823 12.577 48.8631 12.163C48.8464 11.7543 48.8407 11.2996 48.8528 11.1623C48.8927 10.6503 48.569 8.88343 48.3395 8.37846C48.2114 8.09741 48.0302 7.7025 47.9401 7.51016C47.8566 7.32132 47.7509 7.03415 47.7182 6.89802C47.6819 6.74865 47.624 6.64667 47.5871 6.66053C47.5484 6.67535 47.3804 6.43158 47.2174 6.12925C46.8898 5.52221 46.1574 4.60163 45.9494 4.53835C45.8746 4.5156 45.8361 4.4621 45.8547 4.40088C45.8713 4.34661 45.7013 4.17328 45.4692 4.00919C45.2366 3.84189 44.9577 3.63544 44.8379 3.5321C43.4792 2.37653 41.0367 1.41075 38.4753 1.01309C37.8327 0.914138 37.1692 0.875328 36.9871 0.926723C36.7491 0.996849 36.6526 0.978118 36.6523 0.866673C36.652 0.770063 36.5731 0.735801 36.4398 0.769348C36.3234 0.800833 36.1487 0.814188 36.0533 0.800378C35.9595 0.786641 35.7654 0.789935 35.6439 0.80465C35.3295 0.847353 35.2539 0.842219 34.9608 0.775089C34.8133 0.737811 34.6852 0.802615 34.646 0.931671C34.5901 1.11534 34.5718 1.11697 34.512 0.923595C34.4543 0.732347 34.4256 0.719072 34.281 0.838489C34.1896 0.919004 34.0736 0.925518 34.0105 0.854263C33.9473 0.778411 33.8458 0.795014 33.7665 0.894414C33.69 0.989717 33.5566 1.03845 33.4505 1.00617C33.2915 0.957807 33.2787 0.986207 33.3656 1.21786C33.4626 1.46972 33.4598 1.46888 33.2833 1.20463C33.1258 0.966673 33.055 0.9406 32.8194 1.0217C32.6693 1.07559 32.4642 1.05766 32.3705 0.984687C32.2625 0.899781 32.2176 0.916155 32.2479 1.02152C32.274 1.13055 32.2305 1.1424 32.1207 1.0588C32.0218 0.983893 31.9333 0.982438 31.9086 1.06384C31.8858 1.13863 31.8031 1.16554 31.7238 1.11899C31.645 1.07564 31.5577 1.14293 31.529 1.27216C31.491 1.45938 31.4598 1.4647 31.3531 1.30304C31.1663 1.02388 30.7904 1.19151 30.9449 1.48325C31.0758 1.7264 30.9595 2.13342 30.7786 2.07839C30.708 2.05691 30.7016 2.13667 30.764 2.26395C30.8508 2.44201 30.9174 2.46682 31.1046 2.38849C31.228 2.33404 31.3978 2.33668 31.4714 2.39328C31.563 2.45838 31.6026 2.41075 31.5934 2.25974C31.5773 2.05417 31.6052 2.0509 31.8026 2.24167C31.9873 2.42404 32.0215 2.42417 32.0074 2.2519C31.9961 2.14167 32.0481 2.05944 32.1117 2.0788C32.1823 2.10028 32.2448 2.19341 32.2503 2.29161C32.2616 2.42577 32.2806 2.42699 32.3267 2.30913C32.3611 2.2261 32.4334 2.20326 32.4901 2.26536C32.5427 2.32125 32.6492 2.29855 32.72 2.21179C32.788 2.12568 32.92 2.10655 33.0005 2.16792C33.0875 2.23923 33.2027 2.22675 33.2658 2.14031C33.3317 2.06116 33.6125 2.05006 33.9164 2.11552C34.2024 2.18503 34.5207 2.20283 34.6038 2.15854C34.6891 2.11304 34.881 2.11671 35.04 2.16507C35.2003 2.21385 35.3274 2.18106 35.3366 2.0919C35.3466 1.98662 35.5296 1.99478 35.8698 2.10587C36.1547 2.19978 36.3817 2.23462 36.3674 2.18278C36.3526 2.12923 36.4677 2.11675 36.6206 2.15147C37.7055 2.39677 39.0726 2.55766 39.1942 2.45633C39.3086 2.35773 39.3341 2.36246 39.2982 2.48072C39.2721 2.5663 39.3578 2.66951 39.4952 2.71131C39.6298 2.75226 39.764 2.71593 39.79 2.63036C39.8199 2.53227 39.8569 2.53175 39.8899 2.62807C39.9215 2.71028 40.4092 2.93731 40.9723 3.12647C41.5332 3.31649 42.2037 3.60219 42.4527 3.75962C42.8015 3.97975 42.9359 4.01497 43.052 3.91195C43.1694 3.8097 43.2027 3.83159 43.2197 4.01046C43.2268 4.13311 43.403 4.33491 43.5988 4.44199C43.7993 4.55505 44.1817 4.84963 44.4576 5.09963C44.7934 5.4097 44.9836 5.51658 45.0521 5.42909C45.1076 5.35401 45.1332 5.38117 45.1049 5.49417C45.0634 5.69402 46.0993 7.14475 46.3328 7.21575C46.4076 7.23851 46.4444 7.33714 46.4143 7.43628C46.384 7.53577 46.4886 7.74395 46.6451 7.9029C46.7974 8.0606 46.8788 8.17921 46.8234 8.16504C46.7721 8.15397 46.7526 8.28181 46.7819 8.43896C46.815 8.59761 46.9189 8.71092 47.0027 8.68892C47.0924 8.66262 47.1087 8.69152 47.0446 8.74613C46.9824 8.80436 47.0228 9.23242 47.1342 9.68208C47.4796 11.0489 47.44 12.863 47.0277 14.8529C46.9764 15.0942 46.9583 15.3886 46.9884 15.4943C47.022 15.6276 47.0034 15.6501 46.9271 15.5646C46.8438 15.4723 46.719 15.7316 46.4951 16.4574C46.1285 17.6376 46.0554 17.8054 45.3047 19.2873C44.728 20.4211 43.1231 22.847 42.3996 23.6736C40.0432 26.3684 39.0537 27.3425 36.8431 29.1285C29.969 34.6781 21.2909 38.0626 14.0658 38.0126C12.9756 38.0048 12.6785 37.987 11.7468 37.8863C10.7807 37.7779 8.42576 37.1162 7.64632 36.735C7.19278 36.5081 6.67214 36.2532 6.47504 36.159C5.99171 35.9276 4.68518 34.8693 4.22581 34.3392C4.02508 34.1121 3.8203 33.9057 3.77543 33.8921C3.72951 33.8781 3.63401 33.7286 3.55247 33.5419C3.47299 33.3546 3.34276 33.2318 3.25432 33.2539C3.17249 33.2781 3.12325 33.2213 3.14929 33.1357C3.17691 33.0449 3.10177 32.7697 2.97018 32.5039C2.35646 31.217 1.95144 28.8743 2.10865 27.4943C2.35648 25.3129 2.97036 23.295 4.03538 21.1696C4.53521 20.1713 4.84659 19.6499 5.94271 17.9745C6.12282 17.6997 6.66791 16.9823 7.14213 16.3992C7.62052 15.8173 8.00163 15.2579 7.98334 15.1706C7.96412 15.0876 7.98242 15.0662 8.02253 15.1305C8.06091 15.1942 8.52327 14.7975 9.04616 14.2543C10.3451 12.8978 11.9159 11.4336 12.0341 11.4696C12.0884 11.4861 12.6334 11.0951 13.2497 10.597C13.8657 10.0938 14.4067 9.67201 14.458 9.65076C14.7481 9.53566 15.3201 9.05184 15.2886 8.9457C15.2681 8.87562 15.3332 8.83767 15.4216 8.86455C15.5127 8.89227 15.7441 8.76504 15.9428 8.5853C16.1393 8.40298 16.4563 8.19045 16.6522 8.11361C16.8505 8.03292 16.9962 7.92866 16.9869 7.8768C16.9772 7.82633 17.1026 7.71627 17.2626 7.63878C17.4224 7.55818 17.5474 7.5221 17.5363 7.55862C17.5252 7.59515 17.6273 7.56691 17.7551 7.49901C17.884 7.43142 18.017 7.31151 18.0369 7.24611C18.0575 7.17828 18.209 7.09514 18.3655 7.06409C18.524 7.03057 18.6409 6.92971 18.6147 6.8446C18.5902 6.75392 18.6144 6.73316 18.669 6.79727C18.7775 6.9192 19.4739 6.48535 19.7499 6.12391C19.8571 5.98133 19.8569 5.89955 19.7414 5.86442C19.6353 5.83214 19.6244 5.73685 19.7147 5.58609C19.814 5.416 19.7919 5.34239 19.6218 5.29064C19.4208 5.22948 19.413 5.24498 19.5397 5.39943C19.6272 5.50777 19.6283 5.56284 19.54 5.53596C19.2778 5.46076 19.318 5.21609 19.5985 5.15738C19.9749 5.08187 20.0349 5.10467 19.975 5.30155C19.9088 5.51896 20.6117 5.63357 20.8912 5.44687C21.0542 5.34065 21.0264 5.3246 20.7225 5.34804C20.4168 5.37211 20.3272 5.32433 20.188 5.06496C20.0219 4.75639 20.0116 4.75631 19.5252 5.02371C19.2596 5.17324 19.0016 5.40182 18.9652 5.52148C18.9238 5.65749 18.8094 5.71618 18.6738 5.67491C18.3475 5.57564 15.2243 7.25317 14.5437 7.89514C14.4597 7.97638 14.2162 8.15201 14.0307 8.27343C13.8438 8.39063 13.6734 8.53603 13.6662 8.57832C13.6613 8.62434 13.5365 8.70228 13.3848 8.75265C13.0667 8.85618 11.0222 10.516 10.7855 10.8643C10.6916 11.0018 10.4572 11.2365 10.249 11.3985C9.6799 11.8388 9.54724 11.9675 7.82436 13.7906C6.94468 14.7209 6.21293 15.5347 6.19145 15.6053C6.16996 15.6759 5.93018 15.9906 5.66156 16.2977C4.65898 17.452 3.37391 19.4987 2.49305 21.3461C1.1337 24.1941 0.440662 27.8476 0.80482 30.2672C0.947666 31.1981 1.73224 33.5137 1.96958 33.6942C2.04756 33.7552 2.27232 34.0908 2.47565 34.4468C2.67484 34.8027 2.94821 35.1234 3.08561 35.1652C3.21988 35.206 3.2918 35.2769 3.24155 35.3209C3.09544 35.4502 4.70031 36.9033 5.39472 37.2704C5.43044 37.2904 5.49486 37.3472 5.55394 37.4154C6.04564 37.9853 9.64804 39.2473 11.2777 39.4284C11.7051 39.474 12.2113 39.5315 12.3964 39.5578C14.9891 39.8924 19.4615 39.3676 23.0722 38.3077C25.7293 37.5274 27.7772 36.666 30.7225 35.0959C33.5717 33.5771 35.5124 32.3071 37.5117 30.6636C38.1948 30.1022 38.8923 29.5322 39.0595 29.3972C39.7944 28.7969 41.7786 26.7729 42.8264 25.5551C44.5733 23.5155 46.7336 20.2609 46.6222 19.8363C46.5951 19.7494 46.628 19.7047 46.7 19.7266C46.7613 19.7452 46.8675 19.562 46.9288 19.3257C46.9909 19.0876 47.0951 18.8864 47.1644 18.8835C47.3215 18.8792 48.6094 14.7283 48.7748 13.6875Z" fill="white"/>
</svg>
