<svg width="1750" height="1833" viewBox="0 0 1750 1833" fill="none" xmlns="http://www.w3.org/2000/svg">
<path d="M1446.61 1409.19C1447.13 1398.78 1445.66 1379.14 1461.19 1379.61C1470.45 1379.89 1479.68 1379.65 1488.93 1379.77C1493.84 1379.84 1506.17 1382.87 1510.08 1381.02C1511.66 1380.28 1513.21 1377.46 1514.19 1376.33C1520.7 1368.76 1527.38 1361.24 1534.87 1354.5C1541.78 1348.28 1548.84 1351.44 1558.27 1353.37C1576.62 1357.11 1597.72 1359.48 1615.34 1366.66C1633.06 1373.88 1650.52 1383 1667.64 1391.63C1668.69 1392.15 1669.57 1390.78 1668.51 1390.25C1650.54 1381.2 1632.71 1370.84 1613.91 1363.69C1605.01 1360.31 1594.82 1359.01 1585.66 1356.97C1573.38 1354.22 1561.08 1351.54 1548.75 1349.2C1541.09 1347.75 1538.6 1348.04 1533.1 1352.75C1525.01 1359.66 1518.13 1367.93 1511.28 1375.91C1507.25 1380.61 1503.79 1378.23 1496.74 1377.8C1484.83 1377.07 1472.97 1377.6 1461.11 1377.41C1455.15 1377.32 1451.08 1376.57 1448.64 1381.95C1444.83 1390.33 1445.09 1399.86 1444.96 1409.08C1444.94 1410.08 1446.56 1410.16 1446.61 1409.19Z" fill="black" fill-opacity="0.05"/>
<path d="M1500.79 1448.75C1501.66 1443.23 1502.6 1437.73 1503.52 1432.22C1503.93 1429.75 1504.21 1427.26 1504.58 1424.79C1505.85 1416.24 1519.11 1417.28 1525.5 1417.56C1540.55 1418.23 1555.66 1420.92 1570.67 1420.74C1571.93 1420.73 1571.91 1418.93 1570.6 1418.86C1551.52 1417.89 1528.87 1411.82 1510.71 1416.24C1498.17 1419.29 1500 1438.24 1498.92 1448.39C1498.81 1449.38 1500.63 1449.73 1500.79 1448.75Z" fill="black" fill-opacity="0.05"/>
<path d="M1452.89 1398.26C1452.35 1395.66 1452.94 1393.47 1454 1391.22C1454.63 1389.9 1456.66 1391.46 1457.25 1392.04C1458.21 1392.97 1458.22 1394.45 1458.2 1395.55C1458.17 1397.25 1457.49 1399.61 1456 1400.57C1454.3 1401.66 1453.17 1399.04 1453.09 1397.86C1453.02 1396.62 1453.71 1395.36 1454.07 1394.23C1454.43 1393.05 1452.44 1392.12 1451.85 1393.2C1450.1 1396.41 1449.71 1401.07 1454.25 1402.98C1458.33 1404.71 1460.21 1399.25 1460.6 1396.71C1461.17 1393.07 1459.19 1389.15 1454.89 1388.53C1449.98 1387.82 1451.13 1395.78 1451.68 1398.49C1451.83 1399.25 1453.05 1399.03 1452.89 1398.26Z" fill="black" fill-opacity="0.05"/>
<path d="M1492.97 1423.55C1492.43 1420.95 1493.01 1418.76 1494.08 1416.51C1494.71 1415.19 1496.74 1416.74 1497.33 1417.32C1498.28 1418.25 1498.3 1419.74 1498.28 1420.84C1498.25 1422.54 1497.57 1424.9 1496.08 1425.86C1494.38 1426.95 1493.24 1424.33 1493.18 1423.15C1493.1 1421.9 1493.79 1420.65 1494.15 1419.52C1494.51 1418.34 1492.52 1417.41 1491.93 1418.49C1490.18 1421.7 1489.78 1426.35 1494.33 1428.27C1498.41 1430 1500.29 1424.54 1500.68 1422C1501.25 1418.36 1499.27 1414.44 1494.97 1413.82C1490.06 1413.11 1491.21 1421.07 1491.76 1423.77C1491.91 1424.54 1493.13 1424.31 1492.97 1423.55Z" fill="black" fill-opacity="0.05"/>
<path d="M1448.86 1391.18C1452.84 1388.4 1453.9 1383.96 1461.88 1386.5C1467.75 1388.36 1473.88 1392.36 1479.32 1395.29C1487.44 1399.69 1509.13 1409.44 1510.69 1418.98C1510.89 1420.2 1512.79 1420.39 1512.78 1419.12C1512.76 1414.43 1510.03 1412.1 1506.01 1409.07C1497.02 1402.31 1486.65 1396.74 1476.73 1391.4C1470.47 1388.02 1463.95 1384.17 1456.9 1383.17C1451.35 1382.39 1450.99 1387.92 1447.98 1390.32C1447.4 1390.78 1448.28 1391.59 1448.86 1391.18Z" fill="black" fill-opacity="0.05"/>
<path d="M1455.41 1423.04C1456.05 1419.56 1456.97 1416.15 1457.66 1412.67C1458.01 1410.91 1459.37 1401.77 1463.71 1404.18C1466.72 1405.85 1469.62 1407.79 1472.55 1409.59C1475.5 1411.39 1478.46 1413.18 1481.41 1414.98C1484.93 1417.12 1487.2 1417.6 1485.88 1421.55C1483.89 1427.45 1481.4 1433.34 1480.14 1439.48C1479.94 1440.43 1481.5 1441.28 1481.96 1440.32C1483.7 1436.71 1484.8 1432.84 1486.07 1429.04C1486.99 1426.31 1490.15 1421.08 1489.21 1418.05C1488.66 1416.3 1486.22 1415.24 1484.83 1414.4C1479.66 1411.26 1474.49 1408.12 1469.32 1404.99C1464.87 1402.31 1460.94 1399.01 1457.82 1403.78C1454.54 1408.82 1455.28 1416.77 1454.38 1422.71C1454.29 1423.32 1455.3 1423.67 1455.41 1423.04Z" fill="black" fill-opacity="0.05"/>
<path d="M1442.56 1415.25C1458.09 1430.7 1480.8 1446.87 1501.97 1453.78C1502.75 1454.04 1503.15 1453.07 1502.47 1452.64C1493.14 1446.72 1482.91 1442.14 1473.48 1436.27C1462.88 1429.66 1453.24 1421.85 1443.23 1414.47C1442.69 1414.07 1442.11 1414.8 1442.56 1415.25Z" fill="black" fill-opacity="0.05"/>
<path d="M1443.08 1412.28C1442.8 1411.7 1436.59 1411.75 1436.05 1412.95C1433.42 1418.8 1434.32 1425.31 1433.73 1431.72C1433.69 1432.11 1434.02 1432.48 1434.34 1432.71C1444.91 1440.44 1455.58 1448.03 1466.37 1455.46C1481.66 1465.99 1492.83 1471.96 1511.72 1473.29C1512.25 1473.33 1512.76 1473.01 1512.87 1472.53C1514.13 1467.04 1516.26 1461.16 1515.4 1455.3C1515.34 1454.8 1515.04 1454.29 1514.47 1454.14C1510.42 1453.08 1506.46 1452.29 1502.39 1451.35C1501.69 1451.19 1501.44 1452.07 1502.13 1452.33C1504.03 1453.05 1505.82 1453.74 1507.7 1454.57C1513.86 1457.32 1513.53 1457.22 1512.31 1463.72C1510.52 1473.28 1504.22 1469.12 1495.92 1467.73C1484.57 1465.84 1477.08 1460.1 1467.54 1453.59C1458.7 1447.56 1449.99 1441.35 1441.32 1435.11C1439.41 1433.73 1437.5 1432.35 1435.6 1430.96C1436.17 1431.38 1436.42 1423.41 1436.42 1423.2C1436.44 1418.18 1438.84 1414.05 1444.21 1413.5C1444.61 1413.46 1444.72 1413.01 1444.55 1412.69C1444.4 1412.4 1444.23 1412.1 1444.08 1411.81C1443.72 1411.14 1442.77 1411.63 1443.08 1412.28Z" fill="black" fill-opacity="0.05"/>
<path d="M1516.69 1430.99C1518.67 1430.74 1518.77 1428.92 1519.14 1427.33C1519.86 1424.22 1529.32 1429.47 1531.17 1430.25C1530.91 1429.67 1530.65 1429.1 1530.39 1428.52C1530 1429.18 1529.74 1429.83 1529.52 1430.57C1528.91 1432.57 1527.67 1433.14 1525.44 1432.75C1522.47 1432.23 1520.09 1431.92 1517.47 1430.31C1516.73 1429.85 1515.86 1430.59 1516.33 1431.31C1518.41 1434.54 1522.03 1434.45 1525.52 1435.07C1527.01 1435.33 1529.24 1435.83 1530.33 1434.63C1531.6 1433.23 1531.58 1431.4 1532.51 1429.83C1532.9 1429.17 1532.48 1428.41 1531.73 1428.1L1524.53 1425.13C1523.14 1424.56 1521.13 1423.59 1519.64 1423.99C1516.24 1424.9 1517.79 1428.07 1516.03 1430.17C1515.72 1430.54 1516.26 1431.05 1516.69 1430.99Z" fill="black" fill-opacity="0.05"/>
<path d="M1510.13 1461.72C1513.38 1462.54 1521.96 1466.11 1525 1463.45C1526.89 1461.8 1527.34 1456.17 1528.29 1454C1533.43 1442.29 1551.77 1440.7 1560.53 1452.6C1563.92 1457.22 1562.34 1461.98 1564.32 1466.53C1564.5 1466.95 1564.91 1467.42 1565.44 1467.4C1586.6 1466.52 1609.21 1469.87 1630.61 1471.15C1631.3 1471.19 1631.75 1470.72 1631.77 1470.1C1632.67 1447.32 1670.31 1448.64 1667.49 1473.38C1667.41 1474.1 1667.84 1474.83 1668.71 1474.91C1674.43 1475.39 1685.54 1478.46 1688.2 1472.74C1692.41 1463.71 1698.5 1451.93 1697.25 1441.36C1696.2 1432.42 1679.23 1430.12 1678.26 1424.25C1677.02 1416.84 1676.87 1394.46 1668.53 1389.31C1663.65 1386.3 1652.85 1386.42 1647.45 1385.46C1634.04 1383.06 1620.64 1380.67 1607.24 1378.28C1596.75 1376.4 1596.44 1379.21 1589.31 1387.19C1581.49 1395.92 1575.36 1405.76 1568.39 1415.05C1567.98 1415.6 1568.99 1416.21 1569.4 1415.67C1573.71 1409.92 1578.66 1404.55 1583.09 1398.86C1586.05 1395.05 1597.24 1378.79 1600.35 1379.35C1615.35 1382.03 1630.36 1384.71 1645.36 1387.39C1652.08 1388.59 1658.81 1389.79 1665.54 1391C1668.39 1391.51 1666.9 1390.78 1668.09 1392.76C1672.29 1399.76 1672.99 1407.34 1674.25 1414.86C1674.64 1417.18 1674.42 1426.66 1677.25 1428.07C1681.1 1429.99 1684.76 1432.23 1688.32 1434.63C1696.69 1440.28 1695.02 1445.86 1692.95 1453.13C1691.54 1458.09 1688.8 1473.14 1682.56 1473.34C1678.46 1473.48 1674.22 1473.05 1670.08 1472.73C1667.82 1472.56 1669.89 1473.8 1669.91 1473.67C1670.01 1472.52 1670.01 1471.37 1669.98 1470.21C1669.65 1456.53 1655.33 1446.61 1641.82 1451.95C1635.96 1454.26 1632.53 1458.25 1630.48 1463.92C1629.86 1465.64 1629.59 1467.51 1629.4 1469.36C1629.27 1470.63 1631.13 1468.92 1630.1 1468.86C1629.05 1468.8 1628 1468.74 1626.95 1468.67C1610.18 1467.68 1593.41 1466.69 1576.64 1465.8C1573.48 1465.63 1570.31 1465.46 1567.14 1465.32C1564.83 1465.22 1566.49 1465.81 1566.13 1462.54C1565.41 1456.02 1561.93 1448.04 1554.86 1445.02C1545.53 1441.05 1536.12 1441.81 1530.02 1448.73C1528.11 1450.9 1526.98 1453.76 1525.97 1456.44C1525.39 1457.99 1525 1459.63 1524.58 1461.24C1523.59 1464.99 1513.58 1461.45 1510.41 1460.66C1509.65 1460.47 1509.36 1461.53 1510.13 1461.72Z" fill="black" fill-opacity="0.05"/>
<path d="M1489.46 1467.87C1491.24 1463.25 1492.2 1458.78 1492.32 1453.75C1492.34 1453.06 1491.03 1452.81 1490.95 1453.5C1490.39 1458.2 1489.48 1462.96 1488.12 1467.46C1487.89 1468.21 1489.18 1468.59 1489.46 1467.87Z" fill="black" fill-opacity="0.05"/>
<path d="M1492.26 1449.59C1493.15 1449.88 1493.48 1448.61 1492.59 1448.32C1491.7 1448.04 1491.37 1449.3 1492.26 1449.59Z" fill="black" fill-opacity="0.05"/>
<path d="M1513.72 1381.52C1531.85 1392.13 1550.49 1401.84 1568.58 1412.52C1569.15 1412.86 1569.75 1412.71 1570.09 1412.26C1578.7 1401.23 1587.25 1390.15 1595.82 1379.09C1596.16 1378.64 1595.91 1377.81 1595.35 1377.51C1577.64 1368.22 1559.93 1358.94 1542.22 1349.67C1541.74 1349.42 1541.08 1349.34 1540.72 1349.73C1531.51 1359.88 1522.29 1370.02 1513.08 1380.18C1512.09 1381.27 1513.9 1383.09 1514.9 1381.99C1524.07 1371.87 1533.24 1361.75 1542.41 1351.62C1541.86 1352.23 1540.36 1351.24 1541.96 1352.07C1543.22 1352.74 1544.49 1353.4 1545.76 1354.06C1549.62 1356.08 1553.48 1358.1 1557.34 1360.12C1566.58 1364.96 1575.83 1369.79 1585.07 1374.62C1587.79 1376.04 1590.52 1377.46 1593.24 1378.88C1594.98 1379.79 1592.89 1378.86 1593.63 1377.9C1593.02 1378.69 1592.42 1379.47 1591.81 1380.25C1586.52 1387.14 1581.22 1394.03 1575.92 1400.91C1573.73 1403.75 1571.55 1406.59 1569.38 1409.44C1567.54 1411.84 1561.74 1406.3 1558.4 1404.46C1543.76 1396.39 1528.7 1389.08 1514.26 1380.65C1513.61 1380.26 1513.07 1381.14 1513.72 1381.52Z" fill="black" fill-opacity="0.05"/>
<path d="M1579.59 1416.49C1580.74 1416.53 1581.7 1416.48 1582.03 1415.21C1583.09 1411.12 1593.43 1416.88 1595.8 1417.8C1597.4 1418.43 1601.73 1419.44 1601.06 1422.09C1600.56 1424.06 1599.74 1429.14 1596.18 1428.22C1592.08 1427.16 1579.45 1420.82 1582.42 1415.43C1582.96 1414.45 1581.41 1413.07 1580.61 1414C1576.54 1418.77 1582.82 1423.44 1587.16 1426.23C1590.61 1428.46 1594.43 1430.5 1598.48 1431.05C1600.74 1431.36 1601.42 1428.83 1602 1427.39C1602.68 1425.69 1604.93 1421.38 1603.7 1419.37C1602.16 1416.86 1597.2 1416.01 1594.69 1415.05C1591.08 1413.66 1586.99 1411.42 1583.16 1411.24C1580.09 1411.11 1581.38 1414.63 1579.24 1415.39C1578.68 1415.59 1579 1416.47 1579.59 1416.49Z" fill="black" fill-opacity="0.05"/>
<path d="M1592.19 1415.05C1592.2 1415.05 1592.2 1415.04 1592.2 1415.04C1592.19 1415.04 1592.18 1415.05 1592.19 1415.05Z" fill="black" fill-opacity="0.05"/>
<path d="M1582.49 1410.31C1583.22 1410.5 1583.95 1410.68 1584.67 1410.87C1584.92 1410.93 1585.23 1410.88 1585.34 1410.66C1589.99 1401.07 1596.74 1392.6 1604.36 1385.11C1607.41 1382.11 1613.68 1384.6 1618.24 1385.32C1623.52 1386.16 1628.8 1386.99 1634.07 1387.83C1637.1 1388.31 1634.75 1387.69 1634.88 1387.05C1634.53 1388.74 1634.19 1390.43 1633.84 1392.13C1631.89 1401.57 1630.44 1411.47 1627.28 1420.53C1627.25 1420.63 1606.93 1417.09 1602.99 1417.03C1601.95 1417.02 1601.66 1418.53 1602.8 1418.82C1608.6 1420.32 1614.66 1420.72 1620.52 1421.58C1623.33 1421.99 1628.42 1424.32 1629.68 1421.31C1634.01 1411 1635.11 1398.46 1637.28 1387.41C1637.43 1386.66 1636.88 1386.03 1636.08 1385.91C1627 1384.52 1617.93 1383.12 1608.85 1381.73C1604.17 1381.01 1604.2 1382.06 1600.67 1385.58C1597.83 1388.41 1595.36 1391.57 1592.98 1394.76C1591.5 1396.74 1585.61 1409.98 1582.78 1409.2C1581.99 1408.98 1581.7 1410.1 1582.49 1410.31Z" fill="black" fill-opacity="0.05"/>
<path d="M1633.44 1420.7C1635.83 1417.55 1636.28 1411.25 1637.27 1407.48C1638.46 1403 1639.68 1398.54 1641.03 1394.11C1641.65 1392.08 1642.76 1386.49 1643.77 1386.69C1650.33 1388 1656.89 1389.32 1663.45 1390.62C1664.47 1390.82 1665.49 1391.02 1666.51 1391.22C1668.34 1391.58 1666.78 1390.58 1666.79 1390.67C1667.04 1392.77 1667.29 1394.87 1667.54 1396.97C1668.36 1403.86 1669.17 1410.75 1670 1417.63L1670.64 1422.95C1670.49 1421.74 1672.7 1422.03 1671.05 1421.91L1667.8 1421.67C1656.15 1420.84 1644.5 1420.08 1632.86 1419.25C1631.34 1419.15 1631.42 1421.36 1632.93 1421.47C1645.93 1422.4 1658.94 1423.39 1671.94 1424.32C1672.58 1424.36 1673.22 1423.87 1673.14 1423.23C1671.83 1412.3 1670.5 1401.38 1669.17 1390.45C1669.09 1389.76 1668.63 1389.36 1667.92 1389.22C1659.56 1387.6 1651.19 1386.01 1642.83 1384.41C1642.3 1384.3 1641.92 1384.72 1641.77 1385.11C1639.26 1391.53 1637.48 1398.25 1635.79 1404.98C1634.78 1409.01 1634.91 1416.72 1632.35 1420.02C1631.9 1420.6 1633 1421.28 1633.44 1420.7Z" fill="black" fill-opacity="0.05"/>
<path d="M1535.2 1453.09C1531.29 1457.06 1526.72 1460.01 1525.1 1465.61C1523.73 1470.36 1528.62 1476.91 1531.78 1480.54C1539.78 1489.71 1553.28 1485.48 1558.95 1478.53C1561.77 1475.05 1563.73 1469.42 1562.64 1464.74C1561.75 1460.94 1560.3 1454.78 1555.85 1452.91C1550.22 1450.55 1545.14 1448.57 1539.36 1449.85C1533.92 1451.04 1529.31 1455.47 1526.8 1459.89C1526.26 1460.83 1527.74 1462.12 1528.54 1461.27C1534.65 1454.74 1540.27 1449.54 1550.91 1453.63C1561.14 1457.55 1561.64 1468.06 1557.59 1475.6C1552.59 1484.92 1538.59 1486.03 1531.42 1476.33C1524.37 1466.78 1530.44 1460.59 1536.15 1453.84C1536.54 1453.37 1535.63 1452.65 1535.2 1453.09Z" fill="black" fill-opacity="0.05"/>
<path d="M1538.97 1460.27C1536.68 1462.47 1534.12 1463.92 1533.18 1467.12C1532.37 1469.86 1535 1473.58 1536.83 1475.72C1541.38 1481.06 1549.11 1478.48 1552.3 1474.5C1553.92 1472.48 1554.98 1469.27 1554.37 1466.57C1553.86 1464.25 1553.01 1460.86 1550.34 1459.74C1547.23 1458.43 1544.4 1457.38 1541.22 1458.11C1538.22 1458.81 1535.36 1461.3 1534.21 1463.92C1533.78 1464.89 1535.03 1466.11 1535.95 1465.29C1539.42 1462.22 1541.71 1459.06 1547.41 1461.24C1552.5 1463.18 1552.46 1468.55 1550.49 1472.25C1548.05 1476.83 1541.17 1477.8 1537.57 1472.86C1534.04 1468.02 1537.13 1464.61 1539.91 1461.02C1540.29 1460.53 1539.41 1459.84 1538.97 1460.27Z" fill="black" fill-opacity="0.05"/>
<path d="M1638.69 1456.94C1635.15 1460.5 1631.05 1463.08 1629.6 1468.12C1628.36 1472.39 1632.73 1478.28 1635.59 1481.55C1642.78 1489.81 1654.93 1486.01 1660.03 1479.75C1662.58 1476.63 1664.32 1471.56 1663.34 1467.35C1662.53 1463.9 1661.21 1458.4 1657.18 1456.7C1652.13 1454.58 1647.58 1452.82 1642.4 1453.96C1637.53 1455.03 1633.33 1459 1631.13 1462.99C1630.61 1463.94 1632.05 1465.21 1632.87 1464.36C1638.38 1458.65 1643.22 1453.96 1652.71 1457.6C1661.73 1461.06 1662.14 1470.34 1658.58 1476.99C1654.16 1485.21 1641.81 1486.23 1635.48 1477.66C1629.24 1469.23 1634.61 1463.68 1639.63 1457.69C1640.03 1457.22 1639.11 1456.51 1638.69 1456.94Z" fill="black" fill-opacity="0.05"/>
<path d="M1642.04 1463.34C1639.96 1465.31 1637.65 1466.57 1636.8 1469.46C1636.06 1471.95 1638.42 1475.31 1640.09 1477.26C1644.21 1482.1 1651.21 1479.77 1654.11 1476.17C1656.52 1473.17 1657.44 1464.96 1652.27 1462.79C1649.47 1461.61 1646.56 1460.45 1643.74 1461.44C1641.04 1462.37 1638.67 1464.28 1637.63 1466.83C1637.24 1467.8 1638.77 1468.55 1639.48 1467.96C1642.63 1465.32 1644.51 1462.45 1649.59 1464.39C1654.02 1466.08 1653.96 1470.78 1652.24 1474C1650.12 1478 1644.12 1478.89 1640.96 1474.57C1637.86 1470.33 1640.57 1467.28 1642.99 1464.09C1643.37 1463.6 1642.49 1462.92 1642.04 1463.34Z" fill="black" fill-opacity="0.05"/>
<path d="M1535.71 1483.56L1535.51 1483.35C1535.83 1483.25 1536.16 1483.15 1536.48 1483.04C1531.8 1479.28 1521.98 1476.44 1521.85 1469.85C1521.83 1468.78 1520.2 1468.52 1519.91 1469.48C1518.37 1474.44 1524.06 1477.87 1528.1 1480.23C1529.12 1480.83 1536.67 1486.45 1536.66 1483.14C1536.66 1482.92 1536.46 1482.64 1536.22 1482.59C1536.14 1482.57 1536.06 1482.56 1535.98 1482.54C1535.25 1482.37 1534.97 1483.39 1535.71 1483.56Z" fill="black" fill-opacity="0.05"/>
<path d="M1640.14 1483.77C1637.52 1482.05 1634.38 1481.26 1631.58 1479.85C1627.85 1477.98 1625.69 1475.22 1623.73 1471.87C1623.11 1470.81 1621.64 1471.42 1621.86 1472.46C1623.33 1479.16 1633.27 1484.48 1639.88 1484.75C1640.46 1484.78 1640.64 1484.09 1640.14 1483.77Z" fill="black" fill-opacity="0.05"/>
<path d="M1691.54 1453.21C1689.73 1452.35 1688.1 1452.02 1686.13 1451.83C1686.53 1452.33 1686.94 1452.83 1687.34 1453.33C1687.82 1450.46 1688.24 1447.57 1688.68 1444.69C1688.88 1443.42 1689.08 1442.16 1689.29 1440.89C1689.42 1440.05 1689.56 1439.2 1689.69 1438.36C1690.45 1438.42 1691.22 1438.47 1691.99 1438.51C1693.6 1438.61 1693.5 1436.4 1691.91 1436.2C1688.62 1435.8 1687.47 1435.75 1686.98 1438.82C1686.26 1443.39 1685.56 1447.97 1684.99 1452.58C1684.91 1453.27 1685.35 1454.03 1686.21 1454.08C1687.87 1454.18 1689.5 1454.47 1691.15 1454.68C1691.98 1454.79 1692.34 1453.6 1691.54 1453.21Z" fill="black" fill-opacity="0.05"/>
<path d="M317.915 80.0722C318.575 67.3732 315.779 53.1012 323.123 41.9462C327.263 35.6572 334.073 30.2151 341.066 27.3481C341.732 27.0772 342.034 26.6642 342.121 25.9619C343.147 17.7765 344.17 9.59633 345.196 1.41088C345.325 0.38244 344.175 -0.106791 343.368 0.0194625C331.676 1.87118 319.943 3.76235 308.377 6.3111C298.679 8.44952 296.807 9.81727 291.833 18.2473C284.3 31.02 277.382 44.1767 270.422 57.2702C264.959 67.552 266.458 66.8787 255.54 69.8535C199.21 85.2012 141.423 97.5977 86.6128 117.811C51.3143 130.829 21.1976 146.079 11.4419 185.165C11.0131 186.888 13.6724 187.625 14.1063 185.899C19.9719 162.65 32.7498 146.411 53.7027 135.263C72.9379 125.032 93.9434 117.98 114.67 111.459C147.488 101.135 180.977 93.4077 214.105 84.2175C228.162 80.3194 242.249 76.5344 256.324 72.6942C266.89 69.8088 266.948 70.0902 272.003 60.5528C279.818 45.8074 286.906 29.4576 296.652 15.8774C303.995 5.64827 325.314 5.91917 337.068 3.95961C338.394 3.73867 342.697 2.21575 343.944 2.83387C340.798 1.27148 341.619 6.95025 341.23 10.054C340.709 14.2414 340.777 19.3389 339.562 23.4079C338.328 27.548 341.493 22.9687 338.047 25.5911C330.677 31.2015 323.636 34.7129 318.925 43.3271C312.928 54.2796 315.687 68.1228 315.066 80.0722C314.971 81.9028 317.817 81.8976 317.915 80.0722Z" fill="black" fill-opacity="0.05"/>
<path d="M240.204 153.647C272.204 139.943 308.571 129.369 316.525 91.2461C316.896 89.4707 314.165 88.7105 313.797 90.4939C306.135 127.423 269.637 138.073 238.837 151.306C237.24 151.995 238.618 154.326 240.204 153.647Z" fill="black" fill-opacity="0.05"/>
<path d="M12.5345 183.533C4.36479 192.96 -5.22785 211.814 6.80307 222.259C15.7934 230.063 32.4904 229.258 43.3535 227.012C79.5015 219.534 114.963 204.812 148.854 190.685C150.567 189.972 149.596 187.581 147.855 188.318C117.32 201.29 86.164 213.216 54.1508 222.051C49.9739 223.203 45.7628 224.468 41.5018 225.273C33.2927 226.823 18.0055 227.654 10.354 222.546C-3.25251 213.461 5.9114 194.154 13.9022 184.901C14.7097 183.965 13.3525 182.592 12.5345 183.533Z" fill="black" fill-opacity="0.05"/>
<path d="M145.782 99.8749C137.265 91.5343 128.782 80.7133 119.119 73.8667C114.482 70.5788 106.877 67.1279 101.233 69.7266C96.0248 72.1228 94.081 78.7301 92.2582 83.6382C87.8657 95.4666 84.1912 107.361 80.614 119.46C80.03 121.433 83.1259 122.285 83.694 120.31C85.8272 112.879 87.7078 105.341 90.1803 98.0127C92.0005 92.618 93.9206 81.868 97.6714 77.6806C111.872 61.8147 134.164 91.5212 144.559 101.095C145.374 101.848 146.579 100.656 145.782 99.8749Z" fill="black" fill-opacity="0.05"/>
<path d="M148.921 188.157C122.418 178.035 152.482 165.723 162.548 161.909C173.156 157.893 183.954 154.405 194.822 151.164C200.303 149.526 209.133 145.244 214.752 145.609C217.261 145.77 220.525 147.653 222.863 148.484C245.694 156.601 268.515 164.784 291.135 173.464C298.952 176.463 308.7 178.882 315.649 183.677C335.177 197.16 300.341 205.201 290.37 205.233C263.675 205.319 236.591 200.685 210.238 196.942C189.832 194.043 169.34 191.263 149.018 187.807C147.408 187.533 146.717 189.995 148.337 190.272C173.493 194.546 198.615 198.767 223.91 202.174C240.502 204.407 257.147 206.524 273.849 207.773C287.387 208.786 303.729 210.304 316.089 203.444C324.279 198.896 327.57 190.169 320.108 183.044C313.924 177.141 302.982 174.611 295.275 171.641C279.514 165.568 263.628 159.815 247.735 154.103C238.151 150.659 226.301 144.002 216.109 142.863C209.083 142.077 200.922 146.23 194.035 148.319C180.069 152.564 166.283 157.304 152.806 162.935C147.285 165.242 134.712 170.01 134.515 178.088C134.362 184.474 143.755 188.291 148.434 189.922C149.557 190.311 150.005 188.57 148.921 188.157Z" fill="black" fill-opacity="0.05"/>
<path d="M21.1908 163.623C22.8189 177.069 40.8969 175.772 50.7421 174.654C55.8816 174.07 68.5675 169.338 64.4011 182.037C62.8414 186.793 55.7527 191.028 51.6811 193.053C39.9395 198.892 15.3016 202.075 15.178 182.379C15.1622 180.072 11.8743 180.164 11.656 182.379C9.03363 209.113 47.5278 202.009 60.2689 191.875C64.701 188.35 73.3678 179.068 69.1725 172.581C66.6789 168.728 62.2075 169.741 58.2278 170.122C49.1507 170.993 27.222 177.19 23.445 163.318C23.1162 162.113 21.0304 162.305 21.1908 163.623Z" fill="black" fill-opacity="0.05"/>
<path d="M115.2 155.567C111.667 158.863 111.723 163.882 115.7 166.849C118.867 169.208 124.422 168.987 126.965 165.775C129.88 162.096 127.883 155.173 123.777 153.197C120.287 151.517 115.631 152.161 114.506 156.333C114.085 157.893 116.486 159.031 117.204 157.469C118.12 155.473 120.311 155.357 122.175 156.164C124.608 157.214 126.15 161.93 124.301 164.024C122.78 165.749 119.337 165.807 117.47 164.726C114.214 162.848 113.964 159.371 116.323 156.69C116.994 155.925 115.952 154.862 115.2 155.567Z" fill="black" fill-opacity="0.05"/>
<path d="M148.509 144.607C144.976 147.902 145.031 152.924 149.011 155.888C152.178 158.247 157.733 158.026 160.277 154.815C163.188 151.135 161.192 144.215 157.089 142.237C153.596 140.556 148.94 141.2 147.817 145.372C147.396 146.932 149.798 148.073 150.516 146.511C151.431 144.512 153.622 144.396 155.487 145.204C157.92 146.253 159.461 150.969 157.612 153.066C156.092 154.791 152.649 154.849 150.779 153.768C147.525 151.887 147.275 148.41 149.632 145.73C150.305 144.964 149.264 143.904 148.509 144.607Z" fill="black" fill-opacity="0.05"/>
<path d="M180.666 133.507C177.134 136.802 177.189 141.821 181.166 144.788C184.335 147.147 189.888 146.926 192.431 143.715C195.346 140.035 193.349 133.112 189.246 131.137C185.753 129.456 181.098 130.1 179.972 134.272C179.554 135.832 181.952 136.971 182.67 135.408C183.586 133.412 185.777 133.296 187.644 134.104C190.075 135.153 191.616 139.869 189.77 141.966C188.247 143.691 184.806 143.749 182.936 142.668C179.682 140.787 179.433 137.31 181.789 134.63C182.463 133.864 181.418 132.802 180.666 133.507Z" fill="black" fill-opacity="0.05"/>
<path d="M214.264 121.812C210.731 125.107 210.787 130.129 214.766 133.093C217.933 135.452 223.488 135.231 226.032 132.02C228.943 128.34 226.947 121.417 222.844 119.442C219.351 117.761 214.695 118.406 213.572 122.577C213.151 124.137 215.553 125.276 216.271 123.716C217.186 121.717 219.377 121.601 221.242 122.409C223.675 123.458 225.216 128.174 223.367 130.271C221.847 131.996 218.404 132.054 216.534 130.973C213.28 129.092 213.03 125.615 215.387 122.935C216.06 122.169 215.019 121.109 214.264 121.812Z" fill="black" fill-opacity="0.05"/>
<path d="M294.75 85.9057C299.595 83.9698 305.121 82.9545 310.237 81.8919C314.056 81.0949 317.465 82.0286 321.092 83.2307C322.96 83.8488 331.429 86.0083 331.49 87.6048C331.608 90.6823 328.686 89.3513 326.261 89.283C322.904 89.1909 319.551 88.9673 316.21 88.5938C309.24 87.8153 302.399 86.2976 295.56 84.7852C293.387 84.3038 292.459 87.6075 294.637 88.1309C302.149 89.93 309.742 91.3688 317.446 92.0526C322.846 92.5314 331.595 94.3226 336.461 91.5371C336.929 91.2715 337.276 90.7138 337.25 90.1641C336.934 83.4201 323.338 80.3742 318.141 79.2221C310.75 77.5808 300.728 81.279 294.489 85.2902C294.187 85.4848 294.379 86.053 294.75 85.9057Z" fill="black" fill-opacity="0.05"/>
<path d="M58.6165 171.964C95.7982 158.904 133.106 146.674 170.467 134.211C214.95 119.376 260.199 106.556 303.869 89.3859C305.842 88.6126 305.014 85.3958 302.978 86.1585C259.007 102.643 214.077 116.083 169.641 131.213C132.343 143.912 95.3326 157.205 58.122 170.165C56.9962 170.559 57.4802 172.361 58.6165 171.964Z" fill="black" fill-opacity="0.05"/>
<path d="M55.549 193.883C140.005 164.348 226.602 139.889 309.855 107.071C311.828 106.292 310.997 103.075 308.964 103.841C261.164 121.806 212.698 138.161 164.214 154.195C127.616 166.297 91.4761 179.453 55.0545 192.084C53.9261 192.476 54.4127 194.28 55.549 193.883Z" fill="black" fill-opacity="0.05"/>
<path d="M70.6247 268C118.125 303.333 207.225 398.1 183.625 494.5C154.125 615 -10.3753 706 1.62472 885.5C13.6247 1065 97.625 1166 587.125 1141.5C1076.62 1117 1352.62 964 1517.12 1070C1681.62 1176 1788.12 1356 1736.12 1488.5C1694.53 1594.5 1561.12 1762 1499.62 1832.5" stroke="black" stroke-opacity="0.15" stroke-dasharray="15 15"/>
</svg>
