<svg width="32" height="12" viewBox="0 0 32 12" fill="none" xmlns="http://www.w3.org/2000/svg">
<path fill-rule="evenodd" clip-rule="evenodd" d="M29.1428 11.1133C29.1428 11.1133 28.9128 9.70205 28.8358 9.34721H25.5178C25.4258 9.62443 24.9668 11.1133 24.9668 11.1133H22.2598L26.0988 1.88355C26.1942 1.60936 26.3795 1.3755 26.6242 1.22228C26.8689 1.06804 27.1584 1.00251 27.4448 1.03679H29.4448L31.5448 11.1174H29.1448L29.1428 11.1133ZM27.8118 4.62044L27.6278 3.75955C27.5058 4.14362 27.2758 4.74442 27.2918 4.72829C27.2918 4.72829 26.4658 6.95811 26.2668 7.54278H28.4078C28.3008 7.03573 27.8118 4.62044 27.8118 4.62044ZM22.2438 3.36037C21.6391 3.08517 20.9799 2.95311 20.3168 2.97528C19.2918 2.97528 18.8328 3.40573 18.8168 3.83617C18.8168 4.31399 19.3678 4.62043 20.2848 5.08212C21.7688 5.78776 22.4568 6.66679 22.4418 7.82001C22.4268 9.8956 20.6678 11.2474 17.9418 11.2474C16.9586 11.2504 15.9836 11.068 15.0668 10.7101L15.4178 8.44903L15.7698 8.61838C16.5209 8.99035 17.3499 9.17585 18.1868 9.15669C18.5222 9.22222 18.87 9.15769 19.1597 8.97523C19.4494 8.79177 19.6592 8.50448 19.7468 8.17182C19.7468 7.72626 19.4108 7.40266 18.4008 6.91073C17.4218 6.43493 16.1218 5.63554 16.1368 4.18898C16.1528 2.23637 17.9418 0.862389 20.4968 0.862389C21.2902 0.858357 22.0779 0.998488 22.8218 1.27671L22.4698 3.46116L22.2438 3.36037ZM10.8638 11.1133L12.4858 1.03276H15.0708L13.4498 11.1133H10.8638ZM4.6388 11.1133L2.3338 2.37246C2.2558 2.32609 2.1728 2.28376 2.0918 2.23941H3.6348L4.2048 2.64262L5.2508 4.25552L5.6948 5.4914L5.8948 6.51256L6.1708 7.89662L8.7078 1.03276H11.4458L7.3768 11.1133H4.6348H4.6388Z" fill="white"/>
<path fill-rule="evenodd" clip-rule="evenodd" d="M3.47 3.54669C3.1587 3.30073 2.8237 3.08701 2.47 2.90858L2.323 2.35014C1.5927 1.91667 0.8126 1.57494 0 1.333V1.02051H3.971C4.2091 1.02152 4.4397 1.10416 4.6244 1.25537C4.8092 1.40658 4.9368 1.61727 4.986 1.85215L5.846 6.29466C5.2128 5.25031 4.4096 4.32189 3.47 3.54669Z" fill="white"/>
</svg>
