<svg width="16" height="16" viewBox="0 0 16 16" fill="none" xmlns="http://www.w3.org/2000/svg">
<path fill-rule="evenodd" clip-rule="evenodd" d="M7.10909 0.0227037C5.9981 0.192561 5.22567 0.434803 4.31906 0.897641C1.02677 2.57839 -0.674271 6.31982 0.250011 9.84741C0.320734 10.1173 0.492274 10.6056 0.631211 10.9325C0.770085 11.2594 0.895981 11.5972 0.910841 11.6832C0.925762 11.7693 0.729959 12.7757 0.475784 13.9199C0.221609 15.064 0.0160255 16.0001 0.0189723 16C0.0219191 16 1.00451 15.7773 2.20253 15.5051L4.38076 15.0102L4.89701 15.2275C6.83836 16.0445 9.04625 16.0599 11.0205 15.2703C13.1445 14.4209 14.8897 12.583 15.6019 10.4459C15.9207 9.48899 16 8.98798 16 7.92949C16 6.54842 15.7349 5.45063 15.1207 4.2881C14.0185 2.20176 12.0439 0.696816 9.71103 0.164846C9.18957 0.0459144 7.54471 -0.0439254 7.10909 0.0227037ZM9.67968 1.44976C11.6066 1.94287 13.248 3.29003 14.1064 5.08289C14.9881 6.9243 14.9951 8.89083 14.1265 10.7355C13.1147 12.8842 11.1113 14.2935 8.68078 14.5664C7.51694 14.6971 6.23308 14.4711 5.08215 13.9329L4.55919 13.6884L3.14951 14.0057C2.37413 14.1802 1.72672 14.3101 1.71079 14.2941C1.69487 14.2782 1.81895 13.6415 1.98654 12.8791L2.29131 11.4931L1.95676 10.8218C1.76998 10.4471 1.54822 9.87406 1.4548 9.52483C1.30602 8.96884 1.28753 8.78785 1.28884 7.89821C1.29016 7.02296 1.31072 6.82088 1.45242 6.28997C1.95412 4.41003 3.27522 2.78784 4.97738 1.96152C6.12029 1.40671 6.95843 1.22553 8.20629 1.26351C8.84511 1.28296 9.2065 1.32864 9.67968 1.44976ZM4.98917 4.67204C4.31725 5.2901 4.17166 6.2468 4.60189 7.21753C4.9814 8.07388 6.15083 9.4816 7.00439 10.1097C7.89475 10.7648 9.20431 11.2631 10.0559 11.2708C10.5175 11.275 10.5899 11.2575 10.965 11.0518C11.5154 10.7499 11.7197 10.4576 11.7638 9.90872L11.797 9.49568L10.9578 9.08802C10.4962 8.8638 10.0584 8.6803 9.98495 8.6803C9.90319 8.68024 9.78388 8.77127 9.67761 8.91485C9.38318 9.3125 9.06412 9.61868 8.94418 9.61868C8.60994 9.61868 7.4538 8.876 6.99454 8.36624C6.69824 8.03741 6.19998 7.32976 6.19998 7.2378C6.19998 7.20933 6.34105 7.02515 6.51347 6.82857C6.71792 6.5954 6.82695 6.41435 6.82695 6.30793C6.82695 6.11004 6.24913 4.70895 6.09941 4.54391C6.01778 4.45389 5.90537 4.42598 5.62461 4.42598C5.2836 4.42598 5.2372 4.44394 4.98917 4.67204Z" fill="black"/>
</svg>
